<svg width="70" height="70" viewBox="0 0 70 70" fill="none" xmlns="http://www.w3.org/2000/svg">
<path d="M17.81 26.53C20.56 25.77 21.45 21.93 23.55 21.74C25.65 21.55 26.87 21.36 29.36 22.89C29.36 22.89 37.47 21.36 42.9 22.25C48.33 23.14 53.05 24.25 56.07 23.4C57.6952 22.9054 59.2509 22.2065 60.7 21.32V14.51L48.93 2.72998H12.51C11.8841 2.72998 11.2838 2.97862 10.8413 3.42121C10.3987 3.86379 10.15 4.46407 10.15 5.08998V25.09C11.31 25.6 15.46 27.17 17.81 26.53Z" fill="#C5E5FF"/>
<path d="M56.32 51.27C53.0435 53.9583 49.4212 56.1949 45.55 57.92C41.97 59.53 37.07 61.51 33.47 62.06C33.2281 62.122 32.9797 62.1556 32.73 62.16C27.22 62.71 13.35 48.7 10.15 45.39V65.86C10.15 66.4859 10.3987 67.0862 10.8413 67.5288C11.2838 67.9714 11.8841 68.22 12.51 68.22H58.34C58.9659 68.22 59.5662 67.9714 60.0088 67.5288C60.4514 67.0862 60.7 66.4859 60.7 65.86V46.58C59.507 48.3729 58.0273 49.9574 56.32 51.27Z" fill="#C5E5FF"/>
<path d="M60.7 42.91C60.6376 42.9679 60.5807 43.0315 60.53 43.1C60.594 43.1489 60.6511 43.206 60.7 43.27V42.91Z" fill="#C5E5FF"/>
<path d="M51.29 14.51H60.7L48.93 2.72998V12.15C48.93 12.7759 49.1786 13.3762 49.6212 13.8188C50.0638 14.2613 50.6641 14.51 51.29 14.51Z" fill="#074E8A"/>
<path d="M56.68 26.63C56.68 26.63 57.23 25.38 57.85 25.63C58.47 25.88 64 38.3 64 38.3C64 38.3 64.78 39.01 61.81 39.63C58.84 40.25 56.17 41.63 56.09 42.77L40.31 32.9C40.31 32.9 36.24 30.71 34.13 31.25C32.02 31.79 29.27 35 28.57 35C27.87 35 23.87 36.5 25 32.9C25 32.9 30.84 28.02 31.18 27.42C31.52 26.82 40.18 26.48 41.36 26.79C42.54 27.1 47.7 30.32 51.23 30.08C52.3348 29.9365 53.395 29.5534 54.3364 28.9575C55.2778 28.3616 56.0776 27.5672 56.68 26.63Z" fill="#FFCDAC"/>
<path d="M35.5233 56.5059C36.364 55.2079 36.4705 53.7834 35.7613 53.324C35.052 52.8647 33.7956 53.5445 32.955 54.8424C32.1143 56.1404 32.0078 57.5649 32.717 58.0243C33.4263 58.4836 34.6827 57.8038 35.5233 56.5059Z" fill="#FFCDAC"/>
<path d="M25.8848 49.207C26.8421 47.7178 26.9563 46.0851 26.1398 45.5602C25.3233 45.0353 23.8853 45.817 22.928 47.3062C21.9706 48.7954 21.8565 50.4281 22.673 50.953C23.4895 51.4779 24.9274 50.6962 25.8848 49.207Z" fill="#FFCDAC"/>
<path d="M29.2262 51.9052C30.22 50.3708 30.3454 48.6865 29.5064 48.1431C28.6674 47.5996 27.1816 48.403 26.1879 49.9373C25.1941 51.4717 25.0687 53.156 25.9077 53.6995C26.7467 54.2429 28.2325 53.4396 29.2262 51.9052Z" fill="#FFCDAC"/>
<path d="M33.0385 54.0032C34.2244 52.1722 34.4643 50.2206 33.5743 49.6441C32.6843 49.0677 31.0014 50.0847 29.8155 51.9158C28.6296 53.7468 28.3897 55.6984 29.2797 56.2749C30.1698 56.8513 31.8526 55.8343 33.0385 54.0032Z" fill="#FFCDAC"/>
<path d="M14.7651 29.6522L12.6606 29.1232C12.291 29.0303 11.9161 29.2546 11.8232 29.6241L9.00991 40.816C8.91701 41.1855 9.1413 41.5605 9.51088 41.6534L11.6154 42.1824C11.985 42.2753 12.3599 42.051 12.4528 41.6814L15.2661 30.4896C15.359 30.12 15.1347 29.7451 14.7651 29.6522Z" fill="#2265A7"/>
<path d="M16.12 31.36C16.2246 30.9743 16.4664 30.64 16.8 30.42C17.1873 30.2234 17.6364 30.1875 18.05 30.32C19.0467 30.4611 20.0597 30.4408 21.05 30.26C22.81 29.92 24.45 28.14 25.17 27.08C25.4391 26.6152 25.8643 26.2608 26.37 26.08C26.8455 25.9936 27.3359 26.0493 27.78 26.24C28.2879 26.4201 28.7515 26.7065 29.14 27.08C27.92 28.35 26.86 29.33 26.14 30C24.68 31.3 24.14 31.65 23.79 32.56C23.5743 33.1335 23.5144 33.7539 23.6163 34.3582C23.7182 34.9624 23.9782 35.5288 24.37 36C25.82 37.51 28.37 36.59 28.54 36.52C29.7 36.09 29.64 35.52 31.36 34.38C32.449 33.5408 33.7197 32.9688 35.07 32.71C36.5423 32.6167 38.0053 33.0026 39.24 33.81C42.4051 35.6135 45.4727 37.5829 48.43 39.71C51.89 42.02 53.61 43.17 53.91 43.26C54.2368 43.3428 54.5301 43.5244 54.75 43.78C55.44 44.63 55.15 46.37 54.23 47.38C53.7493 47.8653 53.1421 48.206 52.4774 48.3633C51.8127 48.5206 51.1172 48.4883 50.47 48.27C50.5184 48.8497 50.4137 49.432 50.1662 49.9585C49.9187 50.4851 49.5373 50.9373 49.06 51.27C48.4773 51.6459 47.7925 51.8324 47.0996 51.8037C46.4067 51.7751 45.7397 51.5327 45.19 51.11C45.2483 51.7796 45.1007 52.4511 44.767 53.0346C44.4332 53.6181 43.9292 54.0858 43.3225 54.3751C42.7157 54.6643 42.035 54.7614 41.3716 54.6532C40.7081 54.5451 40.0935 54.2369 39.61 53.77C39.5461 54.4352 39.2661 55.0613 38.8128 55.5525C38.3596 56.0436 37.758 56.3729 37.1 56.49C37.4724 56.0295 37.6886 55.4626 37.7173 54.8711C37.7461 54.2796 37.5859 53.6944 37.26 53.2C36.8824 52.7287 36.3452 52.4121 35.75 52.31C36.0632 51.6963 36.1557 50.9935 36.0118 50.3197C35.8679 49.6459 35.4965 49.0422 34.96 48.61C34.5018 48.2796 33.9578 48.0887 33.3936 48.0603C32.8294 48.0319 32.2691 48.1672 31.78 48.45C31.7458 48.0518 31.6123 47.6686 31.3917 47.3354C31.1711 47.0022 30.8705 46.7296 30.5173 46.5426C30.1642 46.3556 29.7698 46.2601 29.3702 46.2649C28.9706 46.2696 28.5786 46.3745 28.23 46.57C28.1334 46.089 27.9343 45.6346 27.6461 45.2377C27.3579 44.8408 26.9874 44.5107 26.56 44.27C24.8 43.52 22.42 45.39 21.44 47.27C21.0872 47.9505 20.8762 48.6955 20.82 49.46L14 43.1C13.833 42.8113 13.7275 42.4913 13.69 42.16C13.6414 41.6086 13.7096 41.0532 13.89 40.53C14.36 38.53 15.14 34.24 16.12 31.36Z" fill="#F9BFA0"/>
<path d="M36.84 11.31H15.03C14.7318 11.31 14.49 11.5518 14.49 11.85V12.06C14.49 12.3582 14.7318 12.6 15.03 12.6H36.84C37.1382 12.6 37.38 12.3582 37.38 12.06V11.85C37.38 11.5518 37.1382 11.31 36.84 11.31Z" fill="#074E8A"/>
<path d="M36.84 14.38H15.03C14.7318 14.38 14.49 14.6218 14.49 14.92V15.13C14.49 15.4282 14.7318 15.67 15.03 15.67H36.84C37.1382 15.67 37.38 15.4282 37.38 15.13V14.92C37.38 14.6218 37.1382 14.38 36.84 14.38Z" fill="#074E8A"/>
<path d="M25.66 17.45H15.03C14.7318 17.45 14.49 17.6918 14.49 17.99V18.2C14.49 18.4982 14.7318 18.74 15.03 18.74H25.66C25.9582 18.74 26.2 18.4982 26.2 18.2V17.99C26.2 17.6918 25.9582 17.45 25.66 17.45Z" fill="#074E8A"/>
<path d="M56.42 63.42H45.79C45.4918 63.42 45.25 63.6618 45.25 63.96V64.17C45.25 64.4682 45.4918 64.71 45.79 64.71H56.42C56.7182 64.71 56.96 64.4682 56.96 64.17V63.96C56.96 63.6618 56.7182 63.42 56.42 63.42Z" fill="#F9F9F9"/>
<path d="M28.12 17.45H28.11C27.7565 17.45 27.47 17.7365 27.47 18.09V18.1C27.47 18.4535 27.7565 18.74 28.11 18.74H28.12C28.4734 18.74 28.76 18.4535 28.76 18.1V18.09C28.76 17.7365 28.4734 17.45 28.12 17.45Z" fill="#074E8A"/>
</svg>
