<svg xmlns="http://www.w3.org/2000/svg" xmlns:xlink="http://www.w3.org/1999/xlink" width="398" height="364" fill="none" xmlns:v="https://vecta.io/nano"><style><![CDATA[.B{fill:#fff}.C{fill-rule:evenodd}.D{fill:#163c79}.E{fill:#1b4687}.F{fill:#0f254c}.G{fill:#142e56}.H{fill:#2a63a1}.I{fill:#255a95}.J{fill:#ff7101}.K{fill:#133563}.L{fill:#143664}.M{fill:#143665}.N{fill:#143666}.O{fill:#143767}.P{fill:#143768}.Q{fill:#143769}.R{fill:#14386a}.S{fill:#14386b}.T{fill:#15386d}.U{fill:#15386e}.V{fill:#15396f}.W{fill:#153970}.X{fill:#153971}.Y{fill:#153a72}.Z{fill:#153a73}.a{fill:#153a74}.b{fill:#163b75}.c{fill:#163b76}.d{fill:#163b77}.e{fill:#163c78}.f{fill:#163d7a}.g{fill:#173e7b}.h{fill:#173e7c}.i{fill:#183f7d}.j{fill:#18407e}.k{fill:#18417f}.l{fill:#194181}.m{fill:#194282}.n{fill:#194383}.o{fill:#1a4484}.p{fill:#1a4485}.q{fill:#1b4586}.r{fill:#1c4788}.s{fill:#1c4889}.t{fill:#1d498a}.u{fill:#1d4a8b}.v{fill:#1e4b8c}.w{fill:#1e4c8c}.x{fill:#1f4d8d}.y{fill:#204e8e}.z{fill:#204f8f}.AA{fill:#215090}.AB{fill:#215291}.AC{fill:#225392}.AD{fill:#225493}.AE{fill:#235594}.AF{fill:#245695}.AG{fill:#245795}.AH{fill:#143564}.AI{fill:#2962a0}.AJ{fill:#29619f}.AK{fill:#28609e}.AL{fill:#285f9e}.AM{fill:#275e9d}.AN{fill:#275d9c}.AO{fill:#265c9b}.AP{fill:#265b9a}.AQ{fill:#255a99}.AR{fill:#255999}.AS{fill:#245898}.AT{fill:#245797}.AU{fill:#235596}.AV{fill:#235495}.AW{fill:#225394}.AX{fill:#225294}.AY{fill:#215193}.AZ{fill:#215092}.Aa{fill:#204f91}.Ab{fill:#204e90}.Ac{fill:#1f4d8f}.Ad{fill:#1f4c8f}.Ae{fill:#3b80b9}.Af{fill:#3a7fb8}.Ag{fill:#3a7eb7}.Ah{fill:#397db6}.Ai{fill:#387cb5}.Aj{fill:#387bb4}.Ak{fill:#377ab3}.Al{fill:#3779b2}.Am{fill:#3678b1}.An{fill:#3677b0}.Ao{fill:#3576af}.Ap{fill:#3475ae}.Aq{fill:#3474ad}.Ar{fill:#3373ac}.As{fill:#3372ab}.At{fill:#3271aa}.Au{fill:#3170a9}.Av{fill:#316fa8}.Aw{fill:#306da8}.Ax{fill:#306ca7}.Ay{fill:#2f6ba6}.Az{fill:#2e6aa5}.BA{fill:#2e69a4}.BB{fill:#2d68a3}.BC{fill:#2d67a2}.BD{fill:#2c66a1}.BE{fill:#2b65a0}.BF{fill:#2b649f}.BG{fill:#2a639e}.BH{fill:#2a629d}.BI{fill:#29619c}.BJ{fill:#29609b}.BK{fill:#285f9a}.BL{fill:#275e99}.BM{fill:#275d98}.BN{fill:#265c97}.BO{fill:#265b96}]]></style><g clip-path="url(#S)"><path d="M131.665 277.949a38.97 38.97 0 0 1-19.502-5.207l-56.798-32.736a19.96 19.96 0 0 1-9.235-12.084c-1.361-5.087-.654-10.505 1.968-15.074a20.15 20.15 0 0 1 7.267-7.211l57.425-33.135c5.942-3.412 12.675-5.208 19.529-5.208s13.588 1.796 19.529 5.208l56.726 32.654c4.555 2.651 7.872 6.997 9.226 12.085a19.88 19.88 0 0 1-2.005 15.064 20.14 20.14 0 0 1-7.221 7.257l-57.343 33.216c-5.954 3.411-12.702 5.194-19.566 5.171zm.636-107.942a36.38 36.38 0 0 0-18.167 4.835l-57.397 33.144c-2.591 1.492-4.743 3.638-6.24 6.223-2.259 3.939-2.871 8.609-1.703 12.996a17.24 17.24 0 0 0 7.943 10.434l56.798 32.745c5.523 3.184 11.789 4.861 18.167 4.861s12.643-1.677 18.166-4.861l57.307-33.208a17.16 17.16 0 0 0 6.264-6.273 17.13 17.13 0 0 0 2.292-8.558c0-3.004-.791-5.955-2.292-8.557a17.16 17.16 0 0 0-6.264-6.273l-56.716-32.655c-5.522-3.18-11.784-4.854-18.158-4.853z" fill="#ec7333"/><path d="M197.892 196.285v-10.213h-7.785l-43.645-25.135a28.68 28.68 0 0 0-14.297-3.817c-5.018 0-9.949 1.316-14.297 3.817l-43.691 25.135h-8.475v12.699a13.53 13.53 0 0 0 1.809 6.774c1.188 2.06 2.898 3.772 4.958 4.963l42.056 24.273a34.28 34.28 0 0 0 34.235 0l42.555-24.49c2.075-1.181 3.796-2.893 4.987-4.959a13.4 13.4 0 0 0 1.79-6.797 20.18 20.18 0 0 0-.191-2.25h-.009z" class="AH"/><mask id="A" maskUnits="userSpaceOnUse" x="60" y="118" width="143" height="147"><path d="M194.313 149.825l-46.843-26.967c-4.672-2.692-9.971-4.108-15.364-4.108s-10.693 1.416-15.365 4.108l-46.842 26.967h-8.965v69.926a14.41 14.41 0 0 0 1.95 7.23 14.44 14.44 0 0 0 5.317 5.279l48.142 27.738a30.79 30.79 0 0 0 15.369 4.109c5.395 0 10.695-1.417 15.369-4.109l48.668-28.119a13.89 13.89 0 0 0 5.19-5.197c1.233-2.165 1.859-4.622 1.813-7.112v-69.745h-8.438z" class="B"/></mask><g mask="url(#A)"><path d="M202.679 117.379h-1.363v148.089h1.363V117.379z" class="K"/><use xlink:href="#T" class="L"/><use xlink:href="#U" class="M"/><path d="M196.166 117.379h-2.571v148.089h2.571V117.379z" class="N"/><path d="M193.595 117.379h-2.57v148.089h2.57V117.379z" class="O"/><path d="M191.016 117.379h-2.571v148.089h2.571V117.379z" class="P"/><path d="M188.445 117.379h-2.57v148.089h2.57V117.379z" class="Q"/><path d="M185.875 117.379h-2.571v148.089h2.571V117.379z" class="R"/><path d="M183.295 117.379h-2.571v148.089h2.571V117.379z" class="S"/><path d="M180.724 117.379h-2.57v148.089h2.57V117.379z" class="T"/><path d="M178.154 117.379h-2.571v148.089h2.571V117.379z" class="U"/><path d="M175.574 117.379h-2.57v148.089h2.57V117.379z" class="V"/><path d="M173.003 117.379h-2.57v148.089h2.57V117.379z" class="W"/><path d="M170.433 117.379h-2.571v148.089h2.571V117.379z" class="X"/><path d="M167.853 117.379h-2.57v148.089h2.57V117.379z" class="Y"/><path d="M165.283 117.379h-2.571v148.089h2.571V117.379z" class="Z"/><path d="M162.712 117.379h-2.571v148.089h2.571V117.379z" class="a"/><path d="M160.142 117.379h-2.571v148.089h2.571V117.379z" class="b"/><path d="M157.562 117.379h-2.571v148.089h2.571V117.379z" class="c"/><path d="M154.991 117.379h-2.57v148.089h2.57V117.379z" class="d"/><path d="M152.421 117.379h-2.571v148.089h2.571V117.379z" class="e"/><path d="M149.841 117.379h-2.571v148.089h2.571V117.379z" class="D"/><use xlink:href="#V" class="D"/><path d="M146.516 117.379h-.753v148.089h.753V117.379z" class="f"/><path d="M145.763 117.379h-.754v148.089h.754V117.379z" class="g"/><path d="M145.009 117.379h-.754v148.089h.754V117.379z" class="h"/><path d="M144.255 117.379h-.754v148.089h.754V117.379z" class="i"/><path d="M143.501 117.379h-.754v148.089h.754V117.379z" class="j"/><path d="M142.747 117.379h-.754v148.089h.754V117.379z" class="k"/><path d="M141.993 117.379h-.754v148.089h.754V117.379z" class="l"/><path d="M141.239 117.379h-.754v148.089h.754V117.379z" class="m"/><path d="M140.476 117.379h-.754v148.089h.754V117.379z" class="n"/><path d="M139.722 117.379h-.754v148.089h.754V117.379z" class="o"/><path d="M138.968 117.379h-.754v148.089h.754V117.379z" class="p"/><path d="M138.214 117.379h-.754v148.089h.754V117.379z" class="q"/><path d="M137.46 117.379h-.753v148.089h.753V117.379z" class="E"/><use xlink:href="#W" class="E"/><path d="M132.219 117.379h-4.478v148.089h4.478V117.379z" class="r"/><path d="M127.741 117.379h-4.478v148.089h4.478V117.379z" class="s"/><path d="M123.254 117.379h-4.478v148.089h4.478V117.379z" class="t"/><path d="M118.776 117.379h-4.478v148.089h4.478V117.379z" class="u"/><path d="M114.298 117.379h-4.478v148.089h4.478V117.379z" class="v"/><path d="M109.811 117.379h-4.478v148.089h4.478V117.379z" class="w"/><path d="M105.333 117.379h-4.478v148.089h4.478V117.379z" class="x"/><path d="M100.846 117.379h-4.479v148.089h4.479V117.379z" class="y"/><path d="M96.367 117.379h-4.478v148.089h4.478V117.379z" class="z"/><path d="M91.88 117.379h-4.478v148.089h4.478V117.379z" class="AA"/><path d="M87.402 117.379h-4.478v148.089h4.478V117.379z" class="AB"/><path d="M82.924 117.379h-4.478v148.089h4.478V117.379z" class="AC"/><path d="M78.437 117.379h-4.478v148.089h4.478V117.379z" class="AD"/><path d="M73.959 117.379h-4.478v148.089h4.478V117.379z" class="AE"/><path d="M69.472 117.379h-4.478v148.089h4.478V117.379z" class="AF"/><path d="M64.994 117.379h-4.078v148.089h4.078V117.379z" class="AG"/></g><mask id="B" maskUnits="userSpaceOnUse" x="61" y="131" width="143" height="90"><path d="M195.903 163.268c2.189 1.279 4.005 3.109 5.268 5.306a14.5 14.5 0 0 1 0 14.441c-1.263 2.197-3.079 4.027-5.268 5.306l-48.587 28.047c-4.672 2.691-9.971 4.108-15.365 4.108s-10.692-1.417-15.364-4.108l-48.142-27.739c-2.19-1.279-4.006-3.108-5.268-5.306a14.5 14.5 0 0 1-1.926-7.22c0-2.534.664-5.023 1.926-7.22s3.078-4.027 5.268-5.307l48.669-28.119c4.672-2.691 9.971-4.108 15.364-4.108s10.693 1.417 15.365 4.108l48.06 27.811z" class="B"/></mask><g mask="url(#B)"><path d="M175.429 130.005L59.162 183.541v-53.536h116.267z" class="H"/><path d="M185.52 130.005l-126.358 58.18v-4.644l116.267-53.536h10.091z" class="H"/><path d="M195.612 130.005l-136.45 62.833v-4.653l126.358-58.18h10.092z" class="AI"/><path d="M205.204 130.241L59.162 197.482v-4.644l136.45-62.833h9.592v.236z" class="AJ"/><path d="M205.204 134.885L59.162 202.127v-4.645l146.042-67.241v4.644z" class="AK"/><path d="M205.204 139.539L59.162 206.78v-4.654l146.042-67.241v4.654z" class="AL"/><path d="M205.204 144.183L59.162 211.424v-4.644l146.042-67.241v4.644z" class="AM"/><path d="M205.204 148.827L59.162 216.068v-4.644l146.042-67.241v4.644z" class="AN"/><path d="M205.204 153.471L59.162 220.722v-4.654l146.042-67.241v4.644z" class="AO"/><path d="M205.204 158.124L66.801 221.846h-7.639v-1.125l146.042-67.25v4.653z" class="AP"/><path d="M205.204 162.769L76.893 221.846H66.801l138.403-63.721v4.644z" class="AQ"/><path d="M205.204 167.413l-118.22 54.433H76.893l128.311-59.077v4.644z" class="AR"/><path d="M205.204 172.057L97.076 221.846H86.984l118.22-54.433v4.644z" class="AS"/><path d="M205.204 176.71l-98.036 45.136H97.076l108.128-49.789v4.653z" class="AT"/><path d="M205.204 181.355l-87.945 40.491h-10.092l98.037-45.136v4.645z" class="AU"/><path d="M205.204 185.999l-77.853 35.847h-10.092l87.945-40.492v4.645z" class="AV"/><path d="M205.204 190.652l-67.762 31.194h-10.091l77.853-35.847v4.653z" class="AW"/><path d="M205.204 195.297l-57.67 26.55h-10.092l67.762-31.195v4.645z" class="AX"/><path d="M205.204 199.941l-47.57 21.905h-10.1l57.67-26.55v4.645z" class="AY"/><path d="M205.204 204.594l-37.478 17.252h-10.091l47.569-21.906v4.654z" class="AZ"/><path d="M205.204 209.238l-27.386 12.608h-10.092l37.478-17.252v4.644z" class="Aa"/><path d="M205.204 213.882l-17.295 7.964h-10.091l27.386-12.608v4.644z" class="Ab"/><path d="M205.204 218.527l-7.203 3.319h-10.092l17.295-7.964v4.645z" class="Ac"/><path d="M198.001 221.846l7.203-3.32v3.32h-7.203z" class="Ad"/></g><g opacity=".1" class="B C"><path d="M124.68 184.593c-1.781-.396-3.499-1.037-5.105-1.905a12.01 12.01 0 0 1-2.643-2.213l-5.831 3.492c.908 1.016.617 2.259-.7 3.03 0 0-1.326.199-3.933-1.352s-2.298-2.331-2.298-2.331c1.564-.804 3.381-.96 5.059-.435l6.613-3.919c-.736-1.442-.854-2.875.354-3.927l4.197-3.148c.406-.26.88-.393 1.362-.381a1.93 1.93 0 0 1 1.399.426c2.056 1.795 4.255 3.418 6.577 4.853 2.672 1.471 5.443 2.756 8.293 3.846.972.39 1.008 1.207.072 1.633l-5.404 2.413a11.72 11.72 0 0 1-5.178.435l-7.266 4.309c.908 1.007.626 2.249-.7 3.029 0 0-1.317.191-3.924-1.36s-2.298-2.331-2.298-2.331c1.563-.806 3.383-.96 5.059-.427l6.304-3.728-.009-.009zm7.467-24.899a11.03 11.03 0 0 1 3.379-.508c.609-.006 1.217.046 1.816.154l11.863 2.413a12.58 12.58 0 0 1 3.852 1.47l.081.045a6.81 6.81 0 0 1 2.525 2.213l4.161 6.912a2.53 2.53 0 0 1 .225 1.613 2.54 2.54 0 0 1-.807 1.417l-7.584 5.17c-.087.059-.178.111-.273.154-.98.489-2.052.769-3.147.822s-2.188-.122-3.211-.513a114.04 114.04 0 0 1-12.481-5.906 68.39 68.39 0 0 1-9.846-7.574c-1.29-1.161-1.017-2.639.618-3.628h.081a3.42 3.42 0 0 1 .309-.154l8.484-4.073-.045-.027zm6.73 5.551l-1.516.907c-1.09.663-1.445 1.515-.782 1.905a3.53 3.53 0 0 0 1.614.13c.54-.081 1.055-.287 1.502-.601l1.517-.908c1.09-.653 1.435-1.514.772-1.895a1.69 1.69 0 0 0-.908-.2c-.787.005-1.557.234-2.217.662h.018zm8.175 5.016l-1.516.907c-1.081.663-1.436 1.515-.773 1.905a3.47 3.47 0 0 0 1.609.14c.54-.08 1.053-.287 1.498-.602l1.517-.907c1.09-.663 1.444-1.515.781-1.905a1.82 1.82 0 0 0-.908-.191 4.9 4.9 0 0 0-2.18.653h-.028z"/></g><mask id="C" maskUnits="userSpaceOnUse" x="60" y="166" width="143" height="55"><path d="M201.625 176.085a13.27 13.27 0 0 1-1.781 6.64 13.28 13.28 0 0 1-4.868 4.861l-48.668 28.119c-4.486 2.598-9.58 3.967-14.765 3.967a29.46 29.46 0 0 1-14.765-3.967l-48.142-27.738c-2.024-1.163-3.704-2.839-4.871-4.859s-1.781-4.311-1.778-6.642c0-6.985 2.679-9.906 2.679-9.906-2.608 2.826-3.987 6.569-3.836 10.408s1.822 7.462 4.644 10.074a15.26 15.26 0 0 0 2.561 1.905l48.142 27.738c4.657 2.701 9.947 4.122 15.333 4.118a30 30 0 0 0 15.323-4.118l48.669-28.119a14.43 14.43 0 0 0 5.318-5.278c1.276-2.197 1.948-4.691 1.949-7.231a15.02 15.02 0 0 0-3.67-9.524c.154 0 2.525 2.477 2.525 9.552z" class="B"/></mask><g mask="url(#C)"><use xlink:href="#X" class="Ae"/><path d="M67.382 166.488h-3.688v54.469h3.688v-54.469z" class="Af"/><path d="M71.07 166.488h-3.688v54.469h3.688v-54.469z" class="Ag"/><path d="M74.758 166.488H71.07v54.469h3.688v-54.469z" class="Ah"/><path d="M78.437 166.488h-3.688v54.469h3.688v-54.469z" class="Ai"/><path d="M82.125 166.488h-3.688v54.469h3.688v-54.469z" class="Aj"/><path d="M85.813 166.488h-3.688v54.469h3.688v-54.469z" class="Ak"/><path d="M89.491 166.488h-3.688v54.469h3.688v-54.469z" class="Al"/><path d="M93.179 166.488h-3.688v54.469h3.688v-54.469z" class="Am"/><path d="M96.858 166.488H93.17v54.469h3.688v-54.469z" class="An"/><path d="M100.546 166.488h-3.688v54.469h3.688v-54.469z" class="Ao"/><use xlink:href="#Y" class="Ap"/><path d="M107.912 166.488h-3.688v54.469h3.688v-54.469z" class="Aq"/><path d="M111.6 166.488h-3.688v54.469h3.688v-54.469z" class="Ar"/><path d="M115.279 166.488h-3.688v54.469h3.688v-54.469z" class="As"/><path d="M118.967 166.488h-3.688v54.469h3.688v-54.469z" class="At"/><path d="M122.655 166.488h-3.688v54.469h3.688v-54.469z" class="Au"/><path d="M126.333 166.488h-3.687v54.469h3.687v-54.469z" class="Av"/><path d="M130.021 166.488h-3.688v54.469h3.688v-54.469z" class="Aw"/><path d="M133.709 166.488h-3.688v54.469h3.688v-54.469z" class="Ax"/><path d="M137.388 166.488H133.7v54.469h3.688v-54.469z" class="Ay"/><path d="M141.076 166.488h-3.688v54.469h3.688v-54.469z" class="Az"/><path d="M144.754 166.488h-3.688v54.469h3.688v-54.469z" class="BA"/><path d="M148.442 166.488h-3.688v54.469h3.688v-54.469z" class="BB"/><path d="M152.13 166.488h-3.688v54.469h3.688v-54.469z" class="BC"/><path d="M155.809 166.488h-3.688v54.469h3.688v-54.469z" class="BD"/><path d="M159.497 166.488h-3.688v54.469h3.688v-54.469z" class="BE"/><path d="M163.175 166.488h-3.688v54.469h3.688v-54.469z" class="BF"/><path d="M166.863 166.488h-3.688v54.469h3.688v-54.469z" class="BG"/><path d="M170.551 166.488h-3.688v54.469h3.688v-54.469z" class="BH"/><path d="M174.23 166.488h-3.688v54.469h3.688v-54.469z" class="BI"/><path d="M177.918 166.488h-3.688v54.469h3.688v-54.469z" class="BJ"/><path d="M181.605 166.488h-3.688v54.469h3.688v-54.469z" class="BK"/><path d="M185.284 166.488h-3.688v54.469h3.688v-54.469z" class="BL"/><path d="M188.972 166.488h-3.688v54.469h3.688v-54.469z" class="BM"/><path d="M192.651 166.488h-3.688v54.469h3.688v-54.469z" class="BN"/><path d="M196.338 166.488h-3.687v54.469h3.687v-54.469z" class="BO"/><path d="M200.026 166.488h-3.687v54.469h3.687v-54.469z" class="I"/><path d="M202.679 166.488h-2.662v54.469h2.662v-54.469z" class="I"/></g><path d="M197.737 122.994v-10.196h-7.82l-43.6-25.135a28.68 28.68 0 0 0-28.595 0l-43.691 25.135-7.121 1.053-1.362 11.655a13.59 13.59 0 0 0 1.804 6.758c1.181 2.058 2.879 3.771 4.927 4.971l42.102 24.246a34.31 34.31 0 0 0 17.113 4.572c6.007 0 11.908-1.577 17.113-4.572l42.564-24.491a13.41 13.41 0 0 0 4.954-4.955 13.39 13.39 0 0 0 1.777-6.774c.006-.752-.046-1.504-.155-2.249l-.009-.018z" class="AH"/><mask id="D" maskUnits="userSpaceOnUse" x="60" y="129" width="143" height="90"><path d="M202.524 160.701h-8.365l-46.843-26.958c-4.672-2.692-9.971-4.109-15.365-4.109s-10.692 1.417-15.364 4.109l-46.843 26.958h-8.811l-.191 13.606c.003 2.539.677 5.032 1.952 7.228a14.45 14.45 0 0 0 5.314 5.28l48.142 27.739a30.79 30.79 0 0 0 30.738 0l48.668-28.12c2.163-1.239 3.954-3.034 5.186-5.199a13.92 13.92 0 0 0 1.818-7.11" class="B"/></mask><g mask="url(#D)"><path d="M202.524 128.264h-1.081v91.723h1.081v-91.723z" class="K"/><use xlink:href="#Z" class="L"/><use xlink:href="#a" class="M"/><path d="M196.275 128.264h-2.58v91.723h2.58v-91.723z" class="N"/><path d="M193.695 128.264h-2.579v91.723h2.579v-91.723z" class="O"/><path d="M191.107 128.264h-2.58v91.723h2.58v-91.723z" class="P"/><path d="M188.527 128.264h-2.58v91.723h2.58v-91.723z" class="Q"/><path d="M185.947 128.264h-2.579v91.723h2.579v-91.723z" class="R"/><path d="M183.368 128.264h-2.58v91.723h2.58v-91.723z" class="S"/><path d="M180.779 128.264h-2.58v91.723h2.58v-91.723z" class="T"/><path d="M178.199 128.264h-2.579v91.723h2.579v-91.723z" class="U"/><path d="M175.619 128.264h-2.579v91.723h2.579v-91.723z" class="V"/><path d="M173.031 128.264h-2.58v91.723h2.58v-91.723z" class="W"/><path d="M170.451 128.264h-2.58v91.723h2.58v-91.723z" class="X"/><path d="M167.871 128.264h-2.579v91.723h2.579v-91.723z" class="Y"/><path d="M165.292 128.264h-2.58v91.723h2.58v-91.723z" class="Z"/><path d="M162.703 128.264h-2.58v91.723h2.58v-91.723z" class="a"/><path d="M160.123 128.264h-2.579v91.723h2.579v-91.723z" class="b"/><path d="M157.544 128.264h-2.58v91.723h2.58v-91.723z" class="c"/><path d="M154.955 128.264h-2.58v91.723h2.58v-91.723z" class="d"/><path d="M152.375 128.264h-2.579v91.723h2.579v-91.723z" class="e"/><path d="M149.796 128.264h-2.58v91.723h2.58v-91.723z" class="D"/><use xlink:href="#b" class="D"/><path d="M146.453 128.264h-.754v91.723h.754v-91.723z" class="f"/><path d="M145.699 128.264h-.754v91.723h.754v-91.723z" class="g"/><path d="M144.936 128.264h-.754v91.723h.754v-91.723z" class="h"/><path d="M144.182 128.264h-.754v91.723h.754v-91.723z" class="i"/><path d="M143.428 128.264h-.754v91.723h.754v-91.723z" class="j"/><path d="M142.665 128.264h-.754v91.723h.754v-91.723z" class="k"/><path d="M141.911 128.264h-.754v91.723h.754v-91.723z" class="l"/><path d="M141.157 128.264h-.754v91.723h.754v-91.723z" class="m"/><path d="M140.394 128.264h-.754v91.723h.754v-91.723z" class="n"/><path d="M139.64 128.264h-.754v91.723h.754v-91.723z" class="o"/><path d="M138.886 128.264h-.753v91.723h.753v-91.723z" class="p"/><path d="M138.124 128.264h-.754v91.723h.754v-91.723z" class="q"/><path d="M137.37 128.264h-.754v91.723h.754v-91.723z" class="E"/><use xlink:href="#c" class="E"/><use xlink:href="#d" class="r"/><path d="M127.614 128.264h-4.496v91.723h4.496v-91.723z" class="s"/><path d="M123.118 128.264h-4.496v91.723h4.496v-91.723z" class="t"/><path d="M118.622 128.264h-4.497v91.723h4.497v-91.723z" class="u"/><path d="M114.125 128.264h-4.496v91.723h4.496v-91.723z" class="v"/><path d="M109.629 128.264h-4.496v91.723h4.496v-91.723z" class="w"/><path d="M105.133 128.264h-4.496v91.723h4.496v-91.723z" class="x"/><path d="M100.637 128.264H96.14v91.723h4.497v-91.723z" class="y"/><path d="M96.14 128.264h-4.496v91.723h4.496v-91.723z" class="z"/><path d="M91.635 128.264h-4.496v91.723h4.496v-91.723z" class="AA"/><path d="M87.139 128.264h-4.496v91.723h4.496v-91.723z" class="AB"/><path d="M82.643 128.264h-4.496v91.723h4.496v-91.723z" class="AC"/><path d="M78.146 128.264H73.65v91.723h4.496v-91.723z" class="AD"/><path d="M73.65 128.264h-4.496v91.723h4.496v-91.723z" class="AE"/><path d="M69.154 128.264h-4.496v91.723h4.496v-91.723z" class="AF"/><path d="M64.658 128.264h-3.897v91.723h3.897v-91.723z" class="AG"/></g><mask id="E" maskUnits="userSpaceOnUse" x="60" y="88" width="143" height="116"><path d="M60.988 123.448v45.017c0 4.082 2.725 7.892 7.267 9.915l48.142 21.942a38.07 38.07 0 0 0 30.729 0l48.669-22.178c4.541-2.059 7.003-5.669 7.003-9.751v-44.945l-6.141-7.039-2.225-3.257-46.834-21.289c-4.841-2.135-10.076-3.238-15.369-3.238a38.09 38.09 0 0 0-15.369 3.238l-46.842 21.326" class="B"/></mask><g mask="url(#E)"><path d="M202.751 87.546h-1.38V204.64h1.38V87.546z" class="K"/><path d="M201.371 87.546H198.8V204.64h2.571V87.546z" class="L"/><use xlink:href="#e" class="M"/><use xlink:href="#f" class="N"/><path d="M193.65 87.546h-2.571V204.64h2.571V87.546z" class="O"/><path d="M191.079 87.546h-2.57V204.64h2.57V87.546z" class="P"/><path d="M188.5 87.546h-2.571V204.64h2.571V87.546z" class="Q"/><path d="M185.929 87.546h-2.571V204.64h2.571V87.546z" class="R"/><path d="M183.358 87.546h-2.57V204.64h2.57V87.546z" class="S"/><path d="M180.779 87.546h-2.571V204.64h2.571V87.546z" class="T"/><path d="M178.208 87.546h-2.57V204.64h2.57V87.546z" class="U"/><path d="M175.638 87.546h-2.571V204.64h2.571V87.546z" class="V"/><path d="M173.067 87.546h-2.571V204.64h2.571V87.546z" class="W"/><path d="M170.487 87.546h-2.57V204.64h2.57V87.546z" class="X"/><path d="M167.917 87.546h-2.571V204.64h2.571V87.546z" class="Y"/><path d="M165.346 87.546h-2.57V204.64h2.57V87.546z" class="Z"/><path d="M162.767 87.546h-2.571V204.64h2.571V87.546z" class="a"/><path d="M160.196 87.546h-2.571V204.64h2.571V87.546z" class="b"/><path d="M157.625 87.546h-2.57V204.64h2.57V87.546z" class="c"/><path d="M155.046 87.546h-2.571V204.64h2.571V87.546z" class="d"/><path d="M152.475 87.546h-2.57V204.64h2.57V87.546z" class="e"/><path d="M149.905 87.546h-2.571V204.64h2.571V87.546z" class="D"/><use xlink:href="#g" class="D"/><path d="M146.58 87.546h-.754V204.64h.754V87.546z" class="f"/><path d="M145.817 87.546h-.754V204.64h.754V87.546z" class="g"/><path d="M145.063 87.546h-.754V204.64h.754V87.546z" class="h"/><path d="M144.309 87.546h-.754V204.64h.754V87.546z" class="i"/><path d="M143.555 87.546h-.754V204.64h.754V87.546z" class="j"/><path d="M142.801 87.546h-.754V204.64h.754V87.546z" class="k"/><path d="M142.047 87.546h-.753V204.64h.753V87.546z" class="l"/><path d="M141.294 87.546h-.754V204.64h.754V87.546z" class="m"/><path d="M140.54 87.546h-.754V204.64h.754V87.546z" class="n"/><path d="M139.786 87.546h-.754V204.64h.754V87.546z" class="o"/><path d="M139.032 87.546h-.754V204.64h.754V87.546z" class="p"/><path d="M138.278 87.546h-.754V204.64h.754V87.546z" class="q"/><path d="M137.524 87.546h-.754V204.64h.754V87.546z" class="E"/><use xlink:href="#h" class="E"/><path d="M132.283 87.546h-4.478V204.64h4.478V87.546z" class="r"/><path d="M127.796 87.546h-4.478V204.64h4.478V87.546z" class="s"/><path d="M123.318 87.546h-4.478V204.64h4.478V87.546z" class="t"/><path d="M118.831 87.546h-4.479V204.64h4.479V87.546z" class="u"/><path d="M114.352 87.546h-4.478V204.64h4.478V87.546z" class="v"/><path d="M109.874 87.546h-4.478V204.64h4.478V87.546z" class="w"/><path d="M105.387 87.546h-4.478V204.64h4.478V87.546z" class="x"/><path d="M100.909 87.546h-4.478V204.64h4.478V87.546z" class="y"/><path d="M96.422 87.546h-4.478V204.64h4.478V87.546z" class="z"/><path d="M91.944 87.546h-4.478V204.64h4.478V87.546z" class="AA"/><path d="M87.457 87.546h-4.478V204.64h4.478V87.546z" class="AB"/><path d="M82.979 87.546h-4.478V204.64h4.478V87.546z" class="AC"/><path d="M78.5 87.546h-4.478V204.64H78.5V87.546z" class="AD"/><path d="M74.013 87.546h-4.478V204.64h4.478V87.546z" class="AE"/><path d="M69.535 87.546h-4.478V204.64h4.478V87.546z" class="AF"/><path d="M65.048 87.546h-4.06V204.64h4.06V87.546z" class="AG"/></g><mask id="F" maskUnits="userSpaceOnUse" x="61" y="79" width="142" height="90"><path d="M195.748 111.247c2.19 1.28 4.006 3.109 5.268 5.307s1.926 4.686 1.926 7.22a14.5 14.5 0 0 1-1.926 7.22c-1.262 2.198-3.078 4.027-5.268 5.306l-48.587 28.12a30.78 30.78 0 0 1-15.364 4.108c-5.394 0-10.693-1.417-15.365-4.108l-48.141-27.739c-2.192-1.278-4.01-3.108-5.274-5.307s-1.928-4.689-1.928-7.224.665-5.025 1.928-7.224a14.53 14.53 0 0 1 5.274-5.307l48.659-28.046a30.79 30.79 0 0 1 30.738 0l48.06 27.674z" class="B"/></mask><g mask="url(#F)"><path d="M174.729 78.066L59.008 131.348V78.066h115.721z" class="H"/><path d="M184.821 78.066L59.008 136.001v-4.653l115.721-53.282h10.092z" class="H"/><path d="M194.912 78.066L59.008 140.645v-4.644l125.813-57.935h10.091z" class="AI"/><path d="M205.004 78.066L59.008 145.289v-4.644l135.904-62.579h10.092z" class="AJ"/><path d="M205.049 82.693L59.008 149.943v-4.654l145.996-67.223h.045v4.626z" class="AK"/><path d="M205.049 87.337l-146.041 67.25v-4.644l146.041-67.251v4.644z" class="AL"/><path d="M205.049 91.99L59.008 159.231v-4.644l146.041-67.25v4.653z" class="AM"/><path d="M205.049 96.634L59.008 163.875v-4.644L205.049 91.99v4.644z" class="AN"/><path d="M205.049 101.278L59.008 168.529v-4.654l146.041-67.241v4.644z" class="AO"/><path d="M205.049 105.932L66.183 169.871h-7.176v-1.342l146.041-67.251v4.654z" class="AP"/><path d="M205.049 110.576L76.275 169.871H66.183l138.866-63.939v4.644z" class="AQ"/><path d="M205.049 115.22L86.367 169.871H76.275l128.774-59.295v4.644z" class="AR"/><path d="M205.049 119.873L96.458 169.871H86.367l118.682-54.651v4.653z" class="AS"/><path d="M205.049 124.517l-98.499 45.354H96.458l108.591-49.998v4.644z" class="AT"/><path d="M205.049 129.162l-88.408 40.709H106.55l98.499-45.353v4.644z" class="AU"/><path d="M205.049 133.815l-78.316 36.056h-10.092l88.408-40.709v4.653z" class="AV"/><path d="M205.049 138.459l-68.215 31.412h-10.101l78.316-36.056v4.644z" class="AW"/><path d="M205.049 143.103l-58.124 26.768h-10.091l68.215-31.412v4.644z" class="AX"/><path d="M205.049 147.748l-48.032 22.123h-10.092l58.124-26.767v4.644z" class="AY"/><path d="M205.049 152.401l-37.941 17.47h-10.091l48.032-22.123v4.653z" class="AZ"/><path d="M205.049 157.045L177.2 169.871h-10.092l37.941-17.47v4.644z" class="Aa"/><path d="M205.049 161.689l-17.757 8.182H177.2l27.849-12.826v4.644z" class="Ab"/><path d="M205.049 166.334l-7.666 3.537h-10.091l17.757-8.182v4.645z" class="Ac"/><path d="M197.383 169.871l7.666-3.538v3.538h-7.666z" class="Ad"/></g><mask id="G" maskUnits="userSpaceOnUse" x="60" y="114" width="143" height="55"><path d="M201.816 123.901a13.26 13.26 0 0 1-1.78 6.641c-1.167 2.019-2.847 3.696-4.869 4.861l-48.669 28.055a29.5 29.5 0 0 1-14.765 3.96c-5.184 0-10.277-1.366-14.765-3.96l-48.114-27.765c-2.023-1.168-3.706-2.844-4.88-4.861s-1.8-4.307-1.814-6.641c0-6.993 2.725-9.905 2.725-9.905-1.306 1.397-2.324 3.037-2.993 4.827s-.979 3.695-.91 5.605a14.5 14.5 0 0 0 1.313 5.524c.798 1.737 1.931 3.3 3.335 4.598.778.731 1.637 1.37 2.562 1.905l48.142 27.738c4.657 2.701 9.947 4.122 15.332 4.118a30.12 30.12 0 0 0 15.324-4.118l48.668-28.119a14.42 14.42 0 0 0 5.318-5.278c1.276-2.197 1.949-4.691 1.949-7.23-.023-3.521-1.29-6.92-3.579-9.597.1.054 2.471 2.585 2.471 9.642z" class="B"/></mask><g mask="url(#G)"><use xlink:href="#i" class="Ae"/><path d="M67.455 114.313h-3.706v54.424h3.706v-54.424z" class="Af"/><path d="M71.161 114.313h-3.706v54.424h3.706v-54.424z" class="Ag"/><path d="M74.858 114.313h-3.706v54.424h3.706v-54.424z" class="Ah"/><path d="M78.564 114.313h-3.706v54.424h3.706v-54.424z" class="Ai"/><path d="M82.261 114.313h-3.706v54.424h3.706v-54.424z" class="Aj"/><path d="M85.967 114.313h-3.706v54.424h3.706v-54.424z" class="Ak"/><path d="M89.664 114.313h-3.706v54.424h3.706v-54.424z" class="Al"/><path d="M93.37 114.313h-3.706v54.424h3.706v-54.424z" class="Am"/><path d="M97.067 114.313h-3.706v54.424h3.706v-54.424z" class="An"/><path d="M100.773 114.313h-3.706v54.424h3.706v-54.424z" class="Ao"/><path d="M104.479 114.313h-3.706v54.424h3.706v-54.424z" class="Ap"/><path d="M108.176 114.313h-3.706v54.424h3.706v-54.424z" class="Aq"/><path d="M111.882 114.313h-3.706v54.424h3.706v-54.424z" class="Ar"/><path d="M115.579 114.313h-3.706v54.424h3.706v-54.424z" class="As"/><path d="M119.285 114.313h-3.706v54.424h3.706v-54.424z" class="At"/><path d="M122.982 114.313h-3.706v54.424h3.706v-54.424z" class="Au"/><path d="M126.688 114.313h-3.706v54.424h3.706v-54.424z" class="Av"/><path d="M130.384 114.313h-3.706v54.424h3.706v-54.424z" class="Aw"/><path d="M134.091 114.313h-3.706v54.424h3.706v-54.424z" class="Ax"/><path d="M137.787 114.313h-3.706v54.424h3.706v-54.424z" class="Ay"/><path d="M141.493 114.313h-3.706v54.424h3.706v-54.424z" class="Az"/><path d="M145.19 114.313h-3.706v54.424h3.706v-54.424z" class="BA"/><path d="M148.896 114.313h-3.706v54.424h3.706v-54.424z" class="BB"/><path d="M152.593 114.313h-3.706v54.424h3.706v-54.424z" class="BC"/><path d="M156.299 114.313h-3.706v54.424h3.706v-54.424z" class="BD"/><path d="M159.996 114.313h-3.706v54.424h3.706v-54.424z" class="BE"/><path d="M163.702 114.313h-3.706v54.424h3.706v-54.424z" class="BF"/><path d="M167.408 114.313h-3.706v54.424h3.706v-54.424z" class="BG"/><path d="M171.105 114.313h-3.706v54.424h3.706v-54.424z" class="BH"/><path d="M174.811 114.313h-3.706v54.424h3.706v-54.424z" class="BI"/><path d="M178.508 114.313h-3.706v54.424h3.706v-54.424z" class="BJ"/><path d="M182.214 114.313h-3.706v54.424h3.706v-54.424z" class="BK"/><path d="M185.911 114.313h-3.706v54.424h3.706v-54.424z" class="BL"/><path d="M189.617 114.313h-3.706v54.424h3.706v-54.424z" class="BM"/><path d="M193.314 114.313h-3.706v54.424h3.706v-54.424z" class="BN"/><path d="M197.02 114.313h-3.706v54.424h3.706v-54.424z" class="BO"/><path d="M200.717 114.313h-3.706v54.424h3.706v-54.424z" class="I"/><path d="M202.833 114.313h-2.116v54.424h2.116v-54.424z" class="I"/></g><path d="M167.527 180.632c.114-2.291-1.081-4.213-2.669-4.292s-2.968 1.716-3.082 4.007 1.081 4.213 2.669 4.292 2.969-1.715 3.082-4.007z" class="J"/><g class="F"><path d="M176.516 176.225c.114-2.292-1.081-4.214-2.669-4.292s-2.969 1.715-3.082 4.007 1.081 4.213 2.669 4.291 2.969-1.715 3.082-4.006zm9.067-4.846c.113-2.291-1.082-4.213-2.67-4.291s-2.968 1.715-3.082 4.006 1.081 4.213 2.67 4.292 2.968-1.715 3.082-4.007z"/><g class="C"><path d="M85.849 189.21l11.418 6.567v-2.131l-11.4-6.567-.018 2.131zm23.889 13.797l11.4 6.567v-2.141l-11.4-6.567v2.141z"/></g></g><path d="M100.482 197.646l6.068 3.492v-2.131l-6.068-3.502v2.141z" class="C J"/><g class="F C"><path d="M71.416 175.269l25.833 14.513v-2.141l-25.833-14.513v2.141zm38.322 21.715l11.4 6.567v-2.141l-11.4-6.558v2.132zm-23.889 26.577l11.418 6.558v-2.131l-11.4-6.568-.018 2.141zm23.889 13.787l11.4 6.568v-2.096l-11.4-6.558v2.086zm-38.322-27.892l38.323 21.561v-2.141l-38.323-21.524v2.104z"/></g><path d="M100.482 191.623l6.068 3.501v-2.141l-6.068-3.492v2.132z" class="C J"/><mask id="H" maskUnits="userSpaceOnUse" x="60" y="217" width="143" height="45"><path d="M195.203 229.121l-48.042 27.212a31.15 31.15 0 0 1-30.62 0L67.955 228.84c-2.041-1.166-3.754-2.827-4.981-4.829a13.95 13.95 0 0 1-2.04-6.627v.816a13.92 13.92 0 0 0 1.88 7.109c1.253 2.159 3.063 3.942 5.242 5.164l48.586 27.502a31.15 31.15 0 0 0 30.62 0l48.006-27.212c2.188-1.223 4.013-3.003 5.289-5.158a14.17 14.17 0 0 0 1.977-7.115c.023-.271.023-.544 0-.816a14.35 14.35 0 0 1-2.193 6.639c-1.268 1.999-3.011 3.653-5.073 4.817l-.064-.009z" class="B"/></mask><g mask="url(#H)" class="G"><path d="M202.524 217.384H60.915v45.961h141.609v-45.961z"/></g><mask id="I" maskUnits="userSpaceOnUse" x="60" y="210" width="143" height="45"><path d="M195.203 221.928l-48.005 27.212c-4.669 2.636-9.942 4.021-15.306 4.021s-10.636-1.385-15.305-4.021l-48.596-27.502c-2.046-1.162-3.765-2.819-4.998-4.82a13.96 13.96 0 0 1-2.059-6.628v.817c-.015 2.484.634 4.927 1.88 7.078s3.042 3.931 5.205 5.158l48.587 27.512c4.671 2.635 9.945 4.021 15.31 4.021s10.639-1.386 15.31-4.021l48.005-27.212a14.2 14.2 0 0 0 5.29-5.159c1.276-2.156 1.958-4.61 1.977-7.114.023-.272.023-.545 0-.817-.193 2.361-.954 4.639-2.22 6.642s-2.996 3.67-5.047 4.86l-.027-.027z" class="B"/></mask><g mask="url(#I)" class="G"><path d="M60.951 210.19h-.036v45.916h.036V210.19z"/><path d="M201.716 210.19H60.952v45.916h140.765V210.19z"/><path d="M202.524 210.19h-.808v45.916h.808V210.19z"/></g><g class="C F"><path d="M191.243 217.656l-11.4 6.558v-2.132l11.4-6.567v2.141zm-23.889 13.787l-11.4 6.567v-2.14l11.4-6.558v2.131zm9.256-5.36l-6.068 3.501v-2.141l6.068-3.501v2.141z"/></g><path d="M167.354 225.42l-11.4 6.567v-2.14l11.4-6.558v2.131z" class="C J"/><path d="M186.647 214.463l-16.105 9.071v-2.141l16.105-9.071v2.132.009z" class="C F"/><path d="M265.763 355.358a38.9 38.9 0 0 1-19.53-5.207l-56.798-32.745a19.96 19.96 0 0 1-9.234-12.084 19.93 19.93 0 0 1 1.968-15.073c1.747-2.983 4.234-5.467 7.221-7.212l57.425-33.144c5.941-3.412 12.675-5.207 19.529-5.207s13.588 1.795 19.529 5.207l56.725 32.654c3.013 1.748 5.514 4.255 7.252 7.271s2.653 6.434 2.653 9.914-.915 6.898-2.653 9.914-4.239 5.523-7.252 7.27l-57.306 33.235c-5.94 3.417-12.675 5.213-19.529 5.207zm.635-107.941c-6.375-.008-12.64 1.659-18.166 4.834l-57.407 33.108a17.16 17.16 0 0 0-6.264 6.273 17.13 17.13 0 0 0 0 17.116 17.16 17.16 0 0 0 6.264 6.273l56.798 32.745c5.523 3.184 11.789 4.861 18.167 4.861s12.643-1.677 18.166-4.861l57.334-33.217a17.15 17.15 0 0 0 6.265-6.27c1.502-2.602 2.292-5.553 2.292-8.556a17.11 17.11 0 0 0-2.292-8.556 17.14 17.14 0 0 0-6.265-6.27l-56.716-32.655a36.37 36.37 0 0 0-18.176-4.825z" fill="#ec7333"/><path d="M331.989 273.695v-10.223h-7.775l-43.655-25.135c-4.348-2.501-9.279-3.817-14.297-3.817a28.68 28.68 0 0 0-14.297 3.817l-43.691 25.135h-8.475v12.699a13.5 13.5 0 0 0 1.808 6.771 13.53 13.53 0 0 0 4.959 4.958l42.093 24.282c5.204 3 11.108 4.579 17.117 4.579a34.28 34.28 0 0 0 17.118-4.579l42.564-24.491a13.46 13.46 0 0 0 4.95-4.963c1.183-2.061 1.797-4.399 1.781-6.775a22.6 22.6 0 0 0-.2-2.249v-.009z" class="AH"/><mask id="J" maskUnits="userSpaceOnUse" x="195" y="196" width="142" height="146"><path d="M328.41 227.226l-46.842-26.958c-4.672-2.692-9.971-4.109-15.365-4.109s-10.692 1.417-15.364 4.109l-46.843 26.958h-8.984v69.926c.003 2.539.676 5.032 1.952 7.229a14.44 14.44 0 0 0 5.315 5.279l48.142 27.738c4.672 2.692 9.971 4.109 15.364 4.109s10.693-1.417 15.365-4.109l48.668-28.119a13.91 13.91 0 0 0 5.188-5.198 13.88 13.88 0 0 0 1.815-7.111v-69.744h-8.411z" class="B"/></mask><g mask="url(#J)"><path d="M336.776 194.789h-1.362v148.088h1.362V194.789z" class="K"/><use xlink:href="#j" class="L"/><path d="M332.834 194.789h-2.571v148.088h2.571V194.789z" class="M"/><use xlink:href="#k" class="N"/><path d="M327.693 194.789h-2.571v148.088h2.571V194.789z" class="O"/><path d="M325.113 194.789h-2.571v148.088h2.571V194.789z" class="P"/><path d="M322.543 194.789h-2.571v148.088h2.571V194.789z" class="Q"/><path d="M319.972 194.789h-2.571v148.088h2.571V194.789z" class="R"/><path d="M317.401 194.789h-2.57v148.088h2.57V194.789z" class="S"/><path d="M314.822 194.789h-2.571v148.088h2.571V194.789z" class="T"/><path d="M312.251 194.789h-2.571v148.088h2.571V194.789z" class="U"/><path d="M309.68 194.789h-2.57v148.088h2.57V194.789z" class="V"/><path d="M307.101 194.789h-2.571v148.088h2.571V194.789z" class="W"/><path d="M304.53 194.789h-2.57v148.088h2.57V194.789z" class="X"/><path d="M301.96 194.789h-2.571v148.088h2.571V194.789z" class="Y"/><path d="M299.38 194.789h-2.571v148.088h2.571V194.789z" class="Z"/><path d="M296.809 194.789h-2.57v148.088h2.57V194.789z" class="a"/><path d="M294.239 194.789h-2.571v148.088h2.571V194.789z" class="b"/><path d="M291.659 194.789h-2.57v148.088h2.57V194.789z" class="c"/><path d="M289.089 194.789h-2.571v148.088h2.571V194.789z" class="d"/><path d="M286.518 194.789h-2.571v148.088h2.571V194.789z" class="e"/><path d="M283.938 194.789h-2.57v148.088h2.57V194.789z" class="D"/><use xlink:href="#l" class="D"/><path d="M280.614 194.789h-.754v148.088h.754V194.789z" class="f"/><path d="M279.86 194.789h-.754v148.088h.754V194.789z" class="g"/><path d="M279.106 194.789h-.754v148.088h.754V194.789z" class="h"/><path d="M278.352 194.789h-.754v148.088h.754V194.789z" class="i"/><path d="M277.598 194.789h-.754v148.088h.754V194.789z" class="j"/><path d="M276.844 194.789h-.754v148.088h.754V194.789z" class="k"/><path d="M276.09 194.789h-.754v148.088h.754V194.789z" class="l"/><path d="M275.336 194.789h-.754v148.088h.754V194.789z" class="m"/><path d="M274.582 194.789h-.754v148.088h.754V194.789z" class="n"/><path d="M273.829 194.789h-.754v148.088h.754V194.789z" class="o"/><path d="M273.066 194.789h-.754v148.088h.754V194.789z" class="p"/><path d="M272.312 194.789h-.754v148.088h.754V194.789z" class="q"/><path d="M271.558 194.789h-.754v148.088h.754V194.789z" class="E"/><use xlink:href="#m" class="E"/><path d="M266.317 194.789h-4.478v148.088h4.478V194.789z" class="r"/><path d="M261.839 194.789h-4.479v148.088h4.479V194.789z" class="s"/><path d="M257.36 194.789h-4.478v148.088h4.478V194.789z" class="t"/><path d="M252.873 194.789h-4.478v148.088h4.478V194.789z" class="u"/><path d="M248.395 194.789h-4.478v148.088h4.478V194.789z" class="v"/><path d="M243.908 194.789h-4.478v148.088h4.478V194.789z" class="w"/><path d="M239.43 194.789h-4.478v148.088h4.478V194.789z" class="x"/><path d="M234.943 194.789h-4.478v148.088h4.478V194.789z" class="y"/><path d="M230.465 194.789h-4.478v148.088h4.478V194.789z" class="z"/><path d="M225.987 194.789h-4.478v148.088h4.478V194.789z" class="AA"/><path d="M221.499 194.789h-4.478v148.088h4.478V194.789z" class="AB"/><path d="M217.021 194.789h-4.478v148.088h4.478V194.789z" class="AC"/><path d="M212.534 194.789h-4.478v148.088h4.478V194.789z" class="AD"/><path d="M208.056 194.789h-4.478v148.088h4.478V194.789z" class="AE"/><path d="M203.569 194.789h-4.478v148.088h4.478V194.789z" class="AF"/><path d="M199.091 194.789h-4.079v148.088h4.079V194.789z" class="AG"/></g><mask id="K" maskUnits="userSpaceOnUse" x="195" y="208" width="143" height="90"><path d="M330.009 240.668a14.52 14.52 0 0 1 5.273 5.307 14.5 14.5 0 0 1 1.929 7.225c0 2.534-.665 5.025-1.929 7.224a14.52 14.52 0 0 1-5.273 5.307l-48.596 28.046c-4.672 2.692-9.971 4.109-15.364 4.109s-10.693-1.417-15.365-4.109l-48.141-27.738a14.52 14.52 0 0 1-5.268-5.306 14.49 14.49 0 0 1 0-14.441 14.52 14.52 0 0 1 5.268-5.306l48.668-28.119c4.672-2.692 9.971-4.109 15.364-4.109s10.693 1.417 15.365 4.109l48.069 27.801z" class="B"/></mask><g mask="url(#K)"><path d="M309.526 207.415L193.259 260.95V207.415H309.526Z" class="H"/><path d="M319.618 207.415l-126.359 58.18v-4.645l116.267-53.535h10.092z" class="H"/><path d="M329.709 207.415l-136.45 62.824v-4.644l126.359-58.18h10.091z" class="AI"/><path d="M339.301 207.651l-146.042 67.241v-4.653l136.45-62.824h9.592v.236z" class="AJ"/><path d="M339.301 212.295l-146.042 67.241v-4.644l146.042-67.241v4.644z" class="AK"/><path d="M339.301 216.939L193.259 284.18v-4.644l146.042-67.241v4.644z" class="AL"/><path d="M339.301 221.584l-146.042 67.25v-4.653l146.042-67.242v4.645z" class="AM"/><path d="M339.301 226.237l-146.042 67.241v-4.644l146.042-67.251v4.654z" class="AN"/><path d="M339.301 230.881l-146.042 67.241v-4.644l146.042-67.241v4.644z" class="AO"/><path d="M339.301 235.525l-138.403 63.731h-7.639v-1.134l146.042-67.241v4.644z" class="AP"/><path d="M339.301 240.179L210.99 299.256h-10.092l138.403-63.731v4.654z" class="AQ"/><path d="M339.301 244.822l-118.219 54.434H210.99l128.311-59.078v4.644z" class="AR"/><path d="M339.301 249.467l-108.128 49.789h-10.091l118.219-54.433v4.644z" class="AS"/><path d="M339.301 254.12l-98.036 45.136h-10.092l108.128-49.789v4.653z" class="AT"/><path d="M339.301 258.764l-87.945 40.492h-10.091l98.036-45.136v4.644z" class="AU"/><path d="M339.301 263.408l-77.853 35.848h-10.092l87.945-40.492v4.644z" class="AV"/><path d="M339.301 268.062l-67.752 31.194h-10.101l77.853-35.847v4.653z" class="AW"/><path d="M339.301 272.706l-57.661 26.55h-10.091l67.752-31.194v4.644z" class="AX"/><path d="M339.301 277.35l-47.569 21.906H281.64l57.661-26.55v4.644z" class="AY"/><path d="M339.301 281.994l-37.478 17.262h-10.091l47.569-21.906v4.644z" class="AZ"/><path d="M339.301 286.648l-27.386 12.608h-10.092l37.478-17.261v4.653z" class="Aa"/><path d="M339.301 291.292l-17.294 7.964h-10.092l27.386-12.609v4.645z" class="Ab"/><path d="M339.301 295.936l-7.203 3.32h-10.091l17.294-7.964v4.644z" class="Ac"/><path d="M332.098 299.256l7.203-3.32v3.32h-7.203z" class="Ad"/></g><g opacity=".1" class="B C"><path d="M258.777 262.002c-1.778-.396-3.493-1.037-5.095-1.905-.986-.607-1.879-1.352-2.653-2.213l-5.831 3.492c.908 1.007.618 2.259-.7 3.03 0 0-1.326.2-3.933-1.361s-2.289-2.331-2.289-2.331a6.67 6.67 0 0 1 5.051-.426l6.612-3.919c-.735-1.442-.853-2.875.355-3.927l4.205-3.148a2.39 2.39 0 0 1 1.354-.39c.506-.037 1.008.115 1.408.427a50.63 50.63 0 0 0 6.567 4.861c2.673 1.471 5.443 2.756 8.293 3.846.972.39 1.008 1.207.073 1.633l-5.405 2.404c-1.671.532-3.442.678-5.178.426l-7.266 4.318c.908 1.007.627 2.249-.7 3.029 0 0-1.317.191-3.924-1.36s-2.298-2.331-2.298-2.331c1.564-.806 3.383-.959 5.06-.427l6.304-3.728h-.01zm7.44-24.908a11.34 11.34 0 0 1 3.388-.499c.609-.006 1.217.046 1.816.154l11.863 2.404c1.357.278 2.658.778 3.852 1.479h.081c1.01.521 1.877 1.281 2.526 2.213l4.16 6.921a2.54 2.54 0 0 1-.582 3.03l-7.584 5.17c-.082 0-.155.109-.273.154a7.87 7.87 0 0 1-3.146.824 7.86 7.86 0 0 1-3.212-.516 114.9 114.9 0 0 1-12.49-5.905c-3.516-2.222-6.823-4.757-9.882-7.574-1.281-1.17-1.009-2.639.617-3.628h.082c.099-.059.203-.11.309-.154l8.484-4.082-.009.009zm6.73 5.56l-1.516.908c-1.09.653-1.445 1.514-.782 1.895.52.172 1.072.219 1.613.139a3.5 3.5 0 0 0 1.503-.601l1.517-.907c1.09-.663 1.435-1.515.781-1.905a1.82 1.82 0 0 0-.908-.191c-.787.005-1.556.235-2.217.662h.009zm8.175 5.008l-1.516.907c-1.09.662-1.445 1.514-.782 1.904a3.53 3.53 0 0 0 1.613.136c.541-.08 1.055-.285 1.503-.598l1.517-.907c1.09-.662 1.435-1.515.772-1.905a1.82 1.82 0 0 0-.908-.2 4.93 4.93 0 0 0-2.135.663h-.064z"/></g><mask id="L" maskUnits="userSpaceOnUse" x="194" y="243" width="143" height="56"><path d="M335.722 253.494c.002 2.33-.612 4.62-1.78 6.637s-2.846 3.693-4.869 4.856l-48.668 28.119c-4.488 2.593-9.58 3.959-14.765 3.959a29.51 29.51 0 0 1-14.765-3.959l-48.142-27.738a13.27 13.27 0 0 1-4.871-4.859c-1.168-2.02-1.781-4.311-1.778-6.643 0-6.994 2.68-9.905 2.68-9.905-2.624 2.818-4.02 6.562-3.881 10.408a14.51 14.51 0 0 0 4.626 10.101 14.75 14.75 0 0 0 2.561 1.904l48.142 27.739a30.44 30.44 0 0 0 15.332 4.118c5.387.036 10.683-1.387 15.324-4.118l48.669-28.12a14.44 14.44 0 0 0 5.315-5.279 14.41 14.41 0 0 0 1.951-7.229 14.9 14.9 0 0 0-3.579-9.597c.128.009 2.498 2.531 2.498 9.606z" class="B"/></mask><g mask="url(#L)"><use xlink:href="#n" class="Ae"/><path d="M201.489 243.897h-3.688v54.47h3.688v-54.47z" class="Af"/><path d="M205.168 243.897h-3.688v54.47h3.688v-54.47z" class="Ag"/><path d="M208.855 243.897h-3.688v54.47h3.688v-54.47z" class="Ah"/><path d="M212.543 243.897h-3.688v54.47h3.688v-54.47z" class="Ai"/><path d="M216.222 243.897h-3.688v54.47h3.688v-54.47z" class="Aj"/><path d="M219.91 243.897h-3.688v54.47h3.688v-54.47z" class="Ak"/><path d="M223.589 243.897h-3.688v54.47h3.688v-54.47z" class="Al"/><use xlink:href="#o" class="Am"/><path d="M230.964 243.897h-3.688v54.47h3.688v-54.47z" class="An"/><path d="M234.643 243.897h-3.688v54.47h3.688v-54.47z" class="Ao"/><path d="M238.331 243.897h-3.688v54.47h3.688v-54.47z" class="Ap"/><path d="M242.009 243.897h-3.687v54.47h3.687v-54.47z" class="Aq"/><path d="M245.697 243.897h-3.687v54.47h3.687v-54.47z" class="Ar"/><path d="M249.385 243.897h-3.688v54.47h3.688v-54.47z" class="As"/><path d="M253.064 243.897h-3.688v54.47h3.688v-54.47z" class="At"/><path d="M256.752 243.897h-3.688v54.47h3.688v-54.47z" class="Au"/><path d="M260.431 243.897h-3.688v54.47h3.688v-54.47z" class="Av"/><path d="M264.118 243.897h-3.687v54.47h3.687v-54.47z" class="Aw"/><path d="M267.806 243.897h-3.688v54.47h3.688v-54.47z" class="Ax"/><path d="M271.485 243.897h-3.688v54.47h3.688v-54.47z" class="Ay"/><path d="M275.173 243.897h-3.688v54.47h3.688v-54.47z" class="Az"/><path d="M278.861 243.897h-3.688v54.47h3.688v-54.47z" class="BA"/><path d="M282.539 243.897h-3.687v54.47h3.687v-54.47z" class="BB"/><path d="M286.227 243.897h-3.688v54.47h3.688v-54.47z" class="BC"/><path d="M289.906 243.897h-3.688v54.47h3.688v-54.47z" class="BD"/><path d="M293.594 243.897h-3.688v54.47h3.688v-54.47z" class="BE"/><path d="M297.282 243.897h-3.688v54.47h3.688v-54.47z" class="BF"/><path d="M300.96 243.897h-3.687v54.47h3.687v-54.47z" class="BG"/><path d="M304.648 243.897h-3.688v54.47h3.688v-54.47z" class="BH"/><path d="M308.327 243.897h-3.688v54.47h3.688v-54.47z" class="BI"/><path d="M312.015 243.897h-3.688v54.47h3.688v-54.47z" class="BJ"/><path d="M315.703 243.897h-3.688v54.47h3.688v-54.47z" class="BK"/><path d="M319.381 243.897h-3.688v54.47h3.688v-54.47z" class="BL"/><path d="M323.069 243.897h-3.688v54.47h3.688v-54.47z" class="BM"/><path d="M326.757 243.897h-3.688v54.47h3.688v-54.47z" class="BN"/><path d="M330.436 243.897h-3.688v54.47h3.688v-54.47z" class="BO"/><path d="M334.124 243.897h-3.688v54.47h3.688v-54.47z" class="I"/><path d="M336.776 243.897h-2.661v54.47h2.661v-54.47z" class="I"/></g><path d="M331.835 200.422v-10.214h-7.785l-43.645-25.135a28.68 28.68 0 0 0-14.297-3.817c-5.019 0-9.949 1.316-14.297 3.817l-43.728 25.135-7.112 1.043-1.362 11.656c.009 2.37.639 4.696 1.826 6.749s2.89 3.759 4.941 4.952l42.092 24.237a34.28 34.28 0 0 0 34.235 0l42.555-24.491c2.062-1.184 3.772-2.894 4.954-4.955a13.39 13.39 0 0 0 1.777-6.773c.006-.756-.045-1.511-.154-2.259v.055z" class="AH"/><mask id="M" maskUnits="userSpaceOnUse" x="194" y="207" width="143" height="90"><path d="M336.622 238.11h-8.366l-46.843-26.967c-4.672-2.691-9.971-4.108-15.364-4.108s-10.693 1.417-15.365 4.108l-46.843 26.967h-8.792l-.191 13.552a14.43 14.43 0 0 0 1.95 7.233c1.276 2.198 3.11 4.021 5.317 5.284l48.141 27.73c4.674 2.692 9.974 4.109 15.369 4.109a30.79 30.79 0 0 0 15.369-4.109l48.669-28.12c2.165-1.238 3.958-3.034 5.19-5.201a13.89 13.89 0 0 0 1.813-7.117" class="B"/></mask><g mask="url(#M)"><path d="M336.622 205.665h-1.081v91.723h1.081v-91.723z" class="K"/><path d="M335.541 205.665h-2.58v91.723h2.58v-91.723z" class="L"/><path d="M332.952 205.665h-2.58v91.723h2.58v-91.723z" class="M"/><path d="M330.372 205.665h-2.579v91.723h2.579v-91.723z" class="N"/><path d="M327.793 205.665h-2.58v91.723h2.58v-91.723z" class="O"/><path d="M325.213 205.665h-2.58v91.723h2.58v-91.723z" class="P"/><path d="M322.624 205.665h-2.579v91.723h2.579v-91.723z" class="Q"/><path d="M320.045 205.665h-2.58v91.723h2.58v-91.723z" class="R"/><path d="M317.465 205.665h-2.58v91.723h2.58v-91.723z" class="S"/><path d="M314.876 205.665h-2.579v91.723h2.579v-91.723z" class="T"/><path d="M312.296 205.665h-2.579v91.723h2.579v-91.723z" class="U"/><path d="M309.717 205.665h-2.58v91.723h2.58v-91.723z" class="V"/><path d="M307.137 205.665h-2.58v91.723h2.58v-91.723z" class="W"/><path d="M304.548 205.665h-2.579v91.723h2.579v-91.723z" class="X"/><path d="M301.969 205.665h-2.58v91.723h2.58v-91.723z" class="Y"/><path d="M299.389 205.665h-2.58v91.723h2.58v-91.723z" class="Z"/><path d="M296.8 205.665h-2.579v91.723h2.579v-91.723z" class="a"/><path d="M294.221 205.665h-2.58v91.723h2.58v-91.723z" class="b"/><path d="M291.641 205.665h-2.58v91.723h2.58v-91.723z" class="c"/><path d="M289.061 205.665h-2.579v91.723h2.579v-91.723z" class="d"/><path d="M286.472 205.665h-2.579v91.723h2.579v-91.723z" class="e"/><path d="M283.893 205.665h-2.58v91.723h2.58v-91.723z" class="D"/><path d="M281.313 205.665h-.754v91.723h.754v-91.723z" class="D"/><path d="M280.55 205.665h-.754v91.723h.754v-91.723z" class="f"/><path d="M279.796 205.665h-.754v91.723h.754v-91.723z" class="g"/><path d="M279.042 205.665h-.754v91.723h.754v-91.723z" class="h"/><path d="M278.279 205.665h-.753v91.723h.753v-91.723z" class="i"/><path d="M277.525 205.665h-.754v91.723h.754v-91.723z" class="j"/><path d="M276.771 205.665h-.753v91.723h.753v-91.723z" class="k"/><path d="M276.009 205.665h-.754v91.723h.754v-91.723z" class="l"/><path d="M275.255 205.665h-.754v91.723h.754v-91.723z" class="m"/><path d="M274.492 205.665h-.754v91.723h.754v-91.723z" class="n"/><path d="M273.738 205.665h-.754v91.723h.754v-91.723z" class="o"/><path d="M272.984 205.665h-.754v91.723h.754v-91.723z" class="p"/><path d="M272.221 205.665h-.754v91.723h.754v-91.723z" class="q"/><path d="M271.467 205.665h-.754v91.723h.754v-91.723z" class="E"/><path d="M270.713 205.665h-4.496v91.723h4.496v-91.723z" class="E"/><path d="M266.217 205.665h-4.497v91.723h4.497v-91.723z" class="r"/><path d="M261.72 205.665h-4.496v91.723h4.496v-91.723z" class="s"/><path d="M257.215 205.665h-4.496v91.723h4.496v-91.723z" class="t"/><path d="M252.719 205.665h-4.496v91.723h4.496v-91.723z" class="u"/><path d="M248.223 205.665h-4.497v91.723h4.497v-91.723z" class="v"/><path d="M243.726 205.665h-4.496v91.723h4.496v-91.723z" class="w"/><path d="M239.23 205.665h-4.496v91.723h4.496v-91.723z" class="x"/><path d="M234.734 205.665h-4.496v91.723h4.496v-91.723z" class="y"/><path d="M230.238 205.665h-4.497v91.723h4.497v-91.723z" class="z"/><path d="M225.741 205.665h-4.496v91.723h4.496v-91.723z" class="AA"/><path d="M221.245 205.665h-4.496v91.723h4.496v-91.723z" class="AB"/><path d="M216.74 205.665h-4.496v91.723h4.496v-91.723z" class="AC"/><path d="M212.244 205.665h-4.497v91.723h4.497v-91.723z" class="AD"/><path d="M207.747 205.665h-4.496v91.723h4.496v-91.723z" class="AE"/><path d="M203.251 205.665h-4.496v91.723h4.496v-91.723z" class="AF"/><path d="M198.755 205.665h-3.897v91.723h3.897v-91.723z" class="AG"/></g><mask id="N" maskUnits="userSpaceOnUse" x="195" y="166" width="142" height="115"><path d="M195.094 200.848v45.027c0 4.082 2.725 7.892 7.267 9.905l48.141 21.951a38.08 38.08 0 0 0 15.369 3.239c5.293 0 10.528-1.103 15.369-3.239l48.669-22.178c4.542-2.059 6.994-5.678 6.994-9.751v-44.954l-6.195-7.03-2.216-3.265-46.834-21.298a38.14 38.14 0 0 0-30.729 0l-46.842 21.334" class="B"/></mask><g mask="url(#N)"><path d="M336.849 164.955h-1.381v117.094h1.381V164.955z" class="K"/><use xlink:href="#p" class="L"/><use xlink:href="#q" class="M"/><path d="M330.327 164.955h-2.571v117.094h2.571V164.955z" class="N"/><path d="M327.747 164.955h-2.57v117.094h2.57V164.955z" class="O"/><path d="M325.177 164.955h-2.571v117.094h2.571V164.955z" class="P"/><path d="M322.606 164.955h-2.571v117.094h2.571V164.955z" class="Q"/><path d="M320.026 164.955h-2.57v117.094h2.57V164.955z" class="R"/><path d="M317.456 164.955h-2.571v117.094h2.571V164.955z" class="S"/><path d="M314.885 164.955h-2.57v117.094h2.57V164.955z" class="T"/><path d="M312.305 164.955h-2.57v117.094h2.57V164.955z" class="U"/><path d="M309.735 164.955h-2.571v117.094h2.571V164.955z" class="V"/><path d="M307.164 164.955h-2.57v117.094h2.57V164.955z" class="W"/><path d="M304.585 164.955h-2.571v117.094h2.571V164.955z" class="X"/><path d="M302.014 164.955h-2.571v117.094h2.571V164.955z" class="Y"/><path d="M299.443 164.955h-2.57v117.094h2.57V164.955z" class="Z"/><path d="M296.864 164.955h-2.571v117.094h2.571V164.955z" class="a"/><path d="M294.293 164.955h-2.57v117.094h2.57V164.955z" class="b"/><path d="M291.723 164.955h-2.571v117.094h2.571V164.955z" class="c"/><path d="M289.143 164.955h-2.571v117.094h2.571V164.955z" class="d"/><path d="M286.572 164.955h-2.57v117.094h2.57V164.955z" class="e"/><path d="M284.002 164.955h-2.571v117.094h2.571V164.955z" class="D"/><use xlink:href="#r" class="D"/><path d="M280.677 164.955h-.754v117.094h.754V164.955z" class="f"/><path d="M279.923 164.955h-.754v117.094h.754V164.955z" class="g"/><path d="M279.169 164.955h-.753v117.094h.753V164.955z" class="h"/><path d="M278.407 164.955h-.754v117.094h.754V164.955z" class="i"/><path d="M277.653 164.955h-.754v117.094h.754V164.955z" class="j"/><path d="M276.899 164.955h-.754v117.094h.754V164.955z" class="k"/><path d="M276.145 164.955h-.754v117.094h.754V164.955z" class="l"/><path d="M275.391 164.955h-.754v117.094h.754V164.955z" class="m"/><path d="M274.637 164.955h-.754v117.094h.754V164.955z" class="n"/><path d="M273.883 164.955h-.754v117.094h.754V164.955z" class="o"/><path d="M273.129 164.955h-.754v117.094h.754V164.955z" class="p"/><path d="M272.375 164.955h-.754v117.094h.754V164.955z" class="q"/><path d="M271.621 164.955h-.754v117.094h.754V164.955z" class="E"/><use xlink:href="#s" class="E"/><path d="M266.38 164.955h-4.478v117.094h4.478V164.955z" class="r"/><path d="M261.893 164.955h-4.478v117.094h4.478V164.955z" class="s"/><path d="M257.415 164.955h-4.478v117.094h4.478V164.955z" class="t"/><path d="M252.937 164.955h-4.478v117.094h4.478V164.955z" class="u"/><path d="M248.45 164.955h-4.478v117.094h4.478V164.955z" class="v"/><path d="M243.972 164.955h-4.479v117.094h4.479V164.955z" class="w"/><path d="M239.484 164.955h-4.478v117.094h4.478V164.955z" class="x"/><path d="M235.006 164.955h-4.478v117.094h4.478V164.955z" class="y"/><path d="M230.519 164.955h-4.478v117.094h4.478V164.955z" class="z"/><path d="M226.041 164.955h-4.478v117.094h4.478V164.955z" class="AA"/><path d="M221.563 164.955h-4.478v117.094h4.478V164.955z" class="AB"/><path d="M217.076 164.955h-4.478v117.094h4.478V164.955z" class="AC"/><path d="M212.598 164.955h-4.478v117.094h4.478V164.955z" class="AD"/><path d="M208.111 164.955h-4.479v117.094h4.479V164.955z" class="AE"/><path d="M203.633 164.955h-4.479v117.094h4.479V164.955z" class="AF"/><path d="M199.154 164.955h-4.06v117.094h4.06V164.955z" class="AG"/></g><mask id="O" maskUnits="userSpaceOnUse" x="195" y="156" width="143" height="90"><path d="M329.854 188.657c2.19 1.279 4.006 3.108 5.268 5.306a14.49 14.49 0 0 1 0 14.441 14.52 14.52 0 0 1-5.268 5.306l-48.595 28.119a30.82 30.82 0 0 1-15.365 4.103c-5.393 0-10.691-1.415-15.364-4.103l-48.142-27.738a14.52 14.52 0 0 1-5.273-5.307c-1.264-2.199-1.929-4.689-1.929-7.224a14.49 14.49 0 0 1 1.929-7.224c1.263-2.199 3.081-4.029 5.273-5.307l48.669-28.047a30.77 30.77 0 0 1 30.728 0l48.069 27.675z" class="B"/></mask><g mask="url(#O)"><path d="M308.827 155.476L193.105 208.757V155.476H308.827Z" class="H"/><path d="M318.918 155.476l-125.813 57.926v-4.645l115.722-53.281h10.091z" class="H"/><path d="M329.01 155.476l-135.905 62.579v-4.653l125.813-57.926h10.092z" class="AI"/><path d="M339.101 155.476l-145.996 67.223v-4.644l135.905-62.579h10.091z" class="AJ"/><path d="M339.147 160.102l-146.042 67.241v-4.644l145.996-67.223h.046v4.626z" class="AK"/><path d="M339.147 164.746l-146.042 67.25v-4.653l146.042-67.241v4.644z" class="AL"/><path d="M339.147 169.399l-146.042 67.242v-4.645l146.042-67.25v4.653z" class="AM"/><path d="M339.147 174.044l-146.042 67.241v-4.644l146.042-67.242v4.645z" class="AN"/><path d="M339.147 178.688l-146.042 67.241v-4.644l146.042-67.241v4.644z" class="AO"/><path d="M339.147 183.341l-138.866 63.931h-7.176v-1.343l146.042-67.241v4.653z" class="AP"/><path d="M339.147 187.986l-128.775 59.286h-10.091l138.866-63.931v4.645z" class="AQ"/><path d="M339.147 192.63l-118.683 54.642h-10.092l128.775-59.287v4.645z" class="AR"/><path d="M339.147 197.274l-108.592 49.998h-10.091l118.683-54.642v4.644z" class="AS"/><path d="M339.147 201.927l-98.491 45.345h-10.101l108.592-49.998v4.653z" class="AT"/><path d="M339.147 206.571l-88.408 40.701h-10.083l98.491-45.345v4.644z" class="AU"/><path d="M339.147 211.215l-78.308 36.057h-10.1l88.408-40.701v4.644z" class="AV"/><path d="M339.147 215.86l-68.216 31.412h-10.092l78.308-36.056v4.644z" class="AW"/><path d="M339.147 220.513l-58.125 26.759h-10.091l68.216-31.412v4.653z" class="AX"/><path d="M339.147 225.157l-48.033 22.115h-10.092l58.125-26.759v4.644z" class="AY"/><path d="M339.147 229.801l-37.941 17.471h-10.092l48.033-22.115v4.644z" class="AZ"/><path d="M339.147 234.455l-27.85 12.816h-10.091l37.941-17.47v4.654z" class="Aa"/><path d="M339.147 239.099l-17.758 8.173h-10.092l27.85-12.817v4.644z" class="Ab"/><path d="M339.147 243.743l-7.667 3.529h-10.091l17.758-8.173v4.644z" class="Ac"/><path d="M331.48 247.272l7.667-3.529v3.529h-7.667z" class="Ad"/></g><mask id="P" maskUnits="userSpaceOnUse" x="195" y="191" width="143" height="56"><path d="M335.922 201.32c-.006 2.327-.625 4.612-1.793 6.626a13.3 13.3 0 0 1-4.865 4.848l-48.668 28.119a29.49 29.49 0 0 1-14.761 3.96c-5.183 0-10.275-1.366-14.76-3.96l-48.142-27.738a13.39 13.39 0 0 1-4.871-4.887 13.37 13.37 0 0 1-1.787-6.66c0-6.994 2.725-9.905 2.725-9.905-1.307 1.396-2.325 3.036-2.995 4.826a14.47 14.47 0 0 0-.912 5.604c.068 1.909.513 3.787 1.31 5.524a14.5 14.5 0 0 0 3.333 4.6 13.99 13.99 0 0 0 2.57 1.896l48.142 27.738c4.652 2.705 9.941 4.126 15.324 4.118 5.386.031 10.68-1.392 15.323-4.118l48.669-28.119a14.45 14.45 0 0 0 5.315-5.28 14.41 14.41 0 0 0 1.951-7.229c-.021-3.52-1.288-6.92-3.578-9.596.09.036 2.47 2.557 2.47 9.633z" class="B"/></mask><g mask="url(#P)"><path d="M197.856 191.723h-3.706v54.424h3.706v-54.424z" class="Ae"/><path d="M201.552 191.723h-3.706v54.424h3.706v-54.424z" class="Af"/><path d="M205.258 191.723h-3.706v54.424h3.706v-54.424z" class="Ag"/><path d="M208.955 191.723h-3.706v54.424h3.706v-54.424z" class="Ah"/><path d="M212.661 191.723h-3.706v54.424h3.706v-54.424z" class="Ai"/><path d="M216.367 191.723h-3.706v54.424h3.706v-54.424z" class="Aj"/><path d="M220.064 191.723h-3.706v54.424h3.706v-54.424z" class="Ak"/><path d="M223.77 191.723h-3.706v54.424h3.706v-54.424z" class="Al"/><path d="M227.467 191.723h-3.706v54.424h3.706v-54.424z" class="Am"/><path d="M231.173 191.723h-3.706v54.424h3.706v-54.424z" class="An"/><path d="M234.87 191.723h-3.706v54.424h3.706v-54.424z" class="Ao"/><path d="M238.576 191.723h-3.706v54.424h3.706v-54.424z" class="Ap"/><path d="M242.273 191.723h-3.706v54.424h3.706v-54.424z" class="Aq"/><path d="M245.979 191.723h-3.706v54.424h3.706v-54.424z" class="Ar"/><path d="M249.676 191.723h-3.706v54.424h3.706v-54.424z" class="As"/><path d="M253.382 191.723h-3.706v54.424h3.706v-54.424z" class="At"/><path d="M257.079 191.723h-3.706v54.424h3.706v-54.424z" class="Au"/><path d="M260.785 191.723h-3.706v54.424h3.706v-54.424z" class="Av"/><path d="M264.482 191.723h-3.706v54.424h3.706v-54.424z" class="Aw"/><path d="M268.188 191.723h-3.706v54.424h3.706v-54.424z" class="Ax"/><path d="M271.885 191.723h-3.706v54.424h3.706v-54.424z" class="Ay"/><path d="M275.591 191.723h-3.706v54.424h3.706v-54.424z" class="Az"/><path d="M279.297 191.723h-3.706v54.424h3.706v-54.424z" class="BA"/><path d="M282.994 191.723h-3.706v54.424h3.706v-54.424z" class="BB"/><path d="M286.7 191.723h-3.706v54.424h3.706v-54.424z" class="BC"/><path d="M290.397 191.723h-3.706v54.424h3.706v-54.424z" class="BD"/><path d="M294.103 191.723h-3.706v54.424h3.706v-54.424z" class="BE"/><path d="M297.799 191.723h-3.705v54.424h3.705v-54.424z" class="BF"/><path d="M301.505 191.723h-3.706v54.424h3.706v-54.424z" class="BG"/><path d="M305.202 191.723h-3.706v54.424h3.706v-54.424z" class="BH"/><path d="M308.908 191.723h-3.706v54.424h3.706v-54.424z" class="BI"/><path d="M312.605 191.723h-3.706v54.424h3.706v-54.424z" class="BJ"/><path d="M316.311 191.723h-3.706v54.424h3.706v-54.424z" class="BK"/><path d="M320.008 191.723h-3.706v54.424h3.706v-54.424z" class="BL"/><path d="M323.714 191.723h-3.706v54.424h3.706v-54.424z" class="BM"/><path d="M327.411 191.723h-3.706v54.424h3.706v-54.424z" class="BN"/><path d="M331.117 191.723h-3.706v54.424h3.706v-54.424z" class="BO"/><path d="M334.814 191.723h-3.706v54.424h3.706v-54.424z" class="I"/><path d="M336.931 191.723h-2.117v54.424h2.117v-54.424z" class="I"/></g><path d="M301.634 258.041c.114-2.291-1.082-4.213-2.67-4.291s-2.968 1.715-3.082 4.006 1.081 4.214 2.67 4.292 2.968-1.715 3.082-4.007z" class="J"/><g class="F"><path d="M310.623 253.624c.114-2.291-1.081-4.213-2.67-4.291s-2.968 1.715-3.082 4.007 1.082 4.213 2.67 4.291 2.968-1.715 3.082-4.007zm9.057-4.836c.113-2.292-1.082-4.213-2.67-4.292s-2.968 1.715-3.082 4.007 1.081 4.213 2.67 4.292 2.968-1.715 3.082-4.007z"/><g class="C"><path d="M219.946 266.62l11.4 6.567v-2.132l-11.4-6.558v2.123zm23.889 13.796l11.4 6.567v-2.14l-11.4-6.568v2.141z"/></g></g><path d="M234.579 275.055l6.068 3.492v-2.131l-6.068-3.501v2.14z" class="C J"/><g class="F C"><path d="M205.513 252.705l25.833 14.513v-2.14l-25.833-14.514v2.141zm38.322 21.688l11.4 6.567v-2.14l-11.4-6.568v2.141zm-23.889 26.568l11.4 6.567v-2.131l-11.4-6.567v2.131zm23.889 13.797l11.4 6.567v-2.141l-11.4-6.567v2.141zm-38.322-27.893l38.322 21.561v-2.14l-38.322-21.561v2.14z"/></g><path d="M234.579 269.032l6.068 3.493v-2.132l-6.068-3.501v2.14z" class="C J"/><mask id="Q" maskUnits="userSpaceOnUse" x="195" y="294" width="142" height="46"><path d="M329.31 306.522l-48.051 27.212c-4.67 2.636-9.942 4.021-15.306 4.021s-10.636-1.385-15.305-4.021l-48.596-27.512a13.97 13.97 0 0 1-4.992-4.831c-1.231-2.004-1.935-4.286-2.048-6.634v.816a13.95 13.95 0 0 0 1.882 7.112c1.252 2.16 3.062 3.946 5.24 5.17l48.587 27.502c4.67 2.636 9.944 4.021 15.31 4.021s10.639-1.385 15.309-4.021l48.006-27.212c2.189-1.224 4.014-3.006 5.29-5.163s1.958-4.613 1.977-7.119a4.95 4.95 0 0 0-.046-.816c-.172 2.361-.925 4.643-2.193 6.643s-3.01 3.657-5.074 4.822l.01.01z" class="B"/></mask><g mask="url(#Q)" class="G"><path d="M195.012 294.784h-.036v45.961h.036v-45.961z"/><path d="M336.622 294.784h-141.61v45.961h141.61v-45.961z"/></g><mask id="R" maskUnits="userSpaceOnUse" x="195" y="287" width="142" height="46"><path d="M329.309 299.338l-48.014 27.212c-4.669 2.636-9.942 4.021-15.305 4.021s-10.637-1.385-15.306-4.021l-48.596-27.503c-2.044-1.165-3.761-2.827-4.991-4.831s-1.935-4.286-2.048-6.634v.816a13.96 13.96 0 0 0 1.879 7.079 13.99 13.99 0 0 0 5.206 5.158l48.586 27.502a31.15 31.15 0 0 0 30.62 0l48.006-27.212c2.188-1.223 4.013-3.003 5.289-5.158a14.17 14.17 0 0 0 1.977-7.115 4.84 4.84 0 0 0-.045-.816c-.192 2.36-.953 4.639-2.219 6.642s-2.997 3.67-5.048 4.86h.009z" class="B"/></mask><g mask="url(#R)" class="G"><path d="M195.049 287.6h-.037v45.916h.037V287.6z"/><path d="M335.813 287.6H195.049v45.916h140.764V287.6z"/><path d="M336.622 287.6h-.809v45.916h.809V287.6z"/></g><g class="C F"><path d="M325.34 295.056l-11.399 6.568v-2.132l11.399-6.567v2.131zm-23.889 13.797l-11.4 6.567v-2.141l11.4-6.567v2.141zm9.274-5.352l-6.068 3.492v-2.131l6.068-3.502v2.141z"/></g><path d="M301.451 302.83l-11.4 6.567v-2.141l11.4-6.567v2.141z" class="C J"/><path d="M320.717 291.872l-16.105 9.071v-2.132l16.105-9.07v2.131z" class="C F"/><g opacity=".1" class="F"><path d="M266.353 211.85c30.315 0 54.891-6.465 54.891-14.44s-24.576-14.441-54.891-14.441-54.891 6.466-54.891 14.441 24.576 14.44 54.891 14.44z"/></g><path d="M299.198 73.794H231.7c-9.747 0-17.649 7.891-17.649 17.624v67.404c0 9.734 7.902 17.625 17.649 17.625h67.498c9.747 0 17.649-7.891 17.649-17.625V91.419c0-9.734-7.902-17.624-17.649-17.624z" fill="#ecc06a"/><path d="M293.103 142.151a21.18 21.18 0 0 0-8.665 1.216c-.672.254-1.744.254-1.817 1.079.363.336.4.907.718 1.379a10.18 10.18 0 0 0 2.325 2.631l2.852 1.986c1.744 1.034 3.706 1.633 5.45 2.721.981.599 1.962 1.379 2.952 2.023.5.345.8.907 1.426 1.125v-.127c-.309-.39-.399-.907-.717-1.388l-1.435-1.297a21 21 0 0 0-4.651-4.354c-1.426-.952-4.542-2.24-5.132-3.837l-.091-.1a21.03 21.03 0 0 0 3.088-.689c1.517-.39 2.898-.299 4.46-.689l2.144-.608v-.381c-.799-.78-1.381-1.814-2.235-2.549a59 59 0 0 0-7.366-5.306c-1.381-.862-3.17-1.424-4.642-2.159-.536-.254-1.435-.39-1.744-.817a17.08 17.08 0 0 1-1.816-3.329l-3.634-7.501c-.655-1.684-1.414-3.326-2.271-4.916-4.605-7.339-9.61-11.792-17.258-16.137a21.88 21.88 0 0 0-5.704-1.769l-3.352-.181c-.722-.448-1.409-.951-2.053-1.506-2.552-1.551-9.083-4.916-10.991-.481-1.208 2.803 1.817 5.561 2.807 6.985a20.39 20.39 0 0 1 2.271 3.238c.3.735.409 1.506.718 2.286a50.07 50.07 0 0 0 2.325 5.778c.484.929 1.033 1.823 1.644 2.676.363.489.99.698 1.117 1.469-.627.862-.663 2.159-1.026 3.238-1.608 4.88-.981 10.885 1.299 14.513.717 1.08 2.398 3.456 4.687 2.549 2.016-.78 1.562-3.238 2.143-5.442.137-.517.046-.862.309-1.207v.1l1.817 3.574a25.26 25.26 0 0 0 5.804 5.787c1.072.78 1.926 2.114 3.261 2.585v-.127h-.091c-.297-.336-.643-.626-1.026-.861-.844-.798-1.619-1.666-2.317-2.595a54.55 54.55 0 0 1-5.004-7.846c-.718-1.342-1.345-2.803-1.917-4.145-.272-.517-.273-1.297-.718-1.551a16 16 0 0 0-2.143 2.93c-.854 1.814-.909 4.145-1.254 6.522-.181 0-.1 0-.181.09-1.427-.344-1.917-1.769-2.453-2.975a18.12 18.12 0 0 1-.4-11.52c.309-.907 1.654-3.755 1.118-4.617-.273-.816-1.163-1.297-1.653-1.941a16.73 16.73 0 0 1-1.608-2.721c-1.072-2.422-1.608-5.098-2.725-7.511a22.29 22.29 0 0 0-2.235-3.319c-.922-1.043-1.743-2.169-2.452-3.366-.227-.49-.536-1.252-.182-1.769a.7.7 0 0 1 .627-.562c.581-.49 2.234.127 2.816.381 1.544.561 3.023 1.285 4.414 2.159.627.435 1.299 1.252 2.108 1.469h.908c1.426.3 3.034.1 4.378.481 2.258.729 4.417 1.731 6.431 2.984a38.75 38.75 0 0 1 13.934 14.758c.536.989.754 1.896 1.244 2.93.909 2.114 2.108 4.273 3.043 6.35.823 2.048 1.887 3.99 3.17 5.787.663.907 3.343 1.379 4.542 1.814a31.19 31.19 0 0 1 3.079 1.215c1.526.908 3.043 1.942 4.469 2.93.718.517 2.943 1.597 3.079 2.458h-.018zm-45.544-37.489c-.612-.007-1.223.066-1.816.218v.091h.091a13.41 13.41 0 0 0 1.426 1.814l1.026 2.077.091-.1a2.4 2.4 0 0 0 .735-.961c.159-.378.219-.79.173-1.198-.2-.289-.379-.592-.536-.907-.272-.426-.853-.644-1.208-.988l.018-.046z" fill="#00678c" class="C"/><g opacity=".1" class="F"><path d="M132.183 137.698c30.315 0 54.891-6.466 54.891-14.441s-24.576-14.441-54.891-14.441-54.89 6.466-54.89 14.441 24.575 14.441 54.89 14.441z"/></g><path d="M165.546 12.44H98.048c-9.747 0-17.649 7.891-17.649 17.624v67.405c0 9.733 7.902 17.624 17.649 17.624h67.498c9.747 0 17.649-7.891 17.649-17.624V30.064c0-9.734-7.902-17.624-17.649-17.624z" fill="#063b67"/><g class="B C"><path d="M160.06 36.75a3.54 3.54 0 0 0-.268-1.36c-.178-.431-.439-.823-.769-1.154a3.55 3.55 0 0 0-2.515-1.042h-49.74c-.942 0-1.845.374-2.511 1.039a3.54 3.54 0 0 0-1.041 2.508v10.377a3.54 3.54 0 0 0 1.041 2.508c.666.665 1.569 1.039 2.511 1.039h49.74c.942 0 1.846-.374 2.512-1.039s1.04-1.567 1.04-2.508V36.75zm-43.718 9.551c.866.002 1.713-.253 2.435-.732a4.37 4.37 0 0 0 1.616-1.96c.333-.798.421-1.678.253-2.527a4.37 4.37 0 0 0-1.196-2.241 4.38 4.38 0 0 0-2.242-1.199c-.849-.169-1.73-.083-2.531.247a4.38 4.38 0 0 0-1.966 1.61 4.37 4.37 0 0 0 .541 5.518 4.38 4.38 0 0 0 3.09 1.284zm43.718 12.291c0-.941-.374-1.844-1.04-2.511s-1.569-1.042-2.512-1.045h-49.74a3.56 3.56 0 0 0-2.512 1.045c-.666.667-1.04 1.57-1.04 2.511V68.96a3.54 3.54 0 0 0 1.041 2.508c.666.665 1.569 1.039 2.511 1.039h49.74c.942 0 1.846-.374 2.512-1.039s1.04-1.567 1.04-2.508V58.592zm-43.718 9.542c.866.002 1.713-.253 2.435-.732s1.283-1.161 1.616-1.96.421-1.678.253-2.527a4.37 4.37 0 0 0-1.196-2.241 4.38 4.38 0 0 0-2.242-1.199c-.849-.169-1.73-.083-2.531.247a4.38 4.38 0 0 0-1.966 1.61 4.37 4.37 0 0 0 .541 5.518 4.38 4.38 0 0 0 3.09 1.284zm43.718 12.273c0-.941-.374-1.843-1.04-2.508s-1.57-1.039-2.512-1.039h-49.74c-.942 0-1.845.374-2.511 1.039a3.54 3.54 0 0 0-1.041 2.508v10.377a3.54 3.54 0 0 0 1.041 2.508c.666.665 1.569 1.039 2.511 1.039h49.74c.942 0 1.846-.374 2.512-1.039s1.04-1.567 1.04-2.508V80.407zm-43.718 9.552a4.37 4.37 0 0 0 2.427-.735c.719-.479 1.279-1.161 1.609-1.958a4.36 4.36 0 0 0 .249-2.521c-.169-.846-.585-1.624-1.196-2.234a4.37 4.37 0 0 0-2.237-1.194 4.38 4.38 0 0 0-2.524.248c-.798.33-1.481.889-1.961 1.607a4.36 4.36 0 0 0 .543 5.509c.82.818 1.931 1.278 3.09 1.278z"/></g></g><defs><clipPath id="S"><path d="M0 0h397.973v364H0z" class="B"/></clipPath><path id="T" d="M201.316 117.379h-2.57v148.089h2.57V117.379z"/><path id="U" d="M198.737 117.379h-2.571v148.089h2.571V117.379z"/><path id="V" d="M147.27 117.379h-.754v148.089h.754V117.379z"/><path id="W" d="M136.706 117.379h-4.478v148.089h4.478V117.379z"/><path id="X" d="M63.704 166.488h-3.688v54.469h3.688v-54.469z"/><path id="Y" d="M104.233 166.488h-3.687v54.469h3.687v-54.469z"/><path id="Z" d="M201.443 128.264h-2.579v91.723h2.579v-91.723z"/><path id="a" d="M198.855 128.264h-2.58v91.723h2.58v-91.723z"/><path id="b" d="M147.216 128.264h-.754v91.723h.754v-91.723z"/><path id="c" d="M136.616 128.264h-4.497v91.723h4.497v-91.723z"/><path id="d" d="M132.119 128.264h-4.496v91.723h4.496v-91.723z"/><path id="e" d="M198.8 87.546h-2.571V204.64h2.571V87.546z"/><path id="f" d="M196.22 87.546h-2.57V204.64h2.57V87.546z"/><path id="g" d="M147.334 87.546h-.754V204.64h.754V87.546z"/><path id="h" d="M136.761 87.546h-4.478V204.64h4.478V87.546z"/><path id="i" d="M63.758 114.313h-3.706v54.424h3.706v-54.424z"/><path id="j" d="M335.414 194.789h-2.571v148.088h2.571V194.789z"/><path id="k" d="M330.263 194.789h-2.57v148.088h2.57V194.789z"/><path id="l" d="M281.368 194.789h-.754v148.088h.754V194.789z"/><path id="m" d="M270.804 194.789h-4.478v148.088h4.478V194.789z"/><path id="n" d="M197.801 243.897h-3.688v54.47h3.688v-54.47z"/><path id="o" d="M227.276 243.897h-3.687v54.47h3.687v-54.47z"/><path id="p" d="M335.468 164.955h-2.571v117.094h2.571V164.955z"/><path id="q" d="M332.897 164.955h-2.57v117.094h2.57V164.955z"/><path id="r" d="M281.431 164.955h-.754v117.094h.754V164.955z"/><path id="s" d="M270.858 164.955h-4.478v117.094h4.478V164.955z"/></defs></svg>