<svg id="Layer_1" data-name="Layer 1" xmlns="http://www.w3.org/2000/svg" xmlns:xlink="http://www.w3.org/1999/xlink" viewBox="0 0 732.24 827.11"><defs><style>.cls-1{fill:none;stroke:#ec7333;stroke-width:3px;}.cls-2{fill:#143564;}.cls-3{fill:url(#linear-gradient);}.cls-4{fill:url(#linear-gradient-2);}.cls-5{fill:url(#linear-gradient-3);}.cls-6{fill:#fff;isolation:isolate;opacity:0.1;}.cls-25,.cls-36,.cls-6{fill-rule:evenodd;}.cls-7{fill:url(#linear-gradient-4);}.cls-8{fill:url(#linear-gradient-5);}.cls-9{fill:url(#linear-gradient-6);}.cls-10{fill:url(#linear-gradient-7);}.cls-11{fill:url(#linear-gradient-8);}.cls-12,.cls-24,.cls-25{fill:#0f254c;}.cls-12{opacity:0.2;}.cls-13{fill:url(#linear-gradient-9);}.cls-14{fill:url(#linear-gradient-10);}.cls-15{fill:url(#linear-gradient-11);}.cls-16{fill:url(#linear-gradient-12);}.cls-17{fill:url(#linear-gradient-13);}.cls-18{fill:url(#linear-gradient-14);}.cls-19{fill:url(#linear-gradient-15);}.cls-20{fill:url(#linear-gradient-16);}.cls-21{fill:url(#linear-gradient-17);}.cls-22{fill:url(#linear-gradient-18);}.cls-23,.cls-36{fill:#ff7101;}.cls-26{fill:url(#linear-gradient-19);}.cls-27{fill:url(#linear-gradient-20);}.cls-28{fill:url(#linear-gradient-21);}.cls-29{fill:url(#linear-gradient-22);}.cls-30{fill:url(#linear-gradient-23);}.cls-31{fill:url(#linear-gradient-24);}.cls-32{fill:url(#linear-gradient-25);}.cls-33{fill:url(#linear-gradient-26);}.cls-34{fill:url(#linear-gradient-27);}.cls-35{fill:url(#linear-gradient-28);}.cls-37{fill:url(#linear-gradient-29);}.cls-38{fill:url(#linear-gradient-30);}.cls-39{fill:url(#linear-gradient-31);}.cls-40{fill:url(#linear-gradient-32);}.cls-41{fill:url(#linear-gradient-33);}.cls-42{fill:url(#linear-gradient-34);}.cls-43{fill:url(#linear-gradient-35);}.cls-44{fill:url(#linear-gradient-36);}.cls-45{fill:url(#linear-gradient-37);}.cls-46{fill:url(#linear-gradient-38);}.cls-47{fill:url(#linear-gradient-39);}.cls-48{fill:url(#linear-gradient-40);}.cls-49{fill:url(#linear-gradient-41);}.cls-50{fill:url(#linear-gradient-42);}</style><linearGradient id="linear-gradient" x1="-1525.76" y1="-87.98" x2="-1528.29" y2="-87.98" gradientTransform="matrix(178.8, 0, 0, -112.25, 273392.82, -9209.04)" gradientUnits="userSpaceOnUse"><stop offset="0" stop-color="#13345f"/><stop offset="0.38" stop-color="#163c79"/><stop offset="0.44" stop-color="#1b4687"/><stop offset="1" stop-color="#275c9a"/></linearGradient><linearGradient id="linear-gradient-2" x1="586.46" y1="591.7" x2="133.85" y2="591.7" gradientTransform="matrix(1, 0, 0, 1, 0, 0)" xlink:href="#linear-gradient"/><linearGradient id="linear-gradient-3" x1="-1527.22" y1="-86.1" x2="-1525.9" y2="-87.9" gradientTransform="matrix(178.7, 0, 0, -112.35, 273239.71, -9233.96)" gradientUnits="userSpaceOnUse"><stop offset="0" stop-color="#2a63a1"/><stop offset="1" stop-color="#1d498c"/></linearGradient><linearGradient id="linear-gradient-4" x1="-1528.08" y1="-95.22" x2="-1525.96" y2="-95.22" gradientTransform="matrix(178.7, 0, 0, -68.5, 273239.14, -5993.58)" gradientUnits="userSpaceOnUse"><stop offset="0" stop-color="#3c82bb"/><stop offset="1" stop-color="#255a95"/></linearGradient><linearGradient id="linear-gradient-5" x1="-1525.76" y1="-86.3" x2="-1528.3" y2="-86.3" xlink:href="#linear-gradient"/><linearGradient id="linear-gradient-6" x1="586.61" y1="406.37" x2="134" y2="406.37" gradientTransform="matrix(1, 0, 0, 1, 0, 0)" xlink:href="#linear-gradient"/><linearGradient id="linear-gradient-7" x1="-1527.23" y1="-84.91" x2="-1525.91" y2="-86.71" xlink:href="#linear-gradient-3"/><linearGradient id="linear-gradient-8" x1="-1528.08" y1="-93.26" x2="-1525.95" y2="-93.26" xlink:href="#linear-gradient-4"/><linearGradient id="linear-gradient-9" x1="-1530.97" y1="-79.22" x2="-1529.91" y2="-79.37" gradientTransform="matrix(304, 0, 0, -173.34, 465665.72, -13485.42)" gradientUnits="userSpaceOnUse"><stop offset="0" stop-color="#142e56"/><stop offset="1" stop-color="#142e56"/></linearGradient><linearGradient id="linear-gradient-10" x1="-1530.04" y1="-79.29" x2="-1531.14" y2="-79.29" gradientTransform="matrix(304, 0, 0, -173.33, 465665.72, -13491.65)" xlink:href="#linear-gradient"/><linearGradient id="linear-gradient-11" x1="-1530.99" y1="-78.77" x2="-1530.11" y2="-78.77" gradientTransform="matrix(304.02, 0, 0, -191.17, 465692.41, -14853.39)" gradientUnits="userSpaceOnUse"><stop offset="0" stop-color="#3070ab"/><stop offset="0.65" stop-color="#235695"/><stop offset="1" stop-color="#1c488b"/></linearGradient><linearGradient id="linear-gradient-12" x1="-1529.58" y1="-79.52" x2="-1530.78" y2="-79.18" gradientTransform="matrix(272.41, 0, 0, -171.94, 417182.76, -13444.4)" gradientUnits="userSpaceOnUse"><stop offset="0" stop-color="#204f90"/><stop offset="0.44" stop-color="#215192"/><stop offset="1" stop-color="#3070ab"/></linearGradient><linearGradient id="linear-gradient-13" x1="-1530.06" y1="-82.18" x2="-1531.01" y2="-82.18" gradientTransform="matrix(304.13, 0, 0, -116.43, 465857.37, -9330.55)" gradientUnits="userSpaceOnUse"><stop offset="0" stop-color="#245793"/><stop offset="1" stop-color="#3c83bc"/></linearGradient><linearGradient id="linear-gradient-14" x1="-1530.99" y1="-83.83" x2="-1530.11" y2="-83.83" gradientTransform="matrix(304.01, 0, 0, -97.67, 465677.92, -7921.15)" xlink:href="#linear-gradient-9"/><linearGradient id="linear-gradient-15" x1="-1527.5" y1="-82.75" x2="-1528.21" y2="-81.96" gradientTransform="matrix(180.61, 0, 0, -115, 276327.48, -9270.26)" gradientUnits="userSpaceOnUse"><stop offset="0" stop-color="#6bb0d6"/><stop offset="1" stop-color="#a2ddfb"/></linearGradient><linearGradient id="linear-gradient-16" x1="428.95" y1="236.36" x2="319.89" y2="160.25" gradientTransform="matrix(1, 0, 0, 1, 0, 0)" xlink:href="#linear-gradient-15"/><linearGradient id="linear-gradient-17" x1="-1526.71" y1="-85.62" x2="-1526.11" y2="-84.61" gradientTransform="matrix(147.58, 0, 0, -87.94, 225635.57, -7284.67)" xlink:href="#linear-gradient-15"/><linearGradient id="linear-gradient-18" x1="339.94" y1="232.84" x2="408.91" y2="163.87" gradientTransform="matrix(1, 0, 0, 1, 0, 0)" xlink:href="#linear-gradient-15"/><linearGradient id="linear-gradient-19" x1="-1530.97" y1="-78.99" x2="-1529.91" y2="-79.14" xlink:href="#linear-gradient-9"/><linearGradient id="linear-gradient-20" x1="-1530.04" y1="-79.06" x2="-1531.14" y2="-79.06" gradientTransform="matrix(304, 0, 0, -173.33, 465665.72, -13491.65)" xlink:href="#linear-gradient"/><linearGradient id="linear-gradient-21" x1="-1530.99" y1="-78.56" x2="-1530.11" y2="-78.56" xlink:href="#linear-gradient-11"/><linearGradient id="linear-gradient-22" x1="-1529.58" y1="-79.28" x2="-1530.78" y2="-78.95" xlink:href="#linear-gradient-12"/><linearGradient id="linear-gradient-23" x1="-1530.06" y1="-81.84" x2="-1531.01" y2="-81.84" xlink:href="#linear-gradient-13"/><linearGradient id="linear-gradient-24" x1="-1530.99" y1="-83.43" x2="-1530.11" y2="-83.43" gradientTransform="matrix(304.01, 0, 0, -97.67, 465677.92, -7921.15)" xlink:href="#linear-gradient-9"/><linearGradient id="linear-gradient-25" x1="-1527.5" y1="-82.41" x2="-1528.21" y2="-81.62" xlink:href="#linear-gradient-15"/><linearGradient id="linear-gradient-26" x1="428.95" y1="196.55" x2="319.89" y2="120.44" gradientTransform="matrix(1, 0, 0, 1, 0, 0)" xlink:href="#linear-gradient-15"/><linearGradient id="linear-gradient-27" x1="-1526.71" y1="-85.17" x2="-1526.11" y2="-84.16" gradientTransform="matrix(147.58, 0, 0, -87.94, 225635.57, -7284.67)" xlink:href="#linear-gradient-15"/><linearGradient id="linear-gradient-28" x1="339.94" y1="193.04" x2="408.91" y2="124.07" gradientTransform="matrix(1, 0, 0, 1, 0, 0)" xlink:href="#linear-gradient-15"/><linearGradient id="linear-gradient-29" x1="-1531.15" y1="-88.31" x2="-1529.96" y2="-88.31" gradientTransform="matrix(304.01, 0, 0, -97.67, 465677.92, -7921.15)" xlink:href="#linear-gradient-9"/><linearGradient id="linear-gradient-30" x1="-1531.15" y1="-88.13" x2="-1529.96" y2="-88.13" gradientTransform="matrix(304.01, 0, 0, -97.67, 465677.92, -7921.15)" xlink:href="#linear-gradient-9"/><linearGradient id="linear-gradient-31" x1="-1531.15" y1="-87.93" x2="-1529.96" y2="-87.93" gradientTransform="matrix(304.01, 0, 0, -97.67, 465677.92, -7921.15)" xlink:href="#linear-gradient-9"/><linearGradient id="linear-gradient-32" x1="-1531.15" y1="-87.54" x2="-1529.96" y2="-87.54" gradientTransform="matrix(304.01, 0, 0, -97.67, 465677.92, -7921.15)" xlink:href="#linear-gradient-9"/><linearGradient id="linear-gradient-33" x1="-1530.97" y1="-78.73" x2="-1529.91" y2="-78.88" xlink:href="#linear-gradient-9"/><linearGradient id="linear-gradient-34" x1="-1530.04" y1="-78.79" x2="-1531.14" y2="-78.79" gradientTransform="matrix(304, 0, 0, -173.33, 465665.72, -13491.65)" xlink:href="#linear-gradient"/><linearGradient id="linear-gradient-35" x1="-1530.99" y1="-78.32" x2="-1530.11" y2="-78.32" xlink:href="#linear-gradient-11"/><linearGradient id="linear-gradient-36" x1="-1529.58" y1="-79.02" x2="-1530.78" y2="-78.68" xlink:href="#linear-gradient-12"/><linearGradient id="linear-gradient-37" x1="-1530.06" y1="-81.45" x2="-1531.01" y2="-81.45" xlink:href="#linear-gradient-13"/><linearGradient id="linear-gradient-38" x1="-1530.99" y1="-82.95" x2="-1530.11" y2="-82.95" gradientTransform="matrix(304.01, 0, 0, -97.67, 465677.92, -7921.15)" xlink:href="#linear-gradient-9"/><linearGradient id="linear-gradient-39" x1="-1527.5" y1="-82" x2="-1528.21" y2="-81.22" xlink:href="#linear-gradient-15"/><linearGradient id="linear-gradient-40" x1="428.95" y1="150.46" x2="319.89" y2="74.35" gradientTransform="matrix(1, 0, 0, 1, 0, 0)" xlink:href="#linear-gradient-15"/><linearGradient id="linear-gradient-41" x1="-1526.71" y1="-84.64" x2="-1526.11" y2="-83.64" gradientTransform="matrix(147.58, 0, 0, -87.94, 225635.57, -7284.67)" xlink:href="#linear-gradient-15"/><linearGradient id="linear-gradient-42" x1="339.94" y1="146.94" x2="408.91" y2="77.98" gradientTransform="matrix(1, 0, 0, 1, 0, 0)" xlink:href="#linear-gradient-15"/></defs><path id="Path_162" data-name="Path 162" class="cls-1" d="M570.18,633.61h0a47.61,47.61,0,0,1,0,82.36l-147.4,85.5a97,97,0,0,1-96.82,0L180,717.18a47.6,47.6,0,0,1,0-82.36l147.64-85.26a97,97,0,0,1,96.81,0l145.71,84.05Z"/><path class="cls-2" d="M544.61,535.6V509.27h-20l-112.26-64.7a73.75,73.75,0,0,0-73.48,0l-112.26,64.7H204.77v32.66a34.85,34.85,0,0,0,17.35,30.2L330.3,634.59a87.94,87.94,0,0,0,88,0l109.4-63.07A34.62,34.62,0,0,0,545,541.31a48.83,48.83,0,0,0-.41-5.71Z"/><path class="cls-3" d="M556.86,632.57H535.43L415,563.18a79.09,79.09,0,0,0-79,0L215.59,632.57H192.52v34.91a37.3,37.3,0,0,0,18.58,32.25l123.69,71.44a79.14,79.14,0,0,0,79,0L538.9,698.91c11.63-6.74,18-18.47,18-31.74"/><path class="cls-4" d="M535.43,484.57,415,415.17a79.14,79.14,0,0,0-79,0l-120.42,69.4H192.52v180a37.29,37.29,0,0,0,18.58,32.25l123.69,71.44a79.09,79.09,0,0,0,79,0L538.9,696c11.63-6.74,18-18.47,18-31.74V484.57Z"/><path class="cls-5" d="M539.51,450.64a37.29,37.29,0,0,1,0,64.5L414.59,587.39a79.14,79.14,0,0,1-79,0L211.91,516a37.29,37.29,0,0,1,0-64.5L337,379.2a79.14,79.14,0,0,1,79,0Z"/><path class="cls-6" d="M356.35,505.45a51.23,51.23,0,0,1-13.13-4.87,28,28,0,0,1-6.78-5.71l-15,9c2.33,2.61,1.58,5.76-1.84,7.79,0,0-3.44.48-10.11-3.49s-5.86-6-5.86-6c3.5-2.09,8.81-2.43,13.05-1.09l17-10.14c-1.93-3.66-2.2-7.44.91-10.11l10.78-8.12a6,6,0,0,1,3.5-1,5.65,5.65,0,0,1,3.62,1.12,118.9,118.9,0,0,0,16.92,12.47,166.88,166.88,0,0,0,21.28,9.92c2.48,1,2.58,3.09.2,4.17L377,505.64c-3.61,1.44-8.41,1.64-13.35,1.1L345,517.88c2.32,2.61,1.57,5.76-1.85,7.79,0,0-3.44.48-10.11-3.5s-5.86-6-5.86-6c3.5-2.09,8.81-2.43,13.05-1.09l16.13-9.61Zm19.26-64.09a27.46,27.46,0,0,1,8.73-1.28,24.53,24.53,0,0,1,4.66.4l30.46,6.22a33.75,33.75,0,0,1,9.85,3.82l.23.13c3,1.74,5.38,3.79,6.55,5.74l10.66,17.75c1.36,2.27.68,5.78-1.5,7.81l-19.53,13.34c-.21.15-.43.28-.66.42l0,0c-4.37,2.55-11.33,2.91-16.43.77-9.37-3.94-23.45-10.12-32.11-15.17s-19.07-13.79-25.43-19.46c-3.31-2.95-2.59-6.8,1.56-9.26l.17-.1c.24-.14.49-.27.76-.4l22.06-10.75Zm17.24,14.33L389,458.07c-2.76,1.68-3.66,3.9-2,4.91s5.27.46,8-1.22l3.89-2.38c2.76-1.69,3.66-3.9,2-4.92a4.45,4.45,0,0,0-2.26-.51,11.71,11.71,0,0,0-5.78,1.74ZM414,468.6,410.08,471c-2.76,1.69-3.66,3.9-2,4.91s5.27.47,8-1.22l3.89-2.38c2.76-1.68,3.66-3.9,2-4.91a4.32,4.32,0,0,0-2.26-.51A11.73,11.73,0,0,0,414,468.6Z"/><path class="cls-7" d="M554.2,483.55a34.14,34.14,0,0,1-17.14,29.6L411.94,585.4a75.69,75.69,0,0,1-75.93,0L212.32,514a34.12,34.12,0,0,1-17.14-29.59c0-18,6.93-25.52,6.93-25.52a37.39,37.39,0,0,0,8.58,57.77l123.69,71.43a78.14,78.14,0,0,0,39.39,10.62,77.06,77.06,0,0,0,39.39-10.62L538.28,515.8a37.1,37.1,0,0,0,18.58-32.25,38.43,38.43,0,0,0-9.19-24.7C548.08,458.85,554.2,465.38,554.2,483.55Z"/><path class="cls-2" d="M544.22,347V320.7h-20L412,256a73.78,73.78,0,0,0-73.47,0L226.21,320.7l-18.34,2.71-3.5,29.95a34.9,34.9,0,0,0,17.35,30.21L329.9,446a88,88,0,0,0,88,0L527.28,383a34.66,34.66,0,0,0,17.35-30.21,51.29,51.29,0,0,0-.41-5.72Z"/><path class="cls-8" d="M556.46,444H535l-120.42-69.4a79.14,79.14,0,0,0-79,0L215.19,444H192.63l-.5,34.9a37.28,37.28,0,0,0,18.57,32.25L334.39,582.6a79.14,79.14,0,0,0,79,0L538.5,510.34c11.64-6.73,18-18.47,18-31.73"/><path class="cls-9" d="M192.67,348.11V464c0,10.49,7.15,20.33,18.58,25.5l123.69,56.48a97.53,97.53,0,0,0,79,0l125.12-57.13c11.63-5.32,18-14.6,18-25.09V348.11L541.31,330l-5.73-8.38L415.15,266.79a97.61,97.61,0,0,0-79,0L215.74,321.66"/><path class="cls-10" d="M539.12,316.65a37.28,37.28,0,0,1,0,64.49L414.2,453.4a79.14,79.14,0,0,1-79,0L211.52,382a37.28,37.28,0,0,1,0-64.5l125.12-72.25a79.09,79.09,0,0,1,79,0Z"/><path class="cls-11" d="M554.72,349.25a34.14,34.14,0,0,1-17.14,29.6L412.46,451.1a75.69,75.69,0,0,1-75.93,0L212.84,379.66a34.11,34.11,0,0,1-17.15-29.59c0-18,6.94-25.52,6.94-25.52a37.4,37.4,0,0,0,8.57,57.77l123.69,71.44a78.3,78.3,0,0,0,39.4,10.61,77.17,77.17,0,0,0,39.39-10.61L538.8,381.5a37.1,37.1,0,0,0,18.57-32.25,38.48,38.48,0,0,0-9.18-24.7C548.6,324.55,554.72,331.09,554.72,349.25Z"/><path id="Path_175-3" data-name="Path 175-3" class="cls-12" d="M254,309.29a27.32,27.32,0,0,0,0,47.39l91.85,53.05a57.78,57.78,0,0,0,57.93,0l90.8-52.53a27.33,27.33,0,0,0,0-47.39l-91.86-53.05a57.74,57.74,0,0,0-57.91,0Z"/><g id="magento-cloud-server-3"><path id="Path_173-3" data-name="Path 173-3" class="cls-13" d="M240.36,209.71l16.13-.21,88.39-21.28a57.76,57.76,0,0,1,57.92,0l88.39,21.28,17.18,1.89v37.85a27.31,27.31,0,0,1-13.72,23.69l-90.8,52.53a57.76,57.76,0,0,1-57.92,0l-91.85-53a27.43,27.43,0,0,1-13.72-23.69Z"/><path id="Path_174-3" data-name="Path 174-3" class="cls-14" d="M240.36,204.16l16.13-.21,88.39-21.29a57.76,57.76,0,0,1,57.92,0L491.19,204l17.18,1.88v37.85a27.31,27.31,0,0,1-13.72,23.7l-90.8,52.52a57.76,57.76,0,0,1-57.92,0l-91.85-53a27.42,27.42,0,0,1-13.72-23.69Z"/><path id="Path_175-3-2" data-name="Path 175-3" class="cls-15" d="M254.08,181.09a27.32,27.32,0,0,0,0,47.39l91.85,53a57.76,57.76,0,0,0,57.92,0L494.66,229a27.33,27.33,0,0,0,0-47.39L402.8,128.56a57.76,57.76,0,0,0-57.92,0Z"/><path id="Path_176-3" data-name="Path 176-3" class="cls-16" d="M374.73,278.49a51.3,51.3,0,0,1-26.08-7l-82-47.29a25,25,0,0,1-12.47-21.7,25.34,25.34,0,0,1,12.47-21.71l81.06-46.86a52.29,52.29,0,0,1,52.26,0l81.9,47.39A25,25,0,0,1,494.34,203a25.3,25.3,0,0,1-12.46,21.7l-81.07,46.87a51.85,51.85,0,0,1-26.07,6.92ZM267,181.3l.32.42a24,24,0,0,0,0,41.52l81.9,47.39a51.35,51.35,0,0,0,51.21,0l81.07-46.87a24,24,0,0,0,0-41.52l-81.91-47.39a51.35,51.35,0,0,0-51.21,0l-81.06,46.87-.32-.42Z"/><path id="Path_177-3" data-name="Path 177-3" class="cls-17" d="M242.66,204.78a25.38,25.38,0,0,0,12.57,21.81l91.85,53a55.4,55.4,0,0,0,27.86,7.45,56.52,56.52,0,0,0,27.86-7.45l90.81-52.52a25.26,25.26,0,0,0,12.56-21.81c0-13.21-5.13-18.66-5.13-18.66a27.63,27.63,0,0,1,7.33,18.66A27.31,27.31,0,0,1,494.65,229l-90.8,52.53a58.11,58.11,0,0,1-58,0l-91.85-53A27.43,27.43,0,0,1,243.92,191a27.11,27.11,0,0,1,3.14-4.38C247.17,186.75,242.66,191.57,242.66,204.78Z"/><path id="Path_178-3" data-name="Path 178-3" class="cls-18" d="M494.65,246.41l-90.8,52.52a57.76,57.76,0,0,1-57.92,0l-91.85-53.05a27.21,27.21,0,0,1-13.61-22.12v1.57A27.31,27.31,0,0,0,254.18,249l91.85,53a57.76,57.76,0,0,0,57.92,0l90.81-52.53a27.43,27.43,0,0,0,13.72-23.69,7.5,7.5,0,0,0-.11-1.57,27.83,27.83,0,0,1-13.72,22.12Z"/><path id="Path_179-3" data-name="Path 179-3" class="cls-19" d="M374.11,249.1a36,36,0,0,1-17.81-4.72L303.61,214a17.79,17.79,0,0,1,0-30.82l53.21-30.72a35.77,35.77,0,0,1,35.51,0L445,182.84a17.79,17.79,0,0,1,0,30.82l-53.1,30.72a35.79,35.79,0,0,1-17.81,4.72Zm.63-97.61a31.58,31.58,0,0,0-15.82,4.2L305.7,186.4a14,14,0,0,0,0,24.12l52.7,30.4a31.58,31.58,0,0,0,31.63,0l53.21-30.72a14,14,0,0,0,0-24.11l-52.69-30.41a31.64,31.64,0,0,0-15.81-4.19Z"/><path id="Path_180-3" data-name="Path 180-3" class="cls-20" d="M444.19,184.41a15.84,15.84,0,0,1,0,27.47L391,242.6a33.79,33.79,0,0,1-33.62,0l-52.69-30.41a15.83,15.83,0,0,1,0-27.47L357.87,154a33.74,33.74,0,0,1,33.62,0l52.69,30.4Z"/><g id="Group_1-3" data-name="Group 1-3"><path id="Path_181-3" data-name="Path 181-3" class="cls-21" d="M434.86,190.28a9.19,9.19,0,0,1,0,15.94l-47.34,27.36a26.77,26.77,0,0,1-26.61,0L314,206.43a9.19,9.19,0,0,1,0-15.94l47.35-27.36a26.77,26.77,0,0,1,26.61,0Z"/><path id="Path_182-6" data-name="Path 182-6" class="cls-22" d="M434.86,190.28a9.19,9.19,0,0,1,0,15.94l-47.34,27.36a26.77,26.77,0,0,1-26.61,0L314,206.43a9.19,9.19,0,0,1,0-15.94l47.35-27.36a26.77,26.77,0,0,1,26.61,0Z"/></g></g><ellipse class="cls-23" cx="459.07" cy="494.92" rx="10.72" ry="7.42" transform="translate(-57.96 928.95) rotate(-87.16)"/><ellipse class="cls-24" cx="482.13" cy="483.52" rx="10.72" ry="7.42" transform="translate(-24.65 941.14) rotate(-87.16)"/><ellipse class="cls-24" cx="505.5" cy="471.13" rx="10.72" ry="7.42" transform="translate(9.94 952.7) rotate(-87.16)"/><path class="cls-25" d="M256.62,517.38l29.28,16.91v-5.47l-29.28-16.91Z"/><g id="magento-cloud-server-3-2" data-name="magento-cloud-server-3"><path id="Path_173-3-2" data-name="Path 173-3" class="cls-26" d="M240.36,169.91l16.13-.21,88.39-21.28a57.76,57.76,0,0,1,57.92,0l88.39,21.28,17.18,1.89v37.85a27.31,27.31,0,0,1-13.72,23.69l-90.8,52.53a57.76,57.76,0,0,1-57.92,0l-91.85-53.05a27.44,27.44,0,0,1-13.72-23.7Z"/><path id="Path_174-3-2" data-name="Path 174-3" class="cls-27" d="M240.36,164.35l16.13-.21,88.39-21.28a57.76,57.76,0,0,1,57.92,0l88.39,21.28L508.37,166v37.85a27.31,27.31,0,0,1-13.72,23.7l-90.8,52.52a57.76,57.76,0,0,1-57.92,0l-91.85-53.05a27.43,27.43,0,0,1-13.72-23.69Z"/><path id="Path_175-3-3" data-name="Path 175-3" class="cls-28" d="M254.08,141.29a27.33,27.33,0,0,0,0,47.39l91.85,53a57.76,57.76,0,0,0,57.92,0l90.81-52.53a27.32,27.32,0,0,0,0-47.39l-91.86-53a57.76,57.76,0,0,0-57.92,0Z"/><path id="Path_176-3-2" data-name="Path 176-3" class="cls-29" d="M374.73,238.69a51.31,51.31,0,0,1-26.08-7l-82-47.28a25,25,0,0,1-12.47-21.7A25.33,25.33,0,0,1,266.65,141l81.06-46.86a52.24,52.24,0,0,1,52.26,0l81.9,47.39a25,25,0,0,1,12.47,21.7,25.3,25.3,0,0,1-12.46,21.7l-81.07,46.87a52,52,0,0,1-26.07,6.92ZM267,141.5l.32.42a24,24,0,0,0,0,41.52l81.9,47.39a51.35,51.35,0,0,0,51.21,0L481.46,184a24,24,0,0,0,0-41.52L399.55,95.05a51.35,51.35,0,0,0-51.21,0l-81.06,46.86-.32-.42Z"/><path id="Path_177-3-2" data-name="Path 177-3" class="cls-30" d="M242.66,165a25.4,25.4,0,0,0,12.57,21.81l91.85,53.05a55.51,55.51,0,0,0,27.86,7.45,56.63,56.63,0,0,0,27.86-7.45l90.81-52.53a25.24,25.24,0,0,0,12.56-21.8c0-13.21-5.13-18.67-5.13-18.67a27.68,27.68,0,0,1,7.33,18.67,27.31,27.31,0,0,1-13.72,23.69l-90.8,52.53a58.16,58.16,0,0,1-58,0l-91.85-53a27.44,27.44,0,0,1-6.91-41.84C247.17,147,242.66,151.77,242.66,165Z"/><path id="Path_178-3-2" data-name="Path 178-3" class="cls-31" d="M494.65,206.61l-90.8,52.52a57.76,57.76,0,0,1-57.92,0l-91.85-53A27.23,27.23,0,0,1,240.47,184v1.57a27.31,27.31,0,0,0,13.71,23.7l91.85,53a57.76,57.76,0,0,0,57.92,0l90.81-52.53a27.44,27.44,0,0,0,13.72-23.69,7.59,7.59,0,0,0-.11-1.58,27.87,27.87,0,0,1-13.72,22.13Z"/><path id="Path_179-3-2" data-name="Path 179-3" class="cls-32" d="M374.11,209.3a36,36,0,0,1-17.81-4.72l-52.69-30.41a17.79,17.79,0,0,1,0-30.82l53.21-30.72a35.77,35.77,0,0,1,35.51,0L445,143a17.79,17.79,0,0,1,0,30.82l-53.1,30.72a35.67,35.67,0,0,1-17.81,4.71Zm.63-97.61a31.68,31.68,0,0,0-15.82,4.19L305.7,146.6a14,14,0,0,0,0,24.11l52.7,30.41a31.58,31.58,0,0,0,31.63,0l53.21-30.72a14,14,0,0,0,0-24.11l-52.69-30.41a31.64,31.64,0,0,0-15.81-4.19Z"/><path id="Path_180-3-2" data-name="Path 180-3" class="cls-33" d="M444.19,144.61a15.84,15.84,0,0,1,0,27.47L391,202.79a33.74,33.74,0,0,1-33.62,0l-52.69-30.4a15.83,15.83,0,0,1,0-27.47l53.21-30.72a33.79,33.79,0,0,1,33.62,0l52.69,30.41Z"/><g id="Group_1-3-2" data-name="Group 1-3"><path id="Path_181-3-2" data-name="Path 181-3" class="cls-34" d="M434.86,150.48a9.18,9.18,0,0,1,0,15.93l-47.34,27.37a26.77,26.77,0,0,1-26.61,0L314,166.63a9.19,9.19,0,0,1,0-15.94l47.35-27.36a26.77,26.77,0,0,1,26.61,0Z"/><path id="Path_182-6-2" data-name="Path 182-6" class="cls-35" d="M434.86,150.48a9.18,9.18,0,0,1,0,15.93l-47.34,27.37a26.77,26.77,0,0,1-26.61,0L314,166.63a9.19,9.19,0,0,1,0-15.94l47.35-27.36a26.77,26.77,0,0,1,26.61,0Z"/></g></g><path class="cls-25" d="M318,552.85l29.27,16.9v-5.46L318,547.38Z"/><path class="cls-36" d="M294.2,539.06l15.61,9v-5.47l-15.61-9Z"/><path class="cls-25" d="M219.47,481.47l66.43,37.35v-5.46L219.47,476Z"/><path class="cls-25" d="M318,537.39l29.27,16.9v-5.46L318,531.92Z"/><path class="cls-25" d="M256.62,605.84l29.28,16.91v-5.47l-29.28-16.91Z"/><path class="cls-25" d="M318,641.31l29.27,16.9v-5.46L318,635.84Z"/><path class="cls-25" d="M219.47,569.46,318,625v-5.46L219.47,564Z"/><path class="cls-36" d="M294.2,523.59l15.61,9v-5.47l-15.61-9Z"/><path id="Path_178-3-3" data-name="Path 178-3" class="cls-37" d="M537.66,677.17,414.22,747.24a79.8,79.8,0,0,1-78.74,0L210.62,676.47A35.86,35.86,0,0,1,192.52,647l0,2.12a35.92,35.92,0,0,0,18.28,31.58l124.87,70.78a79.78,79.78,0,0,0,78.73,0l123.45-70.07a36.5,36.5,0,0,0,18.65-31.61,11.29,11.29,0,0,0-.14-2.1,37.12,37.12,0,0,1-18.65,29.51Z"/><path id="Path_178-3-4" data-name="Path 178-3" class="cls-38" d="M537.66,659,414.22,729.05a79.8,79.8,0,0,1-78.74,0L210.62,658.28a35.86,35.86,0,0,1-18.1-29.51l0,2.12a35.92,35.92,0,0,0,18.28,31.58l124.87,70.78a79.78,79.78,0,0,0,78.73,0l123.45-70.07a36.5,36.5,0,0,0,18.65-31.61,11.29,11.29,0,0,0-.14-2.1A37.12,37.12,0,0,1,537.67,659Z"/><path id="Path_178-3-5" data-name="Path 178-3" class="cls-39" d="M537.66,640,414.22,710a79.8,79.8,0,0,1-78.74,0L210.62,639.25a35.86,35.86,0,0,1-18.1-29.51l0,2.12a35.91,35.91,0,0,0,18.28,31.58l124.87,70.78a79.78,79.78,0,0,0,78.73,0l123.45-70.07a36.5,36.5,0,0,0,18.65-31.61,11.29,11.29,0,0,0-.14-2.1A37.12,37.12,0,0,1,537.67,640Z"/><path id="Path_178-3-6" data-name="Path 178-3" class="cls-23" d="M537.66,620.07,414.22,690.15a79.85,79.85,0,0,1-78.74,0L210.62,619.38a35.87,35.87,0,0,1-18.1-29.52l0,2.13a35.94,35.94,0,0,0,18.28,31.58l124.87,70.78a79.83,79.83,0,0,0,78.73,0l123.45-70.08a36.48,36.48,0,0,0,18.65-31.61,11.41,11.41,0,0,0-.14-2.1,37.1,37.1,0,0,1-18.65,29.51Z"/><path id="Path_178-3-7" data-name="Path 178-3" class="cls-40" d="M537.66,601.55,414.22,671.62a79.85,79.85,0,0,1-78.74,0L210.62,600.85a35.87,35.87,0,0,1-18.1-29.52l0,2.13A35.94,35.94,0,0,0,210.76,605l124.87,70.78a79.83,79.83,0,0,0,78.73,0l123.45-70.08a36.48,36.48,0,0,0,18.65-31.61,11.41,11.41,0,0,0-.14-2.1,37.14,37.14,0,0,1-18.65,29.52Z"/><path class="cls-25" d="M527.47,590.61,498.2,607.52v-5.47l29.27-16.9Z"/><path class="cls-25" d="M466.07,626.08,436.79,643v-5.47l29.28-16.91Z"/><path class="cls-25" d="M489.89,612.29l-15.61,9v-5.47l15.61-9Z"/><path class="cls-36" d="M466.07,610.62l-29.28,16.9v-5.46l29.28-16.91Z"/><path class="cls-25" d="M515.71,582.42l-41.43,23.4v-5.47L515.71,577Z"/><g id="magento-cloud-server-3-3" data-name="magento-cloud-server-3"><path id="Path_173-3-3" data-name="Path 173-3" class="cls-41" d="M240.36,123.82l16.13-.21,88.39-21.29a57.81,57.81,0,0,1,57.92,0l88.39,21.29,17.18,1.89v37.85A27.31,27.31,0,0,1,494.65,187l-90.8,52.53a57.76,57.76,0,0,1-57.92,0l-91.85-53a27.44,27.44,0,0,1-13.72-23.7Z"/><path id="Path_174-3-3" data-name="Path 174-3" class="cls-42" d="M240.36,118.26l16.13-.21,88.39-21.28a57.76,57.76,0,0,1,57.92,0l88.39,21.28,17.18,1.89v37.85a27.31,27.31,0,0,1-13.72,23.69L403.85,234a57.76,57.76,0,0,1-57.92,0l-91.85-53a27.44,27.44,0,0,1-13.72-23.7Z"/><path id="Path_175-3-4" data-name="Path 175-3" class="cls-43" d="M254.08,95.2a27.33,27.33,0,0,0,0,47.39l91.85,53a57.76,57.76,0,0,0,57.92,0l90.81-52.53a27.32,27.32,0,0,0,0-47.39l-91.86-53a57.76,57.76,0,0,0-57.92,0Z"/><path id="Path_176-3-3" data-name="Path 176-3" class="cls-44" d="M374.73,192.6a51.31,51.31,0,0,1-26.08-7l-82-47.28a25,25,0,0,1-12.47-21.71,25.33,25.33,0,0,1,12.47-21.7L347.71,48A52.29,52.29,0,0,1,400,48l81.9,47.4a25,25,0,0,1,12.47,21.7,25.32,25.32,0,0,1-12.46,21.7l-81.07,46.87a52,52,0,0,1-26.07,6.92ZM267,95.41l.32.42a24,24,0,0,0,0,41.52l81.9,47.39a51.35,51.35,0,0,0,51.21,0l81.07-46.87a24,24,0,0,0,0-41.52L399.55,49a51.3,51.3,0,0,0-51.21,0L267.28,95.82,267,95.4Z"/><path id="Path_177-3-3" data-name="Path 177-3" class="cls-45" d="M242.66,118.89a25.4,25.4,0,0,0,12.57,21.81l91.85,53.05a55.39,55.39,0,0,0,27.86,7.44,56.51,56.51,0,0,0,27.86-7.44l90.81-52.53a25.24,25.24,0,0,0,12.56-21.81c0-13.21-5.13-18.66-5.13-18.66a27.68,27.68,0,0,1,7.33,18.67,27.31,27.31,0,0,1-13.72,23.69l-90.8,52.53a58.16,58.16,0,0,1-58,0l-91.85-53a27.44,27.44,0,0,1-6.91-41.84C247.17,100.86,242.66,105.68,242.66,118.89Z"/><path id="Path_178-3-8" data-name="Path 178-3" class="cls-46" d="M494.65,160.52,403.85,213a57.76,57.76,0,0,1-57.92,0l-91.85-53a27.23,27.23,0,0,1-13.61-22.12v1.57a27.29,27.29,0,0,0,13.71,23.69L346,216.19a57.76,57.76,0,0,0,57.92,0l90.81-52.53A27.45,27.45,0,0,0,508.48,140a7.59,7.59,0,0,0-.11-1.58,27.87,27.87,0,0,1-13.72,22.13Z"/><path id="Path_179-3-3" data-name="Path 179-3" class="cls-47" d="M374.11,163.2a35.85,35.85,0,0,1-17.81-4.71l-52.69-30.41a17.78,17.78,0,0,1,0-30.82l53.21-30.72a35.77,35.77,0,0,1,35.51,0L445,96.94a17.79,17.79,0,0,1,0,30.83l-53.1,30.71a35.58,35.58,0,0,1-17.81,4.72Zm.63-97.6a31.68,31.68,0,0,0-15.82,4.19L305.7,100.51a14,14,0,0,0,0,24.11L358.4,155A31.53,31.53,0,0,0,390,155l53.21-30.71a14,14,0,0,0,0-24.12l-52.69-30.4a31.54,31.54,0,0,0-15.81-4.19Z"/><path id="Path_180-3-3" data-name="Path 180-3" class="cls-48" d="M444.19,98.52a15.83,15.83,0,0,1,0,27.46L391,156.7a33.74,33.74,0,0,1-33.62,0l-52.69-30.4a15.83,15.83,0,0,1,0-27.47l53.21-30.72a33.79,33.79,0,0,1,33.62,0l52.69,30.41Z"/><g id="Group_1-3-3" data-name="Group 1-3"><path id="Path_181-3-3" data-name="Path 181-3" class="cls-49" d="M434.86,104.39a9.18,9.18,0,0,1,0,15.93l-47.34,27.37a26.77,26.77,0,0,1-26.61,0L314,120.53a9.19,9.19,0,0,1,0-15.93l47.35-27.36a26.77,26.77,0,0,1,26.61,0Z"/><path id="Path_182-6-3" data-name="Path 182-6" class="cls-50" d="M434.86,104.39a9.18,9.18,0,0,1,0,15.93l-47.34,27.37a26.77,26.77,0,0,1-26.61,0L314,120.53a9.19,9.19,0,0,1,0-15.93l47.35-27.36a26.77,26.77,0,0,1,26.61,0Z"/></g></g></svg>