<svg width="70" height="70" viewBox="0 0 70 70" fill="none" xmlns="http://www.w3.org/2000/svg">
<path d="M59.32 13.05H10.77C5.73869 13.05 1.66 17.1287 1.66 22.16V47.83C1.66 52.8613 5.73869 56.94 10.77 56.94H59.32C64.3513 56.94 68.43 52.8613 68.43 47.83V22.16C68.43 17.1287 64.3513 13.05 59.32 13.05Z" fill="#064477"/>
<path d="M27.72 31.05C27.8063 30.8903 27.8511 30.7115 27.85 30.53C27.841 30.1306 27.6964 29.7463 27.44 29.44C27.3466 29.2897 27.2192 29.1634 27.0681 29.0714C26.917 28.9793 26.7464 28.924 26.57 28.91C26.3968 28.9149 26.2265 28.9558 26.07 29.03C25.8743 29.1278 25.6871 29.2415 25.51 29.37L18 34.4C17.8105 34.531 17.6643 34.7155 17.58 34.93C17.4829 35.1538 17.4352 35.396 17.44 35.64C17.4371 35.8773 17.4848 36.1125 17.58 36.33C17.6664 36.5487 17.8118 36.7391 18 36.88L25.51 42C25.72 42.15 25.93 42.28 26.12 42.39C26.2232 42.4697 26.343 42.5252 26.4705 42.5524C26.5981 42.5796 26.7301 42.5777 26.8569 42.547C26.9836 42.5163 27.1018 42.4575 27.2027 42.3749C27.3037 42.2923 27.3848 42.1881 27.44 42.07C27.683 41.7653 27.82 41.3896 27.83 41C27.8298 40.8005 27.7889 40.6032 27.71 40.42C27.6322 40.2265 27.4958 40.0621 27.32 39.95L21.18 35.69L27.34 31.55C27.5075 31.4187 27.6383 31.2465 27.72 31.05Z" fill="white"/>
<path d="M40.31 23C40.0982 23.01 39.8951 23.087 39.73 23.22C39.5307 23.3714 39.3782 23.5759 39.29 23.81L29.87 46.14C29.7759 46.3437 29.7281 46.5657 29.73 46.79C29.7211 46.9774 29.7542 47.1645 29.8269 47.3375C29.8995 47.5105 30.0099 47.6651 30.15 47.79C30.3625 48.0127 30.6525 48.1451 30.96 48.16C31.1741 48.155 31.3809 48.0814 31.55 47.95C31.738 47.7901 31.8853 47.5879 31.98 47.36L41.37 25C41.4628 24.7959 41.5106 24.5742 41.51 24.35C41.5221 24.164 41.4924 23.9777 41.4232 23.8047C41.354 23.6317 41.247 23.4763 41.11 23.35C40.8973 23.1362 40.6114 23.0111 40.31 23Z" fill="white"/>
<path d="M53.65 34.82C53.5616 34.6107 53.4161 34.4305 53.23 34.3L45.69 29.16L45.07 28.76C44.9081 28.6568 44.7218 28.5981 44.53 28.59C44.3728 28.6117 44.2223 28.6677 44.0892 28.7541C43.9562 28.8406 43.8437 28.9552 43.76 29.09C43.5022 29.4135 43.3644 29.8164 43.37 30.23C43.3717 30.4284 43.409 30.6248 43.48 30.81C43.5605 31.0049 43.7005 31.1695 43.88 31.28L50 35.54L43.84 39.68C43.682 39.7952 43.5492 39.9415 43.45 40.11C43.3682 40.2781 43.327 40.4631 43.33 40.65C43.3354 41.0483 43.4765 41.4328 43.73 41.74C43.8239 41.889 43.9517 42.0137 44.1028 42.1041C44.254 42.1944 44.4243 42.2479 44.6 42.26C44.7782 42.2598 44.9535 42.2151 45.11 42.13L45.67 41.81L53.21 36.81C53.3961 36.6796 53.5416 36.4994 53.63 36.29C53.8162 35.8315 53.8162 35.3185 53.63 34.86L53.65 34.82Z" fill="white"/>
</svg>
