<svg width="70" height="70" viewBox="0 0 70 70" fill="none" xmlns="http://www.w3.org/2000/svg">
<path d="M63.2 27.37C65.1054 27.37 66.65 25.8254 66.65 23.92C66.65 22.0146 65.1054 20.47 63.2 20.47C61.2946 20.47 59.75 22.0146 59.75 23.92C59.75 25.8254 61.2946 27.37 63.2 27.37Z" fill="#C5E4FE"/>
<path d="M9.76 21.9601C11.6654 21.9601 13.21 20.4154 13.21 18.5101C13.21 16.6047 11.6654 15.0601 9.76 15.0601C7.85462 15.0601 6.31 16.6047 6.31 18.5101C6.31 20.4154 7.85462 21.9601 9.76 21.9601Z" fill="#C5E4FE"/>
<path d="M6.80001 43.29C8.70539 43.29 10.25 41.7454 10.25 39.84C10.25 37.9346 8.70539 36.39 6.80001 36.39C4.89462 36.39 3.35001 37.9346 3.35001 39.84C3.35001 41.7454 4.89462 43.29 6.80001 43.29Z" fill="#063B67"/>
<path d="M42.67 65.58C44.0176 65.58 45.11 64.4875 45.11 63.1399C45.11 61.7924 44.0176 60.7 42.67 60.7C41.3224 60.7 40.23 61.7924 40.23 63.1399C40.23 64.4875 41.3224 65.58 42.67 65.58Z" fill="#063B67"/>
<path d="M55.84 13.71C56.6795 13.71 57.36 13.0295 57.36 12.19C57.36 11.3506 56.6795 10.67 55.84 10.67C55.0005 10.67 54.32 11.3506 54.32 12.19C54.32 13.0295 55.0005 13.71 55.84 13.71Z" fill="#063B67"/>
<path d="M24.67 66.3C26.5754 66.3 28.12 64.7554 28.12 62.85C28.12 60.9446 26.5754 59.4 24.67 59.4C22.7646 59.4 21.22 60.9446 21.22 62.85C21.22 64.7554 22.7646 66.3 24.67 66.3Z" fill="#C5E4FE"/>
<path d="M56.84 30.18L55.84 26.56C55.7 26.0596 55.3844 25.6264 54.9509 25.3399C54.5174 25.0533 53.9952 24.9327 53.48 25L51.33 25.3C50.4325 23.7618 49.3101 22.3663 48 21.16L48.84 18.9C49.0069 18.4683 49.014 17.9912 48.8599 17.5547C48.7059 17.1183 48.4009 16.7513 48 16.52L44.44 14.52C44.0291 14.3043 43.5559 14.2383 43.1017 14.3331C42.6474 14.428 42.2402 14.6779 41.95 15.04L40.45 17C38.7342 16.5323 36.957 16.33 35.18 16.4L34.18 14.11C33.9906 13.7078 33.6641 13.3863 33.2591 13.203C32.8541 13.0198 32.3971 12.9868 31.97 13.11L27.97 14.27C27.5469 14.3922 27.1805 14.6598 26.9354 15.0257C26.6902 15.3916 26.5821 15.8322 26.63 16.27L26.94 18.77C25.4114 19.6611 24.0203 20.7693 22.81 22.06L20.81 21.3C20.3209 21.1145 19.7809 21.1138 19.2912 21.2979C18.8016 21.4819 18.3958 21.8382 18.15 22.3L16.36 25.5C16.1083 25.9604 16.0294 26.4956 16.1376 27.009C16.2458 27.5225 16.5339 27.9803 16.95 28.3L18.65 29.63C18.1877 31.3471 17.9788 33.1225 18.03 34.9L16 35.79C15.5232 36.0034 15.1399 36.3824 14.9211 36.8568C14.7023 37.3312 14.6628 37.8687 14.81 38.37L15.81 41.89C15.9543 42.3939 16.2753 42.829 16.7142 43.1155C17.1532 43.402 17.6806 43.5207 18.2 43.45L20.31 43.2C21.2005 44.7466 22.3123 46.1548 23.61 47.38L22.85 49.38C22.6667 49.8693 22.6671 50.4085 22.851 50.8976C23.0348 51.3867 23.3898 51.7926 23.85 52.04L27 53.86C27.4572 54.1142 27.9907 54.1954 28.5029 54.089C29.0151 53.9825 29.4719 53.6954 29.79 53.28L31.13 51.57C32.8587 52.0426 34.6489 52.2517 36.44 52.19L37.33 54.19C37.5029 54.5746 37.7842 54.9005 38.1394 55.1278C38.4946 55.3551 38.9083 55.474 39.33 55.47C39.5333 55.4695 39.7355 55.4392 39.93 55.38L43.46 54.38C43.9664 54.2253 44.4005 53.8938 44.6831 53.446C44.9658 52.9982 45.0782 52.4637 45 51.94L44.74 49.8C46.3153 48.9004 47.7505 47.7751 49 46.46L50.94 47.18C51.4306 47.366 51.9721 47.3671 52.4634 47.1831C52.9548 46.9991 53.3623 46.6425 53.61 46.18L55.36 43C55.611 42.5411 55.6895 42.0075 55.5813 41.4958C55.4731 40.9841 55.1853 40.5279 54.77 40.21L53.12 38.91C53.5801 37.1757 53.7823 35.3832 53.72 33.59L55.72 32.69C56.1772 32.476 56.542 32.1046 56.7477 31.6437C56.9533 31.1827 56.9861 30.6631 56.84 30.18ZM40.54 44.08C39.2492 44.744 37.8386 45.1427 36.3913 45.2527C34.9439 45.3627 33.4892 45.1816 32.113 44.7203C30.7367 44.259 29.4668 43.5267 28.3781 42.5667C27.2895 41.6066 26.4041 40.4383 25.7743 39.1305C25.1445 37.8228 24.7829 36.4022 24.711 34.9524C24.6391 33.5027 24.8583 32.0533 25.3556 30.6896C25.8529 29.326 26.6183 28.0757 27.6066 27.0127C28.5949 25.9496 29.7862 25.0952 31.11 24.5C32.5884 23.7987 34.2037 23.4333 35.84 23.43C38.3013 23.4301 40.6895 24.2663 42.6133 25.8015C44.5371 27.3368 45.8824 29.4799 46.4286 31.8799C46.9748 34.2798 46.6896 36.794 45.6197 39.0106C44.5499 41.2272 42.7588 43.0147 40.54 44.08Z" fill="#063B67"/>
<path d="M28.05 60.58C27.752 60.1359 27.3695 59.755 26.9242 59.4589C26.479 59.1628 25.9797 58.9573 25.455 58.8542C24.9303 58.7511 24.3904 58.7524 23.8662 58.8581C23.342 58.9638 22.8438 59.1717 22.4 59.47C22.0773 59.6915 21.7907 59.9613 21.55 60.27C18.3812 58.4755 15.5969 56.0744 13.3561 53.2039C11.1152 50.3333 9.46172 47.0495 8.48999 43.54C8.6915 43.4527 8.88549 43.349 9.06999 43.23C9.89439 42.684 10.4937 41.8586 10.7576 40.9057C11.0215 39.9528 10.9321 38.9366 10.5059 38.0444C10.0797 37.1522 9.34547 36.444 8.43842 36.0504C7.53138 35.6568 6.51264 35.6042 5.5699 35.9024C4.62716 36.2006 3.82393 36.8294 3.30819 37.673C2.79245 38.5166 2.59895 39.5182 2.76334 40.4932C2.92773 41.4682 3.43893 42.351 4.20276 42.9788C4.96659 43.6067 5.9316 43.9374 6.91999 43.91C7.93769 47.6438 9.68696 51.1382 12.0662 54.1904C14.4455 57.2427 17.4074 59.7918 20.78 61.69C20.5827 62.3476 20.5549 63.0446 20.6994 63.7158C20.8438 64.3871 21.1558 65.0109 21.6062 65.5292C22.0566 66.0475 22.6308 66.4434 23.2753 66.6801C23.9199 66.9168 24.6138 66.9866 25.2926 66.883C25.9714 66.7793 26.6129 66.5056 27.1575 66.0874C27.702 65.6691 28.1319 65.1199 28.4071 64.4908C28.6823 63.8618 28.7939 63.1733 28.7314 62.4895C28.669 61.8057 28.4346 61.1488 28.05 60.58ZM4.54999 41.36C4.25125 40.9149 4.0912 40.3913 4.09007 39.8553C4.08894 39.3193 4.2468 38.795 4.54366 38.3487C4.84053 37.9024 5.26307 37.5541 5.75786 37.348C6.25265 37.1419 6.79745 37.0871 7.32338 37.1906C7.8493 37.2941 8.33272 37.5512 8.71249 37.9295C9.09226 38.3078 9.35134 38.7901 9.45694 39.3156C9.56255 39.8412 9.50995 40.3862 9.30579 40.8818C9.10164 41.3774 8.75509 41.8013 8.30999 42.1C7.71323 42.5004 6.98187 42.6474 6.27675 42.5086C5.57164 42.3698 4.95051 41.9566 4.54999 41.36ZM26.18 65.11C25.7348 65.4075 25.2115 65.5664 24.6761 65.5668C24.1407 65.5672 23.6171 65.4089 23.1716 65.112C22.726 64.8151 22.3784 64.3929 22.1725 63.8986C21.9667 63.4044 21.9119 62.8602 22.015 62.3348C22.1181 61.8094 22.3746 61.3263 22.752 60.9466C23.1294 60.5668 23.6108 60.3073 24.1356 60.2009C24.6603 60.0944 25.2048 60.1458 25.7004 60.3486C26.1959 60.5513 26.6203 60.8963 26.92 61.34C27.3209 61.9383 27.4682 62.6712 27.3294 63.378C27.1907 64.0847 26.7773 64.7076 26.18 65.11Z" fill="#063B67"/>
<path d="M67.12 22.8C66.9063 22.0593 66.487 21.3942 65.9109 20.882C65.3347 20.3697 64.6252 20.0312 63.8645 19.9056C63.1038 19.78 62.3232 19.8725 61.6129 20.1724C60.9026 20.4723 60.2919 20.9673 59.8514 21.6C59.4109 22.2327 59.1587 22.9773 59.124 23.7475C59.0894 24.5177 59.2736 25.282 59.6554 25.9517C60.0373 26.6215 60.6011 27.1694 61.2815 27.5319C61.9619 27.8944 62.7311 28.0567 63.5 28C65.3041 34.9214 64.381 42.2713 60.9214 48.5316C57.4619 54.792 51.7301 59.4845 44.91 61.64C44.5488 61.1022 44.0068 60.7115 43.3824 60.5389C42.7579 60.3663 42.0923 60.4231 41.5061 60.699C40.9199 60.9749 40.452 61.4517 40.1871 62.043C39.9222 62.6343 39.878 63.3009 40.0623 63.922C40.2466 64.5431 40.6474 65.0776 41.1919 65.4286C41.7364 65.7797 42.3887 65.924 43.0305 65.8355C43.6723 65.747 44.2612 65.4315 44.6904 64.9462C45.1195 64.4609 45.3607 63.8378 45.37 63.19C52.5987 60.9114 58.6745 55.9404 62.3397 49.3062C66.0049 42.672 66.9789 34.8825 65.06 27.55C65.8999 27.1189 66.5643 26.4098 66.94 25.5436C67.3156 24.6775 67.3792 23.7078 67.12 22.8ZM43.12 64.88C42.7794 64.9759 42.4182 64.9693 42.0813 64.8611C41.7445 64.7528 41.447 64.5477 41.2261 64.2713C41.0052 63.995 40.8706 63.6596 40.8392 63.3072C40.8078 62.9548 40.8809 62.601 41.0495 62.2899C41.2181 61.9788 41.4745 61.7243 41.7869 61.5582C42.0993 61.392 42.4537 61.3217 42.8059 61.3558C43.158 61.39 43.4923 61.5272 43.7669 61.7502C44.0416 61.9733 44.2444 62.2724 44.35 62.61V62.69C44.4726 63.1381 44.4171 63.6162 44.1954 64.0243C43.9736 64.4325 43.6026 64.7391 43.16 64.88H43.12ZM63.94 26.53C63.4244 26.6756 62.8773 26.6651 62.3676 26.4999C61.858 26.3346 61.4088 26.022 61.0768 25.6016C60.7448 25.1811 60.5448 24.6717 60.5022 24.1377C60.4595 23.6036 60.5761 23.0689 60.8373 22.6011C61.0984 22.1333 61.4923 21.7534 61.9693 21.5094C62.4462 21.2654 62.9848 21.1682 63.5169 21.2302C64.0491 21.2921 64.5509 21.5104 64.9591 21.8575C65.3672 22.2045 65.6633 22.6648 65.81 23.18C65.9076 23.5228 65.9366 23.8814 65.8954 24.2354C65.8542 24.5894 65.7436 24.9317 65.5699 25.2429C65.3962 25.5541 65.1628 25.8279 64.8831 26.0488C64.6035 26.2696 64.283 26.4332 63.94 26.53Z" fill="#063B67"/>
<path d="M57.79 11.29C57.5602 10.7916 57.1477 10.4006 56.6377 10.1977C56.1278 9.99487 55.5594 9.99568 55.05 10.2C48.8318 5.13434 40.8815 2.69678 32.8926 3.40658C24.9037 4.11637 17.5077 7.91741 12.28 14C11.2145 13.4068 9.97229 13.2134 8.7769 13.4546C7.58151 13.6958 6.51147 14.3558 5.75934 15.3157C5.00722 16.2756 4.62241 17.4724 4.67417 18.6908C4.72594 19.9092 5.21087 21.0691 6.0417 21.9617C6.87254 22.8544 7.9947 23.4212 9.20624 23.5601C10.4178 23.6991 11.6391 23.401 12.6505 22.7196C13.6618 22.0382 14.3967 21.0182 14.7229 19.8432C15.0492 18.6681 14.9453 17.4152 14.43 16.31C14.1979 15.8389 13.898 15.4042 13.54 15.02C18.4699 9.29128 25.4322 5.70129 32.9582 5.00727C40.4842 4.31325 47.9856 6.56946 53.88 11.3C53.754 11.5762 53.6887 11.8763 53.6887 12.18C53.6887 12.4836 53.754 12.7837 53.88 13.06C54.1252 13.5688 54.5607 13.9607 55.0925 14.151C55.6243 14.3413 56.2096 14.3146 56.722 14.0769C57.2343 13.8391 57.6325 13.4093 57.8304 12.8803C58.0284 12.3513 58.0103 11.7657 57.78 11.25L57.79 11.29ZM11.2 21.61C10.586 21.8936 9.90166 21.9889 9.23353 21.8836C8.56541 21.7783 7.9435 21.4773 7.44643 21.0187C6.94936 20.56 6.59946 19.9642 6.44097 19.3067C6.28248 18.6491 6.32252 17.9594 6.55601 17.3246C6.78951 16.6898 7.20599 16.1385 7.75279 15.7404C8.29958 15.3423 8.95214 15.1153 9.62796 15.088C10.3038 15.0608 10.9725 15.2345 11.5496 15.5873C12.1266 15.9401 12.5862 16.4561 12.87 17.07C13.0599 17.4775 13.1673 17.9186 13.1861 18.3678C13.2048 18.817 13.1346 19.2654 12.9794 19.6874C12.8242 20.1093 12.5871 20.4964 12.2817 20.8264C11.9763 21.1563 11.6087 21.4226 11.2 21.61ZM56.44 13.49C56.1832 13.6081 55.8971 13.6475 55.618 13.6031C55.3388 13.5588 55.079 13.4327 54.8715 13.2408C54.664 13.0488 54.5179 12.7997 54.4519 12.5249C54.3859 12.25 54.4028 11.9618 54.5005 11.6965C54.5983 11.4313 54.7724 11.2009 55.001 11.0346C55.2295 10.8683 55.5023 10.7734 55.7847 10.762C56.0672 10.7506 56.3466 10.8232 56.5879 10.9706C56.8291 11.1179 57.0212 11.3335 57.14 11.59C57.2969 11.9351 57.3114 12.3281 57.1803 12.6838C57.0493 13.0395 56.7833 13.3292 56.44 13.49Z" fill="#063B67"/>
</svg>
