<svg id="Layer_1" data-name="Layer 1" xmlns="http://www.w3.org/2000/svg" viewBox="0 0 81 81"><defs><style>.cls-1{fill:#063b67;}.cls-2{fill:#2265a7;}</style></defs><path class="cls-1" d="M33.66,37.48v0a8.53,8.53,0,0,0-2.86,2.57,8.64,8.64,0,0,0,1.72,11.6,8.52,8.52,0,0,0,12-1.49,8.4,8.4,0,0,0,1.6-3.62h0l3.07-14.49a1,1,0,0,0-1.44-1.14Zm3.86,13A5.59,5.59,0,1,1,43,46.94,5.6,5.6,0,0,1,37.52,50.52Z"/><path class="cls-2" d="M18.48,29.57l-4.69-2.42a30,30,0,0,0-2.21,9.42l3.65.4A26.09,26.09,0,0,1,18.48,29.57Z"/><path class="cls-2" d="M27.27,21.56l-3.44-7.25a30,30,0,0,0-8.59,9.81l5.27,2.71A21.24,21.24,0,0,1,27.27,21.56Z"/><path class="cls-2" d="M30.39,20.3a19.36,19.36,0,0,1,7.89-.82L40.34,8.82c-.83,0-1.67.07-2.5.16a28.49,28.49,0,0,0-11.16,3.49Z"/><path class="cls-2" d="M58.12,14A33.76,33.76,0,0,0,43.73,9L41.58,20.13a19.48,19.48,0,0,1,4.62,2,22.67,22.67,0,0,1,3.28,2.41Z"/><path class="cls-2" d="M11.55,40A27.48,27.48,0,0,0,17,55.12a25,25,0,0,1-2.44-14.84Z"/><path class="cls-1" d="M60.93,15.83,51.86,27a31,31,0,0,1,5.28,8.56l13.62-8.21C68.21,21.83,65.22,19,60.93,15.83Z"/></svg>