<svg width="70" height="70" viewBox="0 0 70 70" fill="none" xmlns="http://www.w3.org/2000/svg">
<path d="M34.91 38.26L19.66 29.84V11.72L34.91 20.14V38.26Z" fill="#C5E5FF"/>
<path d="M19.66 11.72L34.91 3.29999L50.16 11.72L34.91 20.14L19.66 11.72Z" fill="#074E8A"/>
<path d="M34.91 20.14V38.26L40 35.46V27.17C40 26.926 40.0969 26.692 40.2695 26.5194C40.442 26.3469 40.676 26.25 40.92 26.25C41.164 26.25 41.398 26.3469 41.5705 26.5194C41.7431 26.692 41.84 26.926 41.84 27.17V34.45L50.18 29.84V11.72L34.91 20.14ZM40.91 24.14C40.736 24.14 40.5658 24.0884 40.4211 23.9917C40.2764 23.895 40.1636 23.7575 40.097 23.5967C40.0304 23.4359 40.013 23.259 40.0469 23.0883C40.0809 22.9176 40.1647 22.7608 40.2878 22.6377C40.4108 22.5146 40.5676 22.4308 40.7383 22.3969C40.909 22.3629 41.086 22.3804 41.2468 22.447C41.4076 22.5136 41.545 22.6264 41.6417 22.7711C41.7384 22.9158 41.79 23.0859 41.79 23.26C41.7954 23.3772 41.7772 23.4943 41.7367 23.6044C41.6961 23.7145 41.6339 23.8154 41.5538 23.9011C41.4737 23.9868 41.3772 24.0557 41.2701 24.1036C41.1629 24.1514 41.0473 24.1774 40.93 24.18L40.91 24.14Z" fill="#063B67"/>
<path d="M17.79 66.73L33 58.31V40.19L17.79 48.61V66.73Z" fill="#063B67"/>
<path d="M2.55 40.19L17.79 31.76L33 40.19L17.79 48.61L2.55 40.19Z" fill="#074E8A"/>
<path d="M2.55 40.19V58.31L12.42 63.76V56C12.42 55.756 12.5169 55.522 12.6895 55.3495C12.862 55.1769 13.096 55.08 13.34 55.08C13.584 55.08 13.818 55.1769 13.9905 55.3495C14.1631 55.522 14.26 55.756 14.26 56V64.82L17.79 66.82V48.61L2.55 40.19ZM13.34 53.06C13.16 53.06 12.9841 53.0066 12.8344 52.9066C12.6848 52.8067 12.5681 52.6645 12.4993 52.4982C12.4304 52.332 12.4124 52.149 12.4475 51.9725C12.4826 51.796 12.5693 51.6338 12.6965 51.5065C12.8238 51.3793 12.9859 51.2926 13.1625 51.2575C13.339 51.2224 13.522 51.2404 13.6882 51.3093C13.8545 51.3781 13.9966 51.4948 14.0966 51.6444C14.1966 51.7941 14.25 51.97 14.25 52.15C14.25 52.3914 14.1541 52.6228 13.9835 52.7935C13.8128 52.9641 13.5814 53.06 13.34 53.06Z" fill="#C5E5FF"/>
<path d="M52.21 66.73L37 58.31V40.19L52.25 48.61L52.21 66.73Z" fill="#C5E5FF"/>
<path d="M52.21 66.73L67.45 58.31V40.19L52.21 48.61V66.73Z" fill="#063B67"/>
<path d="M37 40.19L52.25 31.76L67.49 40.19L52.21 48.61L37 40.19Z" fill="#074E8A"/>
</svg>
