<svg id="Layer_1" data-name="Layer 1" xmlns="http://www.w3.org/2000/svg" viewBox="0 0 81 81"><defs><style>.cls-1{fill:#c5e4fe;}.cls-2{fill:#063b67;}.cls-3{fill:#2265a7;}.cls-4,.cls-5{fill:none;stroke:#c5e5ff;stroke-linecap:round;stroke-linejoin:round;}.cls-4{stroke-width:2px;}</style></defs><circle class="cls-1" cx="56.58" cy="61.34" r="3.88"/><polygon class="cls-1" points="55.87 54.49 55.87 36.56 52.56 36.56 52.56 52.98 52.2 52.98 50.17 52.98 48.73 52.98 57.91 62.13 57.91 62.13 57.91 62.13 57.95 62.09 65.57 54.49 55.87 54.49"/><path class="cls-1" d="M35.3,25.23H42L32.75,16h0l-.09.08L13,35.7h7.44V68.45H34.39V49.24a1.12,1.12,0,0,1,.91-1.09Z"/><path class="cls-2" d="M34.12,10.8h0l-.09.09-18,18a.92.92,0,0,0,.65,1.57h5.22V65.75H35.76V44A1.14,1.14,0,0,1,38,44V65.75h7.58V30.47h6a.92.92,0,0,0,.65-1.57ZM36.9,39.93a1,1,0,1,1,1-1A1,1,0,0,1,36.9,39.93Z"/><circle class="cls-1" cx="27.51" cy="28.2" r="2.94"/><circle class="cls-1" cx="62.31" cy="28.37" r="3.11"/><circle class="cls-1" cx="22.32" cy="63.54" r="6.66"/><path class="cls-3" d="M68.2,51.94h-2V35.51H60.3v9.67a1.14,1.14,0,1,1-2.27,0V35.51H55.11V51.94H51.28l9.18,9.15h0l0,0,9.14-9.11Zm-9-2.59a1,1,0,1,1,1.05-1.05A1,1,0,0,1,59.16,49.35Z"/><line class="cls-4" x1="48.73" y1="33.19" x2="48.73" y2="43.36"/><line class="cls-5" x1="68.44" y1="31.47" x2="68.44" y2="41.64"/><line class="cls-5" x1="18.41" y1="39.4" x2="18.41" y2="49.57"/></svg>