<svg width="70" height="70" viewBox="0 0 70 70" fill="none" xmlns="http://www.w3.org/2000/svg">
<path d="M31.18 54.3199C20.07 53.7399 11.49 49.9999 11.49 45.4399V54.3699C11.49 59.3699 21.64 63.3699 34.15 63.3699C35.19 63.3699 36.21 63.3399 37.21 63.2799C34.2827 61.0251 32.1666 57.8808 31.18 54.3199Z" fill="#064477"/>
<path d="M34.15 24.68C46.6703 24.68 56.82 20.6685 56.82 15.72C56.82 10.7715 46.6703 6.76001 34.15 6.76001C21.6297 6.76001 11.48 10.7715 11.48 15.72C11.48 20.6685 21.6297 24.68 34.15 24.68Z" fill="#064477"/>
<path d="M51 33C51.8962 33.1755 52.776 33.4264 53.63 33.75C55.69 32.4 56.87 30.82 56.87 29.13V20.21C56.87 22.52 54.65 24.63 51 26.21V33Z" fill="#064477"/>
<path d="M45.57 36.11L44.8 36.68L45.17 36.96L45.57 36.87V36.11Z" fill="#064477"/>
<path d="M38.25 38C37.9485 37.3412 37.8833 36.5985 38.0654 35.8972C38.2476 35.1959 38.6659 34.5788 39.25 34.15L48.69 27.15C43.9757 28.6042 39.0631 29.3128 34.13 29.25C21.62 29.25 11.47 25.25 11.47 20.25V29.17C11.47 34.12 21.62 38.17 34.13 38.17C35.55 38.09 36.92 38 38.25 38ZM17.74 32.69C17.02 32.69 16.43 31.83 16.43 30.77C16.43 29.71 17.02 28.85 17.74 28.85C18.46 28.85 19.05 29.71 19.05 30.77C19.05 31.83 18.46 32.69 17.74 32.69ZM22.24 34.06C21.51 34.06 20.93 33.2 20.93 32.14C20.93 31.08 21.51 30.22 22.24 30.22C22.97 30.22 23.55 31.08 23.55 32.14C23.55 33.2 23 34.06 22.24 34.06ZM27.1 34.61C26.37 34.61 25.79 33.75 25.79 32.69C25.79 31.63 26.37 30.77 27.1 30.77C27.83 30.77 28.4 31.63 28.4 32.69C28.4 33.75 27.82 34.61 27.1 34.61Z" fill="#064477"/>
<path d="M40.23 41.3599C38.2108 41.5795 36.1811 41.6896 34.15 41.6899C21.64 41.6899 11.49 37.6899 11.49 32.6899V41.6199C11.49 46.0799 19.76 49.7899 30.57 50.4599C30.57 50.2099 30.57 49.9499 30.57 49.6899C30.5591 48.9495 30.7539 48.2205 31.1328 47.5843C31.5117 46.948 32.0598 46.4295 32.7161 46.0863C33.3723 45.7432 34.1109 45.5889 34.8496 45.6408C35.5883 45.6926 36.2981 45.9485 36.9 46.3799C37.5371 44.437 38.6877 42.7025 40.23 41.3599Z" fill="#064477"/>
<path d="M48.26 35.37V30.76L40.88 36.25C40.8118 36.3002 40.7563 36.3657 40.7181 36.4413C40.6799 36.5168 40.66 36.6003 40.66 36.685C40.66 36.7697 40.6799 36.8532 40.7181 36.9288C40.7563 37.0043 40.8118 37.0698 40.88 37.12L48.26 42.61V38.06C50.5404 38.189 52.733 38.9831 54.5671 40.3443C56.4011 41.7056 57.7962 43.5743 58.58 45.7196C59.3639 47.8649 59.5021 50.1928 58.9776 52.4157C58.4531 54.6387 57.2889 56.6594 55.6288 58.228C53.9688 59.7967 51.8855 60.8447 49.6364 61.2426C47.3873 61.6405 45.0709 61.3708 42.9734 60.4669C40.8759 59.5629 39.0891 58.0643 37.8339 56.1562C36.5786 54.2481 35.9097 52.014 35.91 49.73C35.9261 49.5436 35.9033 49.3559 35.843 49.1789C35.7827 49.0018 35.6862 48.8391 35.5598 48.7013C35.4333 48.5634 35.2796 48.4534 35.1083 48.3781C34.9371 48.3028 34.7521 48.2639 34.565 48.2639C34.3779 48.2639 34.1929 48.3028 34.0217 48.3781C33.8504 48.4534 33.6967 48.5634 33.5702 48.7013C33.4437 48.8391 33.3473 49.0018 33.287 49.1789C33.2267 49.3559 33.2039 49.5436 33.22 49.73C33.2167 52.5508 34.0424 55.3104 35.5947 57.6657C37.147 60.021 39.3573 61.8682 41.9508 62.9775C44.5443 64.0869 47.4067 64.4095 50.1821 63.9053C52.9575 63.4011 55.5235 62.0924 57.5611 60.1417C59.5987 58.191 61.0181 55.6845 61.6427 52.9337C62.2674 50.1829 62.0698 47.3092 61.0745 44.6698C60.0792 42.0304 58.3301 39.7417 56.0447 38.0883C53.7593 36.4348 51.0383 35.4896 48.22 35.37H48.26Z" fill="#C5E4FE"/>
</svg>
