<svg width="409" height="365" viewBox="0 0 409 365" fill="none" xmlns="http://www.w3.org/2000/svg">
<g clip-path="url(#clip0_1400_15280)">
<path d="M268.98 320.519L262.639 314.757C262.585 314.819 260.806 316.76 257.516 319.682L254.206 317.138C254.206 317.138 224.479 330.362 221.873 333.929C220.936 335.225 221.805 338.044 223.385 341.076C221.333 341.92 219.281 342.729 217.092 343.477C180.34 356.187 143.035 348.175 106.188 319.682C108.568 312.782 105.265 302.631 97.3781 294.564C87.6106 284.57 78.2261 278.041 68.1508 287.808C59.1493 296.533 64.5187 307.254 74.3068 317.247C82.6995 325.842 93.5409 329.271 100.477 326.089C129.335 348.511 156.038 356.667 178.733 357.641C192.719 358.236 206.692 356.179 219.917 351.577C222.81 350.576 225.587 349.519 228.255 348.347C230.136 350.651 231.859 352.208 232.557 351.968C234.609 351.234 262.311 333.449 265.498 325.787L264.472 324.998C267.208 322.453 268.761 320.752 268.98 320.519Z" fill="#113147"/>
<path d="M270.061 64.6396C270.061 64.6396 300.882 0.513612 191.107 6.30271C191.107 6.30271 210.683 3.27784 212.092 2.87315C213.501 2.46846 253.932 2.78398 259.561 5.09551C265.191 7.40703 293.556 30.2753 291.935 35.9616C290.314 41.6478 291.395 47.917 288.433 53.418C276.47 75.5799 285.697 95.2998 285.697 95.2998" fill="#64B0ED"/>
<path d="M228.371 240.391C250.731 211.246 283.501 198.735 302.558 211.685L321.511 225.177L314.227 228.113C319.63 245.72 313.413 271.017 296.552 292.993C279.986 314.579 257.714 327.042 239.527 326.795L239.356 333.723L222.837 322.028C222.208 321.623 221.599 321.191 220.997 320.732C202.174 306.204 205.471 270.235 228.371 240.391Z" fill="url(#paint0_linear_1400_15280)"/>
<path d="M313.23 304.825C336.131 274.984 339.435 239.016 320.61 224.489C301.785 209.962 267.96 222.376 245.06 252.218C222.159 282.059 218.855 318.027 237.68 332.554C256.505 347.081 290.33 334.666 313.23 304.825Z" fill="#063B67"/>
<path d="M253.522 338.387C237.516 326.041 240.327 295.47 259.787 270.098C277.92 246.475 304.103 235.706 320.54 244.314L320.684 244.397C321.067 244.602 321.443 244.829 321.812 245.082L334.083 252.202L333.844 264.302C336.231 278.877 330.663 298.001 317.742 314.84C302.154 335.156 289.165 347.997 272.981 345.157L267.769 346.632" fill="url(#paint1_linear_1400_15280)"/>
<path d="M327.825 320.482C347.29 295.117 350.098 264.544 334.096 252.196C318.094 239.847 289.343 250.399 269.877 275.764C250.412 301.129 247.604 331.702 263.606 344.051C279.608 356.4 308.36 345.847 327.825 320.482Z" fill="#0C2347"/>
<path d="M95.5313 201.788L108.527 157.553C122.33 148.945 152.235 130.665 159.519 129.355C169.095 127.634 171.879 123.34 171.879 123.34C171.879 123.34 153.979 119.574 148.302 111.837C142.625 104.1 139.683 89.2707 146.708 68.6247C152.426 51.8061 165.86 29.027 186.483 20.1101C190.784 18.2347 195.347 17.034 200.012 16.5502C205.572 15.9996 211.185 16.4103 216.606 17.7643C216.606 17.7643 198.904 9.19041 184.848 13.1961C176.936 15.5126 169.189 18.3633 161.66 21.7289C155.313 24.5686 149.711 27.5386 146.004 30.1587C110.655 54.8516 110.853 101.535 108.869 114.999C108.746 115.836 108.589 116.68 108.384 117.496C104.656 133.313 90.7159 148.362 89.3 164.906C87.8157 182.253 95.0388 201.102 95.5313 201.788Z" fill="url(#paint2_linear_1400_15280)"/>
<path d="M114.786 146.325C136.715 122.489 166.483 114.087 182.215 126.955L197.782 140.303L191.154 142.305C194.527 158.205 187.05 179.935 170.539 197.919C154.321 215.575 133.774 224.766 117.816 223.12L117.132 229.224L103.541 217.653C103.021 217.248 102.515 216.816 102.022 216.363C86.6119 202.083 92.3302 170.743 114.786 146.325Z" fill="url(#paint3_linear_1400_15280)"/>
<path d="M184.291 209.618C206.749 185.204 212.468 153.862 197.066 139.615C181.664 125.367 150.972 133.609 128.514 158.023C106.056 182.437 100.337 213.778 115.739 228.026C131.141 242.273 161.833 234.032 184.291 209.618Z" fill="#2374B7"/>
<path d="M174.736 200.227C188.281 185.503 191.731 166.601 182.443 158.01C173.155 149.418 154.646 154.389 141.101 169.114C127.557 183.838 124.106 202.739 133.394 211.331C142.682 219.922 161.192 214.951 174.736 200.227Z" fill="#0C2347"/>
<path d="M289.425 252.099C290.826 251.165 292.276 250.307 293.768 249.527L289.425 252.099Z" fill="#64B0ED"/>
<path d="M108.062 118.744C107.864 119.567 106.332 123.038 106.202 123.868C117.871 105.781 105.47 70.9774 143.138 37.0316C155.45 25.9472 167.509 21.3791 178.165 20.2679C183.241 19.7394 188.365 19.938 193.384 20.8578C204.845 23.0144 215.321 28.7813 223.289 37.3197C235.601 50.4 261.087 81.5404 275.095 128.388C294.062 191.828 284.438 253.409 284.438 253.409L290.964 256.023C301.504 182.28 282.345 131.365 282.345 131.365C282.345 131.365 249.896 21.53 191.346 15.5077C185.251 14.9005 179.097 15.4001 173.179 16.9824C165.679 18.885 158.438 21.6999 151.619 25.3642C152.303 24.9458 152.933 24.5274 153.603 24.1159C147.536 27.5454 142.214 30.975 138.76 33.9107C105.737 61.7038 111.072 106.247 108.062 118.744Z" fill="#64B0ED"/>
<path d="M259.199 5.19154C366.217 45.7084 324.083 247.627 324.083 247.627C309.425 244.815 290.984 256.002 290.984 256.002C301.518 182.267 282.366 131.345 282.366 131.345C282.366 131.345 243.138 -1.31091 173.172 16.9755C165.672 18.8816 158.432 21.6987 151.612 25.3642C185.915 3.55906 223.535 -8.30722 259.199 5.19154ZM273.693 67.7948C273.693 67.7948 308.994 -11.2978 192.673 9.89003C192.673 9.89003 241.552 8.53193 273.693 67.7948Z" fill="url(#paint4_linear_1400_15280)"/>
<path d="M283.447 295.6C284.24 295.182 284.815 295.6 284.815 296.45L284.5 305.772L296.19 299.599L296.504 290.277C296.547 289.818 296.692 289.375 296.929 288.979C297.166 288.584 297.488 288.247 297.872 287.993C298.707 287.554 299.24 287.993 299.24 288.844L298.501 310.573C298.461 311.033 298.317 311.478 298.08 311.874C297.843 312.27 297.52 312.606 297.133 312.858C296.34 313.276 295.765 312.858 295.765 312.014L296.08 302.781L284.391 308.955L284.076 318.228C284.035 318.688 283.89 319.132 283.654 319.528C283.417 319.923 283.093 320.26 282.708 320.512C281.914 320.931 281.34 320.512 281.34 319.662L282.079 297.884C282.118 297.424 282.261 296.979 282.498 296.583C282.735 296.187 283.06 295.851 283.447 295.6Z" fill="#F9F9F9"/>
<path d="M304.356 284.516C305.15 284.09 305.724 284.516 305.724 285.359L305.41 294.585C305.41 295.271 305.813 295.552 306.395 295.271L318.023 289.098C318.326 288.912 318.582 288.657 318.767 288.352C318.953 288.048 319.063 287.704 319.09 287.348L319.404 278.123C319.444 277.665 319.588 277.222 319.825 276.828C320.062 276.435 320.386 276.101 320.772 275.853C321.614 275.4 322.14 275.777 322.14 276.689L321.826 285.915C321.722 287.177 321.333 288.398 320.689 289.487C320.044 290.576 319.16 291.503 318.105 292.198L317.941 292.287L313.44 294.64L313.16 302.871C313.119 303.33 312.974 303.775 312.737 304.17C312.5 304.566 312.177 304.902 311.792 305.155C310.998 305.58 310.424 305.155 310.424 304.311L310.704 296.08L306.231 298.44C304.179 299.53 302.564 298.44 302.646 296.025L302.961 286.8C303.003 286.337 303.151 285.89 303.393 285.494C303.635 285.098 303.965 284.763 304.356 284.516Z" fill="#F9F9F9"/>
</g>
<defs>
<linearGradient id="paint0_linear_1400_15280" x1="208.781" y1="270.159" x2="321.511" y2="270.159" gradientUnits="userSpaceOnUse">
<stop stop-color="#2374B7"/>
<stop offset="1" stop-color="#64B0ED"/>
</linearGradient>
<linearGradient id="paint1_linear_1400_15280" x1="243.138" y1="293.988" x2="334.384" y2="293.988" gradientUnits="userSpaceOnUse">
<stop stop-color="#2374B7"/>
<stop offset="1" stop-color="#64B0ED"/>
</linearGradient>
<linearGradient id="paint2_linear_1400_15280" x1="64.9701" y1="171.127" x2="217.695" y2="18.8217" gradientUnits="userSpaceOnUse">
<stop stop-color="#063B67"/>
<stop offset="1" stop-color="#0C2347"/>
</linearGradient>
<linearGradient id="paint3_linear_1400_15280" x1="100.285" y1="214.628" x2="186.346" y2="128.814" gradientUnits="userSpaceOnUse">
<stop stop-color="#2374B7"/>
<stop offset="1" stop-color="#64B0ED"/>
</linearGradient>
<linearGradient id="paint4_linear_1400_15280" x1="246.606" y1="127.709" x2="361.86" y2="12.7703" gradientUnits="userSpaceOnUse">
<stop stop-color="#063B67"/>
<stop offset="1" stop-color="#2374B7"/>
</linearGradient>
<clipPath id="clip0_1400_15280">
<rect width="408.877" height="364" fill="white" transform="translate(0 0.468994)"/>
</clipPath>
</defs>
</svg>
