<svg width="410" height="364" viewBox="0 0 410 364" fill="none" xmlns="http://www.w3.org/2000/svg">
<path fill-rule="evenodd" clip-rule="evenodd" d="M205.211 12.8093C111.65 12.8093 35.7658 88.6747 35.7658 182.213C35.7658 275.751 111.65 351.616 205.211 351.616C298.83 351.616 374.655 275.751 374.655 182.213C374.655 88.6747 298.83 12.8093 205.211 12.8093Z" fill="url(#paint0_linear_1336_35429)"/>
<path fill-rule="evenodd" clip-rule="evenodd" d="M192.316 80.5941C189.699 82.0475 180.86 87.0471 188.71 87.0471C196.502 87.0471 200.34 89.605 203.015 90.1282C205.69 90.6514 206.039 85.71 203.945 83.0358C201.852 80.4197 195.397 78.9082 192.316 80.5941Z" fill="#51B3DB"/>
<path fill-rule="evenodd" clip-rule="evenodd" d="M133.702 192.793C139.284 192.619 144.866 192.619 147.658 196.397C150.449 200.234 156.031 205.931 147.89 202.85C139.749 199.711 138.005 201.281 135.446 198.374C132.946 195.409 133.702 192.793 133.702 192.793Z" fill="url(#paint1_linear_1336_35429)"/>
<path fill-rule="evenodd" clip-rule="evenodd" d="M177.139 16.9949C175.569 16.6461 173.941 16.4136 172.312 16.181C110.791 28.3311 61.2488 73.7341 43.2227 132.915C43.9205 136.81 45.9557 140.065 46.8861 144.425C48.398 151.518 46.8861 161.924 46.3046 166.342C45.7231 170.818 54.678 185.12 59.8532 188.666C65.0284 192.212 64.6214 190.642 66.5403 197.502C68.4592 204.362 88.753 205.874 94.2771 213.722C99.8013 221.512 100.499 225.814 102.127 223.43C104.104 220.64 107.186 214.884 106.837 207.559C106.43 200.234 86.3689 202.095 78.9259 201.513C71.4829 200.932 78.5189 190.642 78.5189 190.642C78.5189 190.642 81.1937 187.387 81.7752 184.596C82.3567 181.748 85.7875 180.934 89.6253 179.829C93.4631 178.667 96.0798 180.236 98.929 179.422C101.778 178.667 104.279 180.178 109.338 184.015C114.455 187.852 116.606 189.887 122.944 192.735C129.224 195.584 125.038 190.235 125.038 190.235C125.038 190.235 120.27 188.491 114.338 179.946C108.407 171.4 95.8472 178.027 95.8472 178.027C95.8472 178.027 86.1363 175.179 76.7744 182.794C67.4125 190.468 61.3651 182.213 61.714 167.214C62.121 152.274 77.3559 143.263 77.3559 143.263C77.3559 143.263 85.7293 145.356 88.8112 142.798C91.8349 140.24 93.5794 144.019 100.441 147.448C107.302 150.878 103.116 153.901 106.546 163.435C109.977 172.969 110.559 162.331 110.559 157.913C110.559 153.553 111.896 149.134 111.896 144.251C111.896 139.31 123.351 132.799 127.305 130.589C131.318 128.38 135.853 124.95 136.842 117.742C137.772 110.475 151.321 110.126 152.484 105.01C153.647 99.8945 158.764 97.7436 168.707 97.918C178.592 98.0924 185.105 92.9765 183.361 91.8138C181.674 90.6512 179.523 92.2208 175.162 90.4768C170.801 88.7909 174.58 86.4655 174.755 84.3727C174.929 82.2798 178.36 81.1171 182.372 80.0126C186.384 78.8499 189.641 77.164 189.641 77.164C189.641 77.164 191.908 74.141 195.921 71.6412C199.933 69.1414 195.339 65.3627 195.339 65.3627C195.339 65.3627 188.652 62.3397 186.384 59.6655C184.117 56.9914 183.535 50.4803 178.592 52.8057C173.65 55.0729 172.661 49.3758 172.661 49.3758C172.661 49.3758 164.288 45.3645 160.683 46.3528C157.078 47.2829 154.752 52.9801 155.159 56.4682C155.566 59.8981 149.46 64.0838 145.041 67.1649C140.68 70.1879 143.529 63.5605 140.273 62.5723C137.016 61.6421 131.143 55.538 131.143 50.1896C131.143 44.8413 153.647 38.9697 153.647 38.9697C153.647 38.9697 159.578 35.5398 163.939 34.0283C168.3 32.5168 166.439 37.4582 167.719 41.1207C169.056 44.7831 177.662 45.0738 183.361 43.1554C189.059 41.2369 185.28 36.4699 181.849 31.5285C178.418 26.5871 180.046 19.7854 188.245 18.2739C196.444 16.7624 199.759 30.017 202.724 37.2257C205.632 44.4925 209.353 47.9224 217.901 53.2126C226.449 58.561 222.669 47.6899 224.762 40.0743C226.856 32.4587 229.589 31.8773 223.076 21.355C216.563 11.0071 187.838 19.204 177.139 16.9949Z" fill="url(#paint2_linear_1336_35429)"/>
<path fill-rule="evenodd" clip-rule="evenodd" d="M247.121 277.683C247.121 277.683 233.863 274.66 224.443 269.311C215.023 263.963 219.849 259.661 209.964 258.382C200.079 257.103 188.856 253.557 188.856 253.557C188.856 253.557 179.436 247.976 175.657 240.593C171.819 233.21 157.107 233.966 151.176 233.442C145.245 232.861 142.337 228.443 135.243 227.396C128.091 226.35 123.555 228.385 120.067 230.943C116.578 233.5 115.705 236.523 112.624 233.966C109.6 231.408 109.6 229.14 104.774 230.129C99.9472 231.117 100.761 230.652 95.6442 228.85C89.0153 226.582 97.4468 232.396 99.9472 232.396C102.448 232.396 105.006 233.384 110.123 238.5C115.24 243.616 117.973 238.5 122.334 238.5C126.637 238.5 124.37 246.348 124.37 246.348C124.37 246.348 121.055 252.51 112.914 255.824C104.774 259.138 104.018 264.486 103.029 274.892C102.041 285.298 113.438 306.401 135.301 316.284C156.409 325.876 142.454 332.794 156.526 344.479C171.993 349.13 188.391 351.63 205.37 351.63C206.708 351.63 208.045 351.63 209.383 351.571C211.36 350.99 212.465 350.351 212.581 349.711C213.104 346.165 252.471 321.109 252.471 321.109C252.471 321.109 257.53 308.145 262.356 301.285C267.182 294.425 274.567 292.623 274.567 284.542C274.509 276.404 247.121 277.683 247.121 277.683Z" fill="url(#paint3_linear_1336_35429)"/>
<path fill-rule="evenodd" clip-rule="evenodd" d="M346.525 88.8492C347.049 90.7676 348.154 94.4301 349.724 98.1507C351.991 103.499 361.644 112.394 353.038 113.149L344.374 113.905C344.374 113.905 351.468 120.765 341.35 120.765C331.232 120.765 325.069 116.928 325.069 116.928L316.695 106.755C316.695 106.755 312.857 101.406 306.519 103.964C300.181 106.522 288.958 109.836 286.167 109.022C283.376 108.266 284.365 104.197 284.365 104.197L295.064 98.8483L292.796 90.1281L295.122 82.8614C295.122 82.8614 299.193 78.7919 301.751 83.3846C304.31 87.9772 304.484 87.6865 305.414 91.5234C306.345 95.3602 305.589 98.9064 308.38 96.5811C311.171 94.3138 310.939 88.7329 310.939 88.7329L318.033 89.4887C318.033 89.4887 324.662 92.5117 320.591 95.5928C316.521 98.6739 316.753 102.743 320.824 100.825C324.894 98.9064 323.092 90.477 327.685 93.5581C332.279 96.5811 330.244 102.685 334.023 100.185C337.861 97.6275 333.5 92.3373 338.326 93.3255C343.153 94.3138 345.188 96.2904 345.188 96.2904C345.188 96.2904 337.571 84.1984 332.744 83.4427C327.918 82.6869 324.08 84.431 324.603 78.6175C325.127 72.746 325.359 69.723 325.359 69.723C325.359 69.723 329.372 69.5486 331.058 68.9091C315.242 51.4107 295.878 37.2259 274.014 27.5756C272.851 27.2849 271.688 27.0523 270.525 26.8198C262.559 25.4827 259.593 30.8892 260.64 34.9586C261.629 39.028 265.525 41.8185 265.525 41.8185L274.363 44.8996C274.363 44.8996 280.992 51.2362 276.398 51.7595C271.805 52.2827 269.828 54.3174 272.619 58.6193C275.41 62.9213 272.619 68.2696 272.619 68.2696C272.619 68.2696 269.537 68.851 274.596 74.8969C279.655 80.9429 290.877 87.5702 280.934 86.5819C271.049 85.5937 259.593 80.5941 261.396 86.8726C263.199 93.1511 265.99 98.732 265.99 98.732L275.119 106.348C275.119 106.348 277.678 108.906 275.875 113.207C274.072 117.509 267.502 116.754 268.49 124.137C269.479 131.52 269.479 133.031 264.943 138.205C260.349 143.437 257.849 140.356 258.605 150.297C259.361 160.18 264.943 167.331 264.943 167.331C264.943 167.331 267.502 184.073 268.258 187.387C269.013 190.701 273.84 194.072 278.957 196.805C284.016 199.537 289.133 209.711 298.262 213.78L314.253 220.872C314.253 220.872 328.848 227.151 335.07 235.871C342.513 246.335 347.805 263.659 349.607 271.159C365.54 245.347 374.727 214.943 374.727 182.387C374.669 147.739 364.319 115.649 346.525 88.8492Z" fill="url(#paint4_linear_1336_35429)"/>
<path fill-rule="evenodd" clip-rule="evenodd" d="M206.213 279.995C162.544 279.995 118.7 270.345 85.3804 251.102C85.206 250.986 85.0315 250.87 84.8571 250.811C84.9734 231.046 88.6949 210.234 95.3238 189.48C126.259 206.687 166.265 215.291 206.155 215.291C245.521 215.291 284.83 206.92 315.242 190.177C321.812 210.989 325.476 231.918 325.534 251.683C292.622 270.519 249.476 279.995 206.213 279.995ZM309.776 311.097C250.231 341.792 159.113 341.327 99.7431 309.934C90.0323 295.342 84.7989 275.518 84.7989 251.916C84.7989 251.858 84.7989 251.8 84.7989 251.742C84.8571 251.742 84.9152 251.8 84.9152 251.8C118.409 271.1 162.311 280.809 206.213 280.809C249.417 280.809 292.564 271.391 325.476 252.614C325.359 276.565 319.893 296.563 309.776 311.097ZM120.153 133.787C144.634 146.228 175.336 152.506 205.98 152.506C236.218 152.506 266.397 146.402 290.47 134.252C300.646 151.867 309.02 170.528 315.009 189.305C284.655 206.048 245.463 214.419 206.155 214.419C166.323 214.419 126.375 205.815 95.5564 188.608C101.604 169.946 109.977 151.343 120.153 133.787ZM205.166 44.1437C238.253 63.328 268.258 96.0577 290.063 133.554C266.106 145.646 236.101 151.692 205.98 151.692C175.511 151.692 144.924 145.472 120.56 133.089C142.308 95.8251 172.196 63.2117 205.166 44.1437ZM326.29 251.16C326.173 231.394 322.51 210.524 315.939 189.712C316.579 189.363 317.277 188.956 317.916 188.608C347.514 171.516 364.144 148.146 364.261 123.962C363.97 123.206 363.679 122.451 363.389 121.695C364.377 146.402 347.747 170.412 317.509 187.91C316.928 188.259 316.288 188.608 315.707 188.898C309.717 170.121 301.344 151.518 291.168 133.903C293.087 132.915 294.948 131.927 296.75 130.88C323.557 115.416 336.989 94.2555 334.023 72.397C333.675 71.99 333.326 71.5831 333.035 71.2343C336.64 93.2091 323.382 114.603 296.401 130.183C294.599 131.229 292.738 132.217 290.819 133.206C269.072 95.7089 239.067 62.9792 206.039 43.6786C234.473 27.401 261.338 23.3316 282.795 31.7029C280.992 30.7728 279.131 29.8426 277.271 28.9706C256.512 23.2153 231.508 28.0404 205.225 43.2135C179 28.0986 153.589 23.3897 132.83 29.145C131.027 30.017 129.224 30.889 127.48 31.8192C148.879 23.506 176.092 27.5754 204.41 43.7367C171.498 62.9211 141.668 95.5344 119.921 132.799C118.118 131.868 116.374 130.938 114.629 129.892C87.7645 114.37 74.2159 93.1509 77.2396 71.4668C76.8907 71.8738 76.6 72.2226 76.2511 72.6295C73.867 94.2555 87.5319 115.242 114.222 130.648C115.967 131.636 117.711 132.624 119.514 133.554C109.338 151.111 100.964 169.656 94.9168 188.375C94.4516 188.143 94.0445 187.91 93.5793 187.619C63.0514 170.005 46.5372 146.693 47.0024 121.927C46.7116 122.625 46.4209 123.381 46.1883 124.078C46.7116 148.32 63.284 171.051 93.2305 188.317C93.6957 188.608 94.219 188.898 94.6842 189.131C88.0552 209.827 84.3337 230.639 84.1011 250.346C56.1317 233.836 39.3849 212.733 36.0705 190.119C36.1868 192.154 36.3031 194.247 36.4775 196.281C41.769 216.977 58.1669 236.103 84.1011 251.335C84.1011 251.567 84.1011 251.742 84.1011 251.974C84.1011 275.053 89.0438 294.587 98.3475 309.178C97.1846 308.539 96.0216 307.899 94.8586 307.202C90.7301 304.818 86.8923 302.318 83.2871 299.76C84.3337 300.865 85.3804 301.911 86.4852 302.958C89.1019 304.702 91.7767 306.388 94.5097 307.957C96.1379 308.888 97.766 309.76 99.3942 310.632C101.895 314.352 104.686 317.724 107.709 320.689C109.454 321.91 111.257 323.131 113.001 324.293C108.465 320.689 104.395 316.387 100.906 311.446C130.853 326.909 168.591 334.699 206.271 334.699C242.963 334.699 279.596 327.316 308.845 312.608C305.531 317.085 301.751 321.038 297.506 324.351C299.309 323.189 301.111 321.968 302.914 320.689C305.705 317.957 308.206 314.992 310.473 311.794C312.625 310.69 314.718 309.527 316.812 308.306C318.382 307.376 319.952 306.446 321.463 305.458C322.51 304.469 323.557 303.481 324.603 302.435C321.929 304.237 319.196 305.923 316.404 307.551C314.776 308.481 313.148 309.411 311.462 310.283C321.173 295.633 326.406 275.809 326.406 252.148C352.108 237.266 368.447 218.489 373.855 198.142C374.03 196.107 374.204 194.014 374.32 191.979C370.715 214.245 354.027 234.999 326.29 251.16Z" fill="#368EC4"/>
<path fill-rule="evenodd" clip-rule="evenodd" d="M129.748 121.811C129.806 119.893 128.294 118.323 126.375 118.323C124.456 118.265 122.886 119.777 122.886 121.695C122.886 121.753 122.886 121.753 122.886 121.811C122.944 123.73 124.514 125.241 126.375 125.183C128.178 125.183 129.69 123.672 129.748 121.811Z" fill="white"/>
<path fill-rule="evenodd" clip-rule="evenodd" d="M126.433 122.276C126.317 122.276 126.201 122.218 126.143 122.102C119.223 110.359 112.419 104.545 105.965 104.894C97.9405 105.301 93.1723 115.3 93.1723 115.358C93.1142 115.533 92.8816 115.591 92.7071 115.475C92.5327 115.417 92.4745 115.184 92.5327 115.068C92.5908 114.951 93.7538 112.452 96.0216 109.778C98.9872 106.289 102.418 104.313 105.907 104.138C112.478 103.848 119.339 109.487 126.317 121.056C127.131 118.207 130.329 107.743 134.923 97.1624C142.133 80.5359 149.286 71.467 156.147 70.3043C160.45 69.5485 164.521 71.932 168.358 77.3967C168.475 77.5711 168.475 77.7455 168.3 77.8617C168.126 77.978 167.951 77.978 167.835 77.8036C164.172 72.5715 160.276 70.3043 156.263 71.0019C140.389 73.7342 126.898 121.521 126.782 122.044C126.666 122.218 126.55 122.276 126.433 122.276Z" fill="white"/>
<path fill-rule="evenodd" clip-rule="evenodd" d="M126.433 122.277C126.259 122.277 126.084 122.102 126.084 121.928C126.084 121.87 126.084 121.812 126.143 121.812C126.201 121.695 132.888 107.22 142.017 92.7444C154.345 73.2112 165.044 62.9214 173.882 62.1076C178.476 61.7006 182.488 63.9097 185.861 68.6767C185.977 68.8512 185.919 69.0255 185.803 69.1418C185.687 69.2581 185.454 69.2 185.338 69.0837C182.14 64.4911 178.302 62.3982 173.999 62.8052C153.472 64.6655 127.073 121.521 126.84 122.102C126.666 122.219 126.55 122.277 126.433 122.277Z" fill="white"/>
<path fill-rule="evenodd" clip-rule="evenodd" d="M126.433 122.276C126.259 122.276 126.084 122.102 126.084 121.928C126.084 121.869 126.084 121.811 126.143 121.753C126.201 121.637 134.342 110.417 145.215 99.3714C159.811 84.5472 172.08 77.0479 181.791 77.0479H181.907C187.547 77.106 192.199 79.722 195.804 84.896C195.921 85.0704 195.863 85.2448 195.746 85.3611C195.63 85.4773 195.397 85.4192 195.281 85.3029C191.792 80.3615 187.315 77.8036 181.907 77.7455H181.791C158.996 77.7455 126.957 121.753 126.666 122.218C126.608 122.218 126.491 122.276 126.433 122.276ZM103.814 134.892C103.814 133.031 102.302 131.578 100.499 131.578C98.6383 131.578 97.1846 133.089 97.1846 134.892C97.1846 136.694 98.6965 138.205 100.499 138.205C102.302 138.205 103.814 136.694 103.814 134.892ZM58.4577 158.669C58.4577 156.808 56.9458 155.355 55.1432 155.355C53.2825 155.355 51.8288 156.866 51.8288 158.669C51.8288 160.471 53.3406 161.982 55.1432 161.982C56.9458 161.982 58.4577 160.471 58.4577 158.669ZM65.0866 182.969C65.0866 181.108 63.5748 179.655 61.7722 179.655C59.9696 179.655 58.4577 181.167 58.4577 182.969C58.4577 184.771 59.9696 186.282 61.7722 186.282C63.5748 186.282 65.0866 184.829 65.0866 182.969ZM114.862 264.299C114.862 262.438 113.408 260.985 111.605 260.927C109.745 260.927 108.291 262.38 108.233 264.182C108.233 264.241 108.233 264.241 108.233 264.299C108.233 266.159 109.745 267.612 111.605 267.554C113.408 267.496 114.862 266.043 114.862 264.299ZM166.847 239.417C166.847 237.557 165.335 236.104 163.532 236.104C161.671 236.104 160.218 237.615 160.218 239.417C160.218 241.277 161.729 242.731 163.532 242.731C165.393 242.731 166.847 241.219 166.847 239.417ZM151.379 245.463C151.379 244.242 150.39 243.254 149.169 243.254C147.948 243.254 146.96 244.242 146.96 245.463C146.96 246.684 147.948 247.672 149.169 247.672C150.39 247.672 151.379 246.684 151.379 245.463ZM289.075 198.491C289.075 197.27 288.086 196.281 286.865 196.281C285.644 196.281 284.655 197.27 284.655 198.491C284.655 199.711 285.644 200.7 286.865 200.7C288.086 200.7 289.075 199.711 289.075 198.491ZM304.019 189.073C304.019 187.852 303.03 186.864 301.809 186.864C300.588 186.864 299.6 187.852 299.6 189.073C299.6 190.294 300.588 191.282 301.809 191.282C303.03 191.282 304.019 190.294 304.019 189.073ZM302.391 207.85C302.391 206.629 301.402 205.641 300.181 205.641C298.96 205.641 297.971 206.629 297.971 207.85C297.971 209.071 298.96 210.059 300.181 210.059C301.402 210.059 302.391 209.071 302.391 207.85ZM325.069 217.268C325.069 216.047 324.08 215.059 322.859 215.059C321.638 215.059 320.649 216.047 320.649 217.268C320.649 218.489 321.638 219.477 322.859 219.477C324.08 219.477 325.069 218.489 325.069 217.268ZM99.9176 211.164C99.9176 209.943 98.9291 208.955 97.7079 208.955C96.4868 208.955 95.4983 209.943 95.4983 211.164C95.4983 212.385 96.4868 213.373 97.7079 213.373C98.9291 213.373 99.9176 212.385 99.9176 211.164ZM86.6597 204.013C86.6597 202.793 85.6712 201.804 84.4501 201.804C83.229 201.804 82.2404 202.793 82.2404 204.013C82.2404 205.234 83.229 206.222 84.4501 206.222C85.6712 206.222 86.6597 205.234 86.6597 204.013Z" fill="white"/>
<path fill-rule="evenodd" clip-rule="evenodd" d="M57.3528 158.668C57.3528 157.448 56.3643 156.459 55.1432 156.459C53.9221 156.459 52.9335 157.448 52.9335 158.668C52.9335 159.889 53.9221 160.877 55.1432 160.877C56.3643 160.877 57.3528 159.889 57.3528 158.668ZM118.758 185.759C118.758 184.538 117.769 183.55 116.548 183.55C115.327 183.55 114.338 184.538 114.338 185.759C114.338 186.98 115.327 187.968 116.548 187.968C117.769 187.968 118.758 186.98 118.758 185.759ZM145.273 195.177C145.273 193.956 144.285 192.968 143.064 192.968C141.843 192.968 140.854 193.956 140.854 195.177C140.854 196.398 141.843 197.386 143.064 197.386C144.285 197.328 145.273 196.339 145.273 195.177Z" fill="white"/>
<path fill-rule="evenodd" clip-rule="evenodd" d="M145.273 195.177C145.273 193.956 144.285 192.968 143.064 192.968C141.843 192.968 140.854 193.956 140.854 195.177C140.854 196.398 141.843 197.386 143.064 197.386C144.285 197.328 145.273 196.34 145.273 195.177ZM94.975 114.951C94.975 113.731 93.9865 112.742 92.7654 112.742C91.5443 112.742 90.5557 113.731 90.5557 114.951C90.5557 116.172 91.5443 117.161 92.7654 117.161C93.9865 117.161 94.975 116.172 94.975 114.951ZM170.161 77.3385C170.161 76.1176 169.173 75.1293 167.951 75.1293C166.73 75.1293 165.742 76.1176 165.742 77.3385C165.742 78.5593 166.73 79.5476 167.951 79.5476C169.173 79.5476 170.161 78.5593 170.161 77.3385ZM187.896 69.0834C187.896 67.8626 186.908 66.8743 185.687 66.8743C184.466 66.8743 183.477 67.8626 183.477 69.0834C183.477 70.3042 184.466 71.2925 185.687 71.2925C186.908 71.2925 187.896 70.3042 187.896 69.0834ZM197.84 85.1285C197.84 83.9076 196.851 82.9194 195.63 82.9194C194.409 82.9194 193.42 83.9076 193.42 85.1285C193.42 86.3493 194.409 87.3376 195.63 87.3376C196.851 87.3376 197.84 86.3493 197.84 85.1285ZM132.539 238.254C132.539 237.034 131.55 236.045 130.329 236.045C129.108 236.045 128.12 237.034 128.12 238.254C128.12 239.475 129.108 240.464 130.329 240.464C131.55 240.464 132.539 239.475 132.539 238.254ZM280.818 179.132C280.818 177.271 279.306 175.818 277.503 175.818C275.642 175.818 274.189 177.33 274.189 179.132C274.189 180.992 275.701 182.445 277.503 182.445C279.306 182.445 280.818 180.934 280.818 179.132ZM111.547 156.459C111.547 154.599 110.035 153.146 108.233 153.146C106.372 153.146 104.918 154.657 104.918 156.459C104.918 158.262 106.43 159.773 108.233 159.773C110.035 159.773 111.547 158.262 111.547 156.459ZM270.293 286.39C270.293 284.529 268.781 283.076 266.978 283.076C265.118 283.076 263.664 284.587 263.664 286.39C263.664 288.25 265.176 289.703 266.978 289.703C268.781 289.703 270.293 288.25 270.293 286.39ZM250.929 315.166C250.929 313.306 249.417 311.853 247.615 311.853C245.812 311.853 244.3 313.364 244.3 315.166C244.3 316.968 245.812 318.48 247.615 318.48C249.417 318.48 250.929 316.968 250.929 315.166Z" fill="white"/>
<path fill-rule="evenodd" clip-rule="evenodd" d="M195.281 85.1283C195.107 85.1283 194.99 85.0121 194.932 84.8376C194.932 84.7795 194.351 80.8264 193.246 76.6988C191.792 71.3505 190.106 68.2112 188.361 67.6299C187.489 67.3392 186.617 67.688 185.628 68.7344C185.512 68.8507 185.28 68.8507 185.163 68.7344C185.047 68.6182 185.047 68.3856 185.163 68.2694C186.326 67.0485 187.489 66.6416 188.594 66.9904C193.246 68.56 195.514 84.0819 195.572 84.7214C195.63 84.8958 195.514 85.0702 195.281 85.1283Z" fill="white"/>
<path fill-rule="evenodd" clip-rule="evenodd" d="M277.678 179.132C277.503 179.132 277.387 179.015 277.329 178.841C277.271 178.608 273.549 153.32 265.001 126.346C257.093 101.522 243.312 70.0716 222.611 61.5258C211.272 56.8169 198.828 59.433 185.629 69.1995C185.454 69.3158 185.28 69.2577 185.163 69.1414C185.047 68.967 185.105 68.7926 185.221 68.6763C198.596 58.7354 211.272 56.1193 222.844 60.8863C243.777 69.5483 257.675 101.115 265.583 126.113C274.189 153.146 277.91 178.434 277.968 178.725C278.026 178.899 277.91 179.074 277.678 179.132C277.736 179.132 277.736 179.132 277.678 179.132ZM108 156.982C107.826 156.982 107.651 156.808 107.651 156.634V156.576C107.651 156.459 108.931 147.39 111.78 138.612C115.676 126.694 120.502 120.939 126.201 121.579C126.375 121.579 126.491 121.753 126.491 121.927C126.491 122.102 126.317 122.218 126.143 122.218C125.91 122.218 125.619 122.16 125.387 122.16C113.117 122.16 108.407 156.227 108.349 156.576C108.291 156.866 108.175 156.982 108 156.982Z" fill="white"/>
<path fill-rule="evenodd" clip-rule="evenodd" d="M130.329 238.254C130.155 238.254 129.98 238.08 129.98 237.905V237.847C130.155 236.975 145.099 151.46 125.968 122.102C125.852 121.927 125.91 121.753 126.084 121.637C126.259 121.52 126.433 121.579 126.55 121.753C132.132 130.299 138.296 149.25 135.912 191.165C134.516 216.163 130.678 237.789 130.62 238.022C130.62 238.138 130.504 238.254 130.329 238.254Z" fill="white"/>
<path fill-rule="evenodd" clip-rule="evenodd" d="M162.951 239.94C162.776 239.94 162.602 239.766 162.602 239.592V239.533C162.66 239.301 166.207 217.094 163.474 191.573C161.846 176.632 158.473 163.494 153.298 152.564C146.843 138.961 137.714 128.729 126.084 122.16C125.91 122.044 125.852 121.869 125.968 121.695C126.084 121.521 126.259 121.463 126.433 121.579C138.179 128.206 147.425 138.496 153.938 152.274C159.113 163.261 162.544 176.458 164.172 191.456C166.905 217.035 163.299 239.359 163.299 239.592C163.241 239.824 163.125 239.94 162.951 239.94Z" fill="white"/>
<path fill-rule="evenodd" clip-rule="evenodd" d="M163.183 239.417C163.067 239.417 162.951 239.359 162.892 239.243C162.834 239.127 156.845 227.558 147.658 226.86C141.959 226.395 136.144 230.174 130.446 238.08C130.329 238.254 130.155 238.255 129.98 238.138C129.806 238.022 129.806 237.848 129.922 237.673C135.795 229.592 141.785 225.697 147.774 226.163C151.786 226.453 155.74 228.779 159.345 232.848C162.02 235.871 163.59 238.894 163.59 238.952C163.648 239.127 163.59 239.301 163.416 239.417C163.299 239.359 163.241 239.417 163.183 239.417ZM247.615 315.689C247.44 315.689 247.266 315.515 247.266 315.341C246.336 267.205 248.371 230.871 253.255 207.327C256.802 190.177 261.861 180.004 268.199 177.097C273.549 174.655 277.852 178.551 277.91 178.609C278.027 178.725 278.085 178.957 277.91 179.074C277.794 179.19 277.561 179.248 277.445 179.074C277.271 178.899 273.375 175.411 268.432 177.678C264.245 179.597 258.256 186.34 253.895 207.443C249.01 230.988 246.975 267.264 247.906 315.283C247.964 315.515 247.789 315.689 247.615 315.689Z" fill="white"/>
<path fill-rule="evenodd" clip-rule="evenodd" d="M302.042 189.073C301.867 189.073 301.751 188.957 301.693 188.782C299.774 179.481 296.459 174.132 291.924 172.854C285.295 170.993 278.085 178.667 278.026 178.725C277.91 178.841 277.678 178.9 277.561 178.725C277.445 178.609 277.445 178.376 277.561 178.26C277.619 178.202 279.422 176.225 282.155 174.481C285.76 172.156 289.191 171.342 292.157 172.156C296.925 173.493 300.414 179.016 302.391 188.608C302.449 188.782 302.332 188.957 302.158 189.015C302.1 189.073 302.042 189.073 302.042 189.073Z" fill="white"/>
<path fill-rule="evenodd" clip-rule="evenodd" d="M323.615 217.849C323.44 217.849 323.324 217.733 323.266 217.559C319.835 188.026 312.683 171.4 301.984 168.203C290.238 164.714 278.201 179.074 278.085 179.19C277.968 179.306 277.736 179.364 277.619 179.248C277.503 179.132 277.445 178.899 277.561 178.783C277.678 178.609 290.005 163.959 302.158 167.563C313.148 170.819 320.475 187.619 323.964 217.5C323.964 217.617 323.847 217.791 323.615 217.849Z" fill="white"/>
<path fill-rule="evenodd" clip-rule="evenodd" d="M300.937 208.432C300.763 208.432 300.646 208.315 300.588 208.141C298.96 195.933 295.297 180.702 287.272 177.621C282.388 175.76 278.085 179.248 278.085 179.306C277.968 179.423 277.736 179.423 277.619 179.248C277.503 179.132 277.503 178.9 277.678 178.783C277.852 178.609 282.33 174.946 287.563 176.981C294.308 179.597 298.902 190.003 301.344 208.083C301.286 208.199 301.17 208.374 300.937 208.432Z" fill="white"/>
<path fill-rule="evenodd" clip-rule="evenodd" d="M300.937 207.85C300.763 207.85 300.646 207.734 300.588 207.559C299.018 200.641 296.692 196.746 293.668 195.932C290.47 195.06 287.505 198.2 287.447 198.258C287.33 198.374 287.098 198.432 286.981 198.258C286.865 198.142 286.807 197.909 286.981 197.793C287.098 197.677 290.238 194.305 293.843 195.293C297.099 196.165 299.6 200.234 301.228 207.443C301.286 207.617 301.17 207.792 300.995 207.85H300.937Z" fill="white"/>
<path fill-rule="evenodd" clip-rule="evenodd" d="M163.299 239.417C163.125 239.417 162.951 239.243 162.951 239.068C162.951 239.01 162.951 238.952 163.009 238.894C163.067 238.778 170.684 226.57 183.244 213.606C194.874 201.63 213.249 186.573 234.822 182.794C252.906 179.597 270.525 184.655 287.272 197.851C287.447 197.967 287.447 198.2 287.33 198.316C287.214 198.491 286.981 198.491 286.865 198.374C270.351 185.294 252.848 180.295 234.997 183.434C223.192 185.527 204.701 192.503 183.768 214.013C171.266 226.976 163.707 239.127 163.59 239.243C163.532 239.301 163.416 239.417 163.299 239.417ZM277.678 179.132C277.503 179.132 277.387 179.016 277.329 178.899C277.271 178.667 271.921 156.285 262.443 132.799C253.662 111.173 239.532 84.0822 221.681 78.2106C213.133 75.362 204.352 77.6293 195.572 84.8961C195.456 85.0123 195.223 85.0123 195.107 84.8379C194.99 84.6635 194.99 84.4891 195.165 84.3729C204.12 76.9317 213.075 74.6063 221.913 77.5711C239.997 83.559 254.244 110.766 263.082 132.566C272.619 156.111 277.968 178.551 278.027 178.783C278.085 178.957 277.968 179.132 277.794 179.19C277.736 179.132 277.736 179.132 277.678 179.132Z" fill="white"/>
<path fill-rule="evenodd" clip-rule="evenodd" d="M277.678 179.132C277.561 179.132 277.445 179.074 277.387 178.958C277.329 178.841 269.188 164.773 255.116 149.309C242.091 135.066 221.157 116.638 195.223 110.01C172.371 104.139 149.228 108.15 126.433 122.044C126.259 122.16 126.084 122.102 125.968 121.928C125.852 121.753 125.91 121.579 126.084 121.463C148.995 107.511 172.313 103.441 195.397 109.371C221.448 116.056 242.556 134.543 255.639 148.902C269.828 164.424 277.91 178.551 278.027 178.667C278.143 178.841 278.085 179.016 277.91 179.132C277.794 179.074 277.736 179.132 277.678 179.132ZM247.266 315.167C247.15 315.167 247.092 315.108 246.975 315.05C230.403 293.948 213.482 277.902 196.735 267.38C183.012 258.776 169.289 253.777 155.973 252.556C141.61 251.219 130.271 254.591 123.293 257.614C115.734 260.927 111.489 264.59 111.489 264.59C111.373 264.706 111.14 264.706 111.024 264.532C110.908 264.415 110.908 264.183 111.082 264.066C111.257 263.892 128.294 249.3 156.031 251.858C169.463 253.079 183.244 258.137 197.084 266.799C213.889 277.379 230.868 293.424 247.499 314.585C247.615 314.701 247.615 314.934 247.44 315.05C247.44 315.108 247.324 315.167 247.266 315.167Z" fill="white"/>
<path fill-rule="evenodd" clip-rule="evenodd" d="M266.629 286.971C266.455 286.971 266.339 286.855 266.281 286.681C266.222 286.274 259.593 243.836 239.009 202.618C226.972 178.434 212.551 159.366 196.212 145.937C175.801 129.195 152.251 121.288 126.201 122.393C126.026 122.393 125.852 122.277 125.852 122.044C125.852 121.87 125.968 121.695 126.143 121.695C152.309 120.532 176.034 128.555 196.56 145.414C212.958 158.901 227.437 178.027 239.532 202.328C260.117 243.661 266.746 286.157 266.862 286.564C266.978 286.739 266.862 286.913 266.629 286.971Z" fill="white"/>
<path fill-rule="evenodd" clip-rule="evenodd" d="M247.266 315.689C247.091 315.689 246.975 315.573 246.917 315.399C246.859 314.934 241.277 268.833 223.658 222.209C213.307 194.828 200.922 172.679 186.791 156.285C169.172 135.822 148.762 124.369 126.201 122.276C126.026 122.276 125.852 122.102 125.91 121.928C125.91 121.753 126.084 121.637 126.259 121.637C148.995 123.788 169.521 135.299 187.315 155.878C201.503 172.33 213.947 194.596 224.297 222.035C241.916 268.717 247.499 314.876 247.557 315.341C247.615 315.515 247.499 315.689 247.266 315.689Z" fill="white"/>
<path fill-rule="evenodd" clip-rule="evenodd" d="M84.799 204.013C84.6246 204.013 84.4501 203.839 84.4501 203.664V203.606C84.5664 202.967 94.2772 137.624 115.153 123.73C118.874 121.23 122.77 120.474 126.782 121.521C126.957 121.579 127.073 121.753 127.073 121.928C127.015 122.102 126.84 122.218 126.666 122.218C126.666 122.218 126.666 122.218 126.608 122.218C122.828 121.288 119.107 121.986 115.501 124.369C94.8587 138.147 85.1479 203.141 85.0898 203.839C85.0898 203.897 84.9153 204.013 84.799 204.013Z" fill="white"/>
<path fill-rule="evenodd" clip-rule="evenodd" d="M116.606 185.759C116.432 185.759 116.257 185.585 116.257 185.41C117.13 168.493 114.222 161.633 111.605 158.843C109.977 157.157 108.582 157.099 108.582 157.099C108.407 157.099 108.233 156.924 108.291 156.75C108.291 156.575 108.465 156.459 108.64 156.459C108.698 156.459 110.326 156.459 112.129 158.378C114.862 161.226 117.885 168.261 117.013 185.468C116.897 185.585 116.781 185.759 116.606 185.759Z" fill="white"/>
<path fill-rule="evenodd" clip-rule="evenodd" d="M143.296 195.177C143.122 195.177 142.948 195.002 142.948 194.828C142.657 178.143 133.295 168.784 125.561 163.842C117.13 158.494 108.582 157.099 108.524 157.099C108.349 157.099 108.233 156.924 108.233 156.692C108.233 156.459 108.407 156.401 108.64 156.401C108.698 156.401 117.362 157.854 125.91 163.261C133.818 168.261 143.355 177.795 143.645 194.77C143.645 195.002 143.471 195.119 143.296 195.177Z" fill="white"/>
<path fill-rule="evenodd" clip-rule="evenodd" d="M247.266 315.69C247.15 315.69 246.975 315.573 246.975 315.457C204.643 193.375 165.16 159.25 139.517 152.099C120.328 146.751 108.349 156.401 108.233 156.518C108.117 156.634 107.884 156.634 107.768 156.46C107.651 156.343 107.651 156.111 107.826 155.994C107.942 155.878 120.211 145.995 139.691 151.46C155.624 155.878 171.731 169.017 187.664 190.468C208.423 218.431 228.6 260.404 247.615 315.283C247.673 315.457 247.557 315.631 247.382 315.69C247.324 315.69 247.324 315.69 247.266 315.69Z" fill="white"/>
<path fill-rule="evenodd" clip-rule="evenodd" d="M97.4754 211.745C97.301 211.745 97.1265 211.571 97.1265 211.396C97.0684 164.889 107.768 156.808 108.175 156.517C108.349 156.401 108.524 156.459 108.64 156.576C108.756 156.75 108.698 156.924 108.582 157.041C108.465 157.157 97.708 165.412 97.7662 211.396C97.8243 211.571 97.708 211.745 97.4754 211.745Z" fill="white"/>
<path fill-rule="evenodd" clip-rule="evenodd" d="M84.799 204.013C84.6246 204.013 84.4501 203.839 84.4501 203.664C84.4501 203.664 84.4501 203.664 84.4501 203.606C85.7876 192.27 89.2183 176.283 98.0569 164.831C103.407 157.913 108.117 155.994 108.291 155.878C108.465 155.82 108.64 155.878 108.756 156.052C108.814 156.227 108.756 156.401 108.582 156.517C108.407 156.576 89.6835 164.714 85.1479 203.664C85.0898 203.897 84.9735 204.013 84.799 204.013ZM100.79 135.415C100.732 135.415 100.674 135.415 100.674 135.356C100.499 135.298 100.441 135.066 100.499 134.891C100.499 134.833 102.36 130.938 105.325 126.927C109.338 121.462 113.35 118.381 117.188 117.8C120.444 117.277 123.526 118.556 126.375 121.579C126.492 121.695 126.492 121.927 126.375 122.044C126.259 122.16 126.026 122.16 125.91 122.044C123.235 119.195 120.328 117.974 117.362 118.439C108.524 119.835 101.197 135.008 101.139 135.182C101.081 135.356 100.964 135.415 100.79 135.415Z" fill="white"/>
<path fill-rule="evenodd" clip-rule="evenodd" d="M54.9106 159.192C54.7361 159.192 54.5617 159.075 54.5617 158.843C54.5617 158.785 54.5617 158.727 54.6198 158.727C54.7361 158.494 66.5984 133.264 82.9963 129.776C89.1601 128.439 95.1494 130.299 100.906 135.24C101.022 135.357 101.081 135.589 100.964 135.705C100.848 135.822 100.615 135.88 100.499 135.763C94.9168 130.938 89.0438 129.194 83.1708 130.415C67.1218 133.845 55.3758 158.785 55.2595 159.017C55.1432 159.134 55.0269 159.192 54.9106 159.192Z" fill="white"/>
<path fill-rule="evenodd" clip-rule="evenodd" d="M62.1211 183.55C61.9467 183.55 61.7722 183.376 61.7722 183.201C61.7722 183.143 61.7722 183.143 61.7722 183.085C61.8304 182.969 64.9122 171.865 69.9712 160.238C76.8327 144.542 83.8105 135.299 90.7883 132.799C94.3935 131.52 97.9987 132.043 101.488 134.485C101.662 134.601 101.662 134.775 101.546 134.95C101.43 135.124 101.255 135.124 101.081 135.008C97.8243 132.741 94.3935 132.159 91.0209 133.38C74.7975 139.194 62.5863 182.794 62.47 183.26C62.4118 183.434 62.2374 183.55 62.1211 183.55Z" fill="white"/>
<path fill-rule="evenodd" clip-rule="evenodd" d="M111.78 264.299C111.605 264.299 111.431 264.124 111.431 263.95C111.431 242.557 108.989 225 104.221 211.687C100.325 200.991 94.9169 193.026 88.1135 188.027C75.5534 178.841 62.3537 182.853 62.2374 182.911C62.063 182.969 61.8885 182.853 61.8304 182.678C61.7722 182.504 61.8885 182.329 62.063 182.271C62.1793 182.213 75.6697 178.086 88.5205 187.503C95.4402 192.561 100.964 200.642 104.86 211.455C109.687 224.826 112.129 242.44 112.129 263.95C112.071 264.124 111.954 264.299 111.78 264.299Z" fill="white"/>
<path fill-rule="evenodd" clip-rule="evenodd" d="M111.315 264.822C111.14 264.822 110.966 264.648 110.966 264.473V264.415C115.792 244.359 122.305 233.546 130.271 232.325C140.273 230.813 148.762 244.882 149.111 245.463C149.227 245.638 149.169 245.812 148.995 245.928C148.82 246.045 148.646 245.987 148.53 245.812C148.472 245.696 139.924 231.569 130.387 233.023C122.712 234.185 116.432 244.824 111.664 264.59C111.605 264.706 111.489 264.822 111.315 264.822ZM84.6826 204.013C84.5082 204.013 84.3919 203.897 84.3337 203.781C78.6352 180.585 62.2954 183.201 62.1791 183.26C62.0047 183.318 61.8303 183.143 61.7721 182.969C61.714 182.794 61.8884 182.62 62.0629 182.562C62.2373 182.504 79.1585 179.771 85.0315 203.607C85.0897 203.781 84.9734 203.955 84.7989 204.013C84.6826 204.013 84.6826 204.013 84.6826 204.013ZM116.199 185.759C116.141 185.759 116.025 185.759 115.967 185.701C102.185 173.958 88.1715 173.842 78.8678 175.818C68.7499 177.969 61.8303 182.969 61.7721 183.027C61.5977 183.143 61.4232 183.085 61.3069 182.969C61.1906 182.794 61.2488 182.62 61.3651 182.504C61.4232 182.446 68.4592 177.388 78.6933 175.179C88.1715 173.144 102.36 173.26 116.374 185.236C116.49 185.352 116.548 185.585 116.432 185.701C116.374 185.701 116.257 185.759 116.199 185.759Z" fill="white"/>
<path fill-rule="evenodd" clip-rule="evenodd" d="M61.5395 182.968C61.3651 182.968 61.1906 182.794 61.1906 182.62C61.1906 182.62 61.1906 182.62 61.1906 182.562C61.1906 182.387 63.2258 165.935 58.5158 160.47C57.5273 159.308 56.3062 158.726 54.9106 158.726C54.7361 158.726 54.5617 158.552 54.5617 158.378C54.5617 158.203 54.678 158.029 54.9106 158.029C56.5388 158.029 57.9343 158.726 59.0391 160.005C63.9236 165.703 61.9466 181.922 61.8884 182.62C61.8303 182.852 61.6558 182.968 61.5395 182.968ZM111.315 264.298C111.257 264.298 111.198 264.298 111.14 264.24C110.966 264.124 110.966 263.95 111.024 263.775C125.038 242.905 138.005 232.266 149.635 232.208H149.751C158.706 232.208 163.416 238.894 163.474 238.952C163.59 239.126 163.532 239.301 163.416 239.417C163.241 239.533 163.067 239.475 162.951 239.359C162.892 239.301 158.357 232.906 149.751 232.906H149.635C135.504 232.964 121.142 249.939 111.605 264.182C111.547 264.24 111.431 264.298 111.315 264.298Z" fill="white"/>
<path fill-rule="evenodd" clip-rule="evenodd" d="M247.266 315.689C247.15 315.689 247.033 315.631 246.975 315.457C232.612 281.216 209.993 239.301 183.884 234.418C171.266 232.034 163.648 239.708 163.532 239.824C163.416 239.94 163.183 239.94 163.067 239.824C162.951 239.708 162.951 239.475 163.067 239.359C163.125 239.301 171.033 231.336 184 233.778C210.4 238.778 233.136 280.809 247.615 315.224C247.673 315.399 247.615 315.573 247.44 315.689C247.382 315.689 247.324 315.689 247.266 315.689ZM267.095 286.39C266.92 286.39 266.746 286.273 266.746 286.099C264.71 248.312 263.024 184.073 274.479 178.376C275.584 177.795 276.922 177.911 277.91 178.725C278.026 178.841 278.085 179.074 277.968 179.19C277.852 179.306 277.619 179.364 277.503 179.248C277.445 179.19 276.34 178.26 274.828 179.016C272.619 180.12 269.595 184.655 267.734 200.06C265.466 218.372 265.408 247.323 267.502 286.099C267.443 286.215 267.327 286.39 267.095 286.39Z" fill="white"/>
<path fill-rule="evenodd" clip-rule="evenodd" d="M287.098 199.014C286.923 199.014 286.749 198.839 286.749 198.665C286.4 184.596 283.667 180.236 281.399 179.074C279.596 178.143 277.968 179.248 277.968 179.248C277.794 179.364 277.619 179.306 277.503 179.19C277.387 179.016 277.445 178.841 277.619 178.725C277.678 178.667 279.596 177.388 281.748 178.492C285.237 180.294 287.156 187.096 287.446 198.665C287.446 198.839 287.272 199.014 287.098 199.014Z" fill="white"/>
<path fill-rule="evenodd" clip-rule="evenodd" d="M143.413 195.177C143.238 195.177 143.064 195.002 143.064 194.828C143.064 194.77 143.064 194.712 143.122 194.653C160.334 170.586 180.86 156.982 204.062 154.25C243.544 149.541 277.561 178.26 277.91 178.55C278.026 178.667 278.085 178.899 277.968 179.015C277.852 179.132 277.619 179.19 277.503 179.073C277.154 178.783 243.37 150.239 204.178 154.89C181.209 157.622 160.857 171.167 143.703 195.06C143.587 195.119 143.529 195.177 143.413 195.177ZM267.211 286.971C267.095 286.971 266.978 286.913 266.92 286.796C253.72 265.345 240.404 249.358 227.379 239.126C216.738 230.813 206.213 226.337 196.037 225.755C175.801 224.593 163.765 239.708 163.59 239.824C163.474 239.998 163.241 239.998 163.125 239.882C162.951 239.766 162.951 239.533 163.067 239.417C163.183 239.243 175.452 223.953 196.037 225.058C206.329 225.639 216.97 230.174 227.728 238.603C240.87 248.835 254.244 264.938 267.443 286.448C267.56 286.622 267.502 286.796 267.327 286.913C267.327 286.913 267.269 286.971 267.211 286.971Z" fill="white"/>
<path fill-rule="evenodd" clip-rule="evenodd" d="M269.147 229.846C277.695 234.787 283.51 244.438 283.51 254.262C283.51 266.413 272.287 283.911 272.287 283.911L266.123 287.399L264.67 281.411C265.193 281.004 265.716 280.597 266.182 280.19C268.682 277.923 269.787 274.551 270.019 271.296L270.078 271.238C272.636 268.854 273.799 265.308 273.915 261.936C273.974 261.006 273.857 260.134 273.683 259.262C274.148 257.867 274.381 256.413 274.439 254.96C274.497 253.158 274.148 251.472 273.276 249.902C273.043 249.263 272.811 248.623 272.462 248.042C272.287 247.228 271.996 246.472 271.589 245.775C271.066 244.147 270.136 242.752 268.856 241.531C268.101 240.775 267.228 240.136 266.298 239.554C265.775 238.566 265.077 237.694 264.263 236.938C261.879 234.555 258.332 233.102 254.959 233.102C254.261 233.102 253.563 233.16 252.866 233.276L252.575 232.055L257.808 228.974C259.029 228.16 260.483 227.753 262.111 227.753C264.321 227.753 266.647 228.393 269.147 229.846Z" fill="url(#paint5_linear_1336_35429)"/>
<path fill-rule="evenodd" clip-rule="evenodd" d="M260.576 239.808C260.285 240.622 260.169 241.552 260.169 242.599C260.169 247.947 263.949 254.458 268.601 257.133C269.357 257.539 270.054 257.83 270.694 258.063C269.589 261.318 266.391 262.248 262.67 260.097C258.018 257.423 254.238 250.912 254.238 245.564C254.238 241.785 256.157 239.576 258.89 239.576C259.413 239.576 259.995 239.634 260.576 239.808Z" fill="url(#paint6_linear_1336_35429)"/>
<path fill-rule="evenodd" clip-rule="evenodd" d="M262.675 260.055C267.327 262.729 271.107 260.578 271.107 255.23C271.107 249.881 267.327 243.37 262.675 240.696C258.023 238.022 254.244 240.173 254.244 245.521C254.244 250.87 258.023 257.381 262.675 260.055ZM263.896 232.964C272.444 237.906 278.375 247.323 278.375 257.148C278.375 266.973 266.164 287.436 266.164 287.436C266.164 287.436 248.429 257.206 248.429 241.801C248.371 231.976 255.349 228.023 263.896 232.964Z" fill="#FF7100"/>
<path fill-rule="evenodd" clip-rule="evenodd" d="M262.675 260.055C264.013 260.869 265.35 261.218 266.455 261.218C269.188 261.218 271.107 259.009 271.107 255.23C271.107 249.881 267.327 243.37 262.675 240.696C261.338 239.882 260 239.534 258.896 239.534C256.163 239.534 254.244 241.743 254.244 245.521C254.244 250.87 258.023 257.381 262.675 260.055ZM258.896 239.359C260.117 239.359 261.396 239.766 262.792 240.522C267.502 243.254 271.339 249.823 271.339 255.23C271.339 259.009 269.479 261.392 266.513 261.392C265.292 261.392 264.013 260.985 262.617 260.229C257.907 257.497 254.069 250.928 254.069 245.521C254.069 243.661 254.535 242.091 255.407 240.987C256.279 239.94 257.442 239.359 258.896 239.359Z" fill="#FF7100" stroke="#FF7100"/>
<path fill-rule="evenodd" clip-rule="evenodd" d="M272.095 275.868C276.108 267.613 278.201 261.102 278.201 257.09C278.201 252.381 276.805 247.556 274.189 243.254C271.63 239.01 268.025 235.464 263.78 233.023C261.338 231.627 259.07 230.93 256.919 230.93C252.732 230.93 250.987 233.43 250.987 233.371C252.499 231.686 254.534 230.755 256.919 230.755C259.012 230.755 261.338 231.453 263.838 232.906C272.386 237.848 278.317 247.266 278.317 257.09C278.317 266.915 266.106 287.378 266.106 287.378C266.164 287.262 269.595 281.158 272.095 275.868Z" fill="#FF7100"/>
<path fill-rule="evenodd" clip-rule="evenodd" d="M165.189 183.395C173.737 188.337 179.551 197.987 179.551 207.812C179.551 219.962 168.329 237.46 168.329 237.46L162.165 240.948L160.711 234.961C161.235 234.554 161.758 234.147 162.223 233.74C164.724 231.472 165.828 228.101 166.061 224.845L166.119 224.787C168.678 222.403 169.841 218.857 169.957 215.486C170.015 214.555 169.899 213.683 169.724 212.811C170.189 211.416 170.422 209.963 170.48 208.509C170.538 206.707 170.189 205.021 169.317 203.452C169.085 202.812 168.852 202.173 168.503 201.591C168.329 200.778 168.038 200.022 167.631 199.324C167.108 197.696 166.177 196.301 164.898 195.08C164.142 194.325 163.27 193.685 162.339 193.104C161.816 192.115 161.118 191.243 160.304 190.488C157.92 188.104 154.373 186.651 151 186.651C150.303 186.651 149.605 186.709 148.907 186.825L148.616 185.604L153.85 182.523C155.071 181.709 156.525 181.302 158.153 181.302C160.362 181.302 162.688 181.942 165.189 183.395Z" fill="url(#paint7_linear_1336_35429)"/>
<path fill-rule="evenodd" clip-rule="evenodd" d="M156.618 193.357C156.327 194.171 156.211 195.101 156.211 196.148C156.211 201.496 159.991 208.007 164.643 210.681C165.399 211.088 166.096 211.379 166.736 211.611C165.631 214.867 162.433 215.797 158.711 213.646C154.06 210.972 150.28 204.461 150.28 199.113C150.28 195.334 152.199 193.125 154.932 193.125C155.455 193.125 156.037 193.183 156.618 193.357Z" fill="url(#paint8_linear_1336_35429)"/>
<path fill-rule="evenodd" clip-rule="evenodd" d="M158.706 213.605C163.358 216.279 167.137 214.128 167.137 208.78C167.137 203.432 163.358 196.921 158.706 194.246C154.054 191.572 150.274 193.723 150.274 199.072C150.274 204.42 154.054 210.931 158.706 213.605ZM159.927 186.515C168.475 191.456 174.406 200.874 174.406 210.698C174.406 220.523 162.195 240.986 162.195 240.986C162.195 240.986 144.459 210.757 144.459 195.351C144.459 185.526 151.379 181.573 159.927 186.515Z" fill="#FF7100"/>
<path fill-rule="evenodd" clip-rule="evenodd" d="M158.706 213.605C160.043 214.419 161.381 214.768 162.485 214.768C165.218 214.768 167.137 212.559 167.137 208.78C167.137 203.432 163.358 196.921 158.706 194.247C157.368 193.433 156.031 193.084 154.926 193.084C152.193 193.084 150.274 195.293 150.274 199.072C150.274 204.42 154.054 210.931 158.706 213.605ZM154.926 192.909C156.147 192.909 157.426 193.316 158.822 194.072C163.532 196.804 167.37 203.374 167.37 208.78C167.37 212.559 165.509 214.942 162.544 214.942C161.322 214.942 160.043 214.535 158.648 213.78C153.938 211.047 150.1 204.478 150.1 199.072C150.1 197.211 150.565 195.642 151.437 194.537C152.309 193.491 153.531 192.909 154.926 192.909Z" fill="#FF7100" stroke="#FF7100"/>
<path fill-rule="evenodd" clip-rule="evenodd" d="M168.126 229.418C172.138 221.163 174.231 214.652 174.231 210.641C174.231 205.932 172.836 201.106 170.219 196.805C167.661 192.561 164.055 189.015 159.811 186.573C157.368 185.178 155.101 184.48 152.949 184.48C148.762 184.48 147.018 186.98 147.018 186.922C148.53 185.236 150.565 184.306 152.949 184.306C155.042 184.306 157.368 185.003 159.869 186.457C168.417 191.398 174.348 200.816 174.348 210.641C174.348 220.465 162.136 240.929 162.136 240.929C162.195 240.812 165.625 234.708 168.126 229.418Z" fill="#FF7100"/>
<path fill-rule="evenodd" clip-rule="evenodd" d="M128.13 66.1619C136.677 71.1034 142.492 80.7537 142.492 90.5784C142.492 102.728 131.27 120.227 131.27 120.227L125.106 123.715L123.652 117.727C124.175 117.32 124.699 116.913 125.164 116.506C127.664 114.239 128.769 110.867 129.002 107.612L129.06 107.554C131.618 105.17 132.781 101.624 132.898 98.2521C132.956 97.322 132.84 96.4499 132.665 95.5779C133.13 94.1827 133.363 92.7293 133.421 91.276C133.479 89.4738 133.13 87.7879 132.258 86.2183C132.025 85.5788 131.793 84.9393 131.444 84.358C131.27 83.5441 130.979 82.7884 130.572 82.0907C130.048 80.463 129.118 79.0678 127.839 77.8469C127.083 77.0912 126.211 76.4517 125.28 75.8704C124.757 74.8821 124.059 74.0101 123.245 73.2543C120.861 70.8708 117.314 69.4175 113.941 69.4175C113.243 69.4175 112.546 69.4756 111.848 69.5919L111.557 68.371L116.791 65.2899C118.012 64.476 119.465 64.0691 121.094 64.0691C123.303 64.0691 125.629 64.7086 128.13 66.1619Z" fill="url(#paint9_linear_1336_35429)"/>
<path fill-rule="evenodd" clip-rule="evenodd" d="M119.56 76.1244C119.269 76.9383 119.152 77.8684 119.152 78.9148C119.152 84.2632 122.932 90.7742 127.584 93.4484C128.34 93.8554 129.038 94.146 129.677 94.3786C128.573 97.6341 125.374 98.5643 121.653 96.4133C117.001 93.7391 113.221 87.228 113.221 81.8797C113.221 78.101 115.14 75.8918 117.873 75.8918C118.397 75.8918 118.978 75.95 119.56 76.1244Z" fill="url(#paint10_linear_1336_35429)"/>
<path fill-rule="evenodd" clip-rule="evenodd" d="M121.665 96.4067C126.317 99.0809 130.097 96.9299 130.097 91.5815C130.097 86.2332 126.317 79.7221 121.665 77.0479C117.013 74.3738 113.234 76.5247 113.234 81.8731C113.234 87.1633 117.013 93.7325 121.665 96.4067ZM122.828 69.2579C131.376 74.1994 137.307 83.6171 137.307 93.4418C137.307 103.267 125.096 123.73 125.096 123.73C125.096 123.73 107.361 93.5 107.361 78.0944C107.361 68.2697 114.28 64.3165 122.828 69.2579Z" fill="#FF7100"/>
<path fill-rule="evenodd" clip-rule="evenodd" d="M121.665 96.4068C123.003 97.2207 124.34 97.5695 125.445 97.5695C128.178 97.5695 130.097 95.3604 130.097 91.5816C130.097 86.2333 126.317 79.7222 121.665 77.048C120.328 76.2341 118.99 75.8853 117.886 75.8853C115.153 75.8853 113.234 78.0945 113.234 81.8732C113.234 87.1634 117.013 93.7326 121.665 96.4068ZM117.886 75.7109C119.107 75.7109 120.386 76.1179 121.781 76.8736C126.492 79.6059 130.329 86.1751 130.329 91.5816C130.329 95.3604 128.469 97.7439 125.503 97.7439C124.282 97.7439 123.003 97.3369 121.607 96.5812C116.897 93.8489 113.059 87.2797 113.059 81.8732C113.059 80.0129 113.524 78.4433 114.397 77.3387C115.269 76.2923 116.432 75.7109 117.886 75.7109Z" fill="#FF7100" stroke="#FF7100"/>
<path fill-rule="evenodd" clip-rule="evenodd" d="M131.085 112.219C135.097 103.964 137.191 97.4533 137.191 93.4421C137.191 88.7332 135.795 83.908 133.179 79.6061C130.62 75.3623 127.015 71.8161 122.77 69.3744C120.328 67.9792 118.06 67.2816 115.908 67.2816C111.722 67.2816 109.977 69.7814 109.977 69.7232C111.489 68.0373 113.524 67.1072 115.908 67.1072C118.002 67.1072 120.328 67.8048 122.828 69.2582C131.376 74.1996 137.307 83.6173 137.307 93.4421C137.307 103.267 125.096 123.73 125.096 123.73C125.154 123.556 128.585 117.452 131.085 112.219Z" fill="#FF7100"/>
<path fill-rule="evenodd" clip-rule="evenodd" d="M279.074 123.119C287.622 128.061 293.437 137.711 293.437 147.536C293.437 159.686 282.214 177.184 282.214 177.184L276.051 180.672L274.597 174.685C275.12 174.278 275.644 173.871 276.109 173.464C278.609 171.197 279.714 167.825 279.947 164.569L280.005 164.511C282.563 162.128 283.726 158.581 283.843 155.21C283.901 154.279 283.784 153.407 283.61 152.535C284.075 151.14 284.308 149.687 284.366 148.234C284.424 146.431 284.075 144.745 283.203 143.176C282.97 142.536 282.738 141.897 282.389 141.316C282.214 140.502 281.924 139.746 281.517 139.048C280.993 137.421 280.063 136.025 278.784 134.804C278.028 134.049 277.155 133.409 276.225 132.828C275.702 131.84 275.004 130.968 274.19 130.212C271.806 127.828 268.259 126.375 264.886 126.375C264.188 126.375 263.491 126.433 262.793 126.549L262.502 125.329L267.735 122.247C268.956 121.434 270.41 121.027 272.038 121.027C274.248 121.027 276.574 121.666 279.074 123.119Z" fill="url(#paint11_linear_1336_35429)"/>
<path fill-rule="evenodd" clip-rule="evenodd" d="M270.504 133.083C270.214 133.897 270.097 134.827 270.097 135.873C270.097 141.221 273.877 147.732 278.529 150.407C279.285 150.814 279.983 151.104 280.622 151.337C279.517 154.592 276.319 155.523 272.598 153.372C267.946 150.697 264.166 144.186 264.166 138.838C264.166 135.059 266.085 132.85 268.818 132.85C269.341 132.85 269.923 132.908 270.504 133.083Z" fill="url(#paint12_linear_1336_35429)"/>
<path fill-rule="evenodd" clip-rule="evenodd" d="M272.619 153.378C277.271 156.053 281.05 153.902 281.05 148.553C281.05 143.205 277.271 136.694 272.619 134.02C267.967 131.345 264.187 133.496 264.187 138.845C264.187 144.135 267.967 150.646 272.619 153.378ZM273.782 126.23C282.33 131.171 288.261 140.589 288.261 150.414C288.261 160.238 276.05 180.702 276.05 180.702C276.05 180.702 258.314 150.472 258.314 135.066C258.314 125.241 265.234 121.288 273.782 126.23Z" fill="#FF7100"/>
<path fill-rule="evenodd" clip-rule="evenodd" d="M272.619 153.378C273.956 154.192 275.293 154.541 276.398 154.541C279.131 154.541 281.05 152.332 281.05 148.553C281.05 143.205 277.271 136.694 272.619 134.02C271.281 133.206 269.944 132.857 268.839 132.857C266.106 132.857 264.187 135.066 264.187 138.845C264.187 144.135 267.967 150.646 272.619 153.378ZM268.839 132.683C270.06 132.683 271.339 133.09 272.735 133.845C277.445 136.578 281.283 143.147 281.283 148.553C281.283 152.332 279.422 154.716 276.456 154.716C275.235 154.716 273.956 154.309 272.56 153.553C267.85 150.821 264.013 144.251 264.013 138.845C264.013 136.985 264.478 135.415 265.35 134.31C266.164 133.206 267.385 132.683 268.839 132.683Z" fill="#FF7100" stroke="#FF7100"/>
<path fill-rule="evenodd" clip-rule="evenodd" d="M282.039 169.133C286.051 160.877 288.144 154.366 288.144 150.355C288.144 145.646 286.749 140.821 284.132 136.519C281.574 132.275 277.968 128.729 273.724 126.288C271.281 124.892 269.014 124.195 266.862 124.195C262.675 124.195 260.931 126.694 260.931 126.636C262.443 124.95 264.478 124.02 266.862 124.02C268.955 124.02 271.281 124.718 273.782 126.171C282.33 131.113 288.261 140.53 288.261 150.355C288.261 160.18 276.05 180.643 276.05 180.643C276.108 180.527 279.48 174.423 282.039 169.133Z" fill="#FF7100"/>
<defs>
<linearGradient id="paint0_linear_1336_35429" x1="63.6412" y1="85.4821" x2="345.124" y2="278.009" gradientUnits="userSpaceOnUse">
<stop stop-color="#0072B1"/>
<stop offset="0.4833" stop-color="#00579B"/>
<stop offset="1" stop-color="#003767"/>
</linearGradient>
<linearGradient id="paint1_linear_1336_35429" x1="151.058" y1="199.53" x2="139.081" y2="191.622" gradientUnits="userSpaceOnUse">
<stop stop-color="#51B3DB"/>
<stop offset="1" stop-color="#91E0FF"/>
</linearGradient>
<linearGradient id="paint2_linear_1336_35429" x1="205.296" y1="209.877" x2="70.2121" y2="39.732" gradientUnits="userSpaceOnUse">
<stop stop-color="#51B3DB"/>
<stop offset="1" stop-color="#91E0FF"/>
</linearGradient>
<linearGradient id="paint3_linear_1336_35429" x1="255.195" y1="323.355" x2="137.937" y2="233.739" gradientUnits="userSpaceOnUse">
<stop stop-color="#51B3DB"/>
<stop offset="1" stop-color="#91E0FF"/>
</linearGradient>
<linearGradient id="paint4_linear_1336_35429" x1="326.432" y1="263.874" x2="244.236" y2="71.4764" gradientUnits="userSpaceOnUse">
<stop stop-color="#51B3DB"/>
<stop offset="1" stop-color="#91E0FF"/>
</linearGradient>
<linearGradient id="paint5_linear_1336_35429" x1="256.227" y1="208.989" x2="208.267" y2="250.354" gradientUnits="userSpaceOnUse">
<stop stop-color="#FF7100"/>
<stop offset="0.4209" stop-color="#FF7100"/>
<stop offset="1" stop-color="#FFBE8B"/>
</linearGradient>
<linearGradient id="paint6_linear_1336_35429" x1="243.778" y1="232.07" x2="213.623" y2="249.807" gradientUnits="userSpaceOnUse">
<stop stop-color="#FF7100"/>
<stop offset="0.4209" stop-color="#FF7100"/>
<stop offset="1" stop-color="#FFBE8B"/>
</linearGradient>
<linearGradient id="paint7_linear_1336_35429" x1="152.268" y1="162.538" x2="104.305" y2="203.899" gradientUnits="userSpaceOnUse">
<stop stop-color="#FF7100"/>
<stop offset="0.4209" stop-color="#FF7100"/>
<stop offset="1" stop-color="#FFBE8B"/>
</linearGradient>
<linearGradient id="paint8_linear_1336_35429" x1="139.821" y1="185.617" x2="109.665" y2="203.356" gradientUnits="userSpaceOnUse">
<stop stop-color="#FF7100"/>
<stop offset="0.4209" stop-color="#FF7100"/>
<stop offset="1" stop-color="#FFBE8B"/>
</linearGradient>
<linearGradient id="paint9_linear_1336_35429" x1="115.205" y1="45.3047" x2="67.2452" y2="86.6699" gradientUnits="userSpaceOnUse">
<stop stop-color="#FF7100"/>
<stop offset="0.4209" stop-color="#FF7100"/>
<stop offset="1" stop-color="#FFBE8B"/>
</linearGradient>
<linearGradient id="paint10_linear_1336_35429" x1="102.761" y1="68.3859" x2="72.6069" y2="86.123" gradientUnits="userSpaceOnUse">
<stop stop-color="#FF7100"/>
<stop offset="0.4209" stop-color="#FF7100"/>
<stop offset="1" stop-color="#FFBE8B"/>
</linearGradient>
<linearGradient id="paint11_linear_1336_35429" x1="266.15" y1="102.264" x2="218.19" y2="143.629" gradientUnits="userSpaceOnUse">
<stop stop-color="#FF7100"/>
<stop offset="0.4209" stop-color="#FF7100"/>
<stop offset="1" stop-color="#FFBE8B"/>
</linearGradient>
<linearGradient id="paint12_linear_1336_35429" x1="253.707" y1="125.344" x2="223.552" y2="143.081" gradientUnits="userSpaceOnUse">
<stop stop-color="#FF7100"/>
<stop offset="0.4209" stop-color="#FF7100"/>
<stop offset="1" stop-color="#FFBE8B"/>
</linearGradient>
</defs>
</svg>
