<?xml version="1.0" encoding="UTF-8" standalone="no"?>
<svg
   xmlns:dc="http://purl.org/dc/elements/1.1/"
   xmlns:cc="http://creativecommons.org/ns#"
   xmlns:rdf="http://www.w3.org/1999/02/22-rdf-syntax-ns#"
   xmlns:svg="http://www.w3.org/2000/svg"
   xmlns="http://www.w3.org/2000/svg"
   viewBox="0 0 93.333336 80"
   height="80"
   width="93.333336"
   xml:space="preserve"
   id="svg2"
   version="1.1"><metadata
     id="metadata8"><rdf:RDF><cc:Work
         rdf:about=""><dc:format>image/svg+xml</dc:format><dc:type
           rdf:resource="http://purl.org/dc/dcmitype/StillImage" /></cc:Work></rdf:RDF></metadata><defs
     id="defs6"><clipPath
       id="clipPath20"
       clipPathUnits="userSpaceOnUse"><path
         style="clip-rule:evenodd"
         id="path18"
         d="m 97.5469,123.879 c 8.0391,0 12.8401,-5.676 12.8401,-12.883 0,-3.605 -1.723,-6.875 -3.418,-9.273 L 68.2891,49.3398 V 14.6563 c 0,-7.38677 -5.8203,-13.22661 -13.1875,-13.22661 -7.3516,0 -13.1719,5.83984 -13.1719,13.22661 V 48.8242 L 3.25391,101.551 C 1.37109,104.121 0,107.219 0,110.996 c 0,7.039 5.81641,12.711 13.1719,12.711 5.9883,0 9.7539,-3.269 13.0039,-8.078 L 55.2656,73.5547 84.875,115.969 c 3.2539,4.812 7.1914,7.91 12.6719,7.91 z m 88.9331,0.848 c 36.977,0 63.5,-27.6411 63.5,-61.8247 v -0.332 c 0,-34.1836 -26.875,-62.171862 -63.835,-62.171862 -36.973,0 -63.5,27.648462 -63.5,61.824262 v 0.3476 c 0,34.1719 26.875,62.1567 63.835,62.1567 z m 35.942,-62.5043 v 0.3476 c 0,20.6094 -15.055,37.7737 -36.277,37.7737 -21.227,0 -35.942,-16.8245 -35.942,-37.4417 v -0.332 c 0,-20.6133 15.051,-37.7851 36.277,-37.7851 21.223,0 35.942,16.8281 35.942,37.4375 z M 368.34,123.699 c 7.371,0 13.191,-5.84 13.191,-13.222 V 54.8359 c 0,-36.4101 -20.379,-54.265587 -52.551,-54.265587 -32.175,0 -51.847,18.035187 -51.847,53.406287 v 56.5004 c 0,7.382 5.816,13.222 13.168,13.222 7.367,0 13.187,-5.84 13.187,-13.222 V 54.668 c 0,-19.5821 9.75,-29.7032 25.84,-29.7032 16.09,0 25.84,9.7813 25.84,28.8477 v 56.6645 c 0,7.382 5.82,13.222 13.172,13.222 z m 198.754,0.008 c 7.187,0 13.008,-5.504 13.008,-12.711 0,-1.551 -0.52,-3.613 -1.036,-5.156 L 545.52,11.3906 C 543.121,4.69141 538.172,0.570313 531.832,0.570313 h -2.727 c -6.339,0 -11.14,3.945317 -13.523,10.820287 L 491.961,80.2578 468.336,11.3906 C 465.949,4.51563 461.152,0.570313 454.809,0.570313 h -2.731 c -6.34,0 -11.289,4.121097 -13.691,10.820287 L 404.844,105.84 c -0.512,1.543 -1.031,3.43 -1.031,4.98 0,7.383 6.167,12.887 13.527,12.887 6.168,0 11.133,-3.957 12.832,-9.449 l 23.789,-73.6721 23.961,72.9921 c 2.047,6.172 6.683,10.465 13.351,10.465 h 2.047 c 6.688,0 11.305,-4.117 13.356,-10.465 l 23.957,-72.9921 23.793,73.6721 c 1.715,5.152 6.172,9.449 12.668,9.449 z M 684.531,25.9883 c 6.504,0 11.813,-5.3242 11.813,-11.8477 0,-6.53122 -5.309,-11.68357 -11.813,-11.68357 h -67.258 c -7.347,0 -13.171,5.83985 -13.171,13.22267 v 93.7653 c 0,7.391 5.824,13.223 13.171,13.223 h 66.403 c 6.508,0 11.808,-5.324 11.808,-11.848 0,-6.523 -5.3,-11.6794 -11.808,-11.6794 H 630.281 V 74.7578 h 45.699 c 6.497,0 11.801,-5.3242 11.801,-11.8555 0,-6.5195 -5.304,-11.6679 -11.801,-11.6679 H 630.281 V 25.9883 Z" /></clipPath><clipPath
       id="clipPath26"
       clipPathUnits="userSpaceOnUse"><path
         id="path24"
         d="M 0,0 H 700 V 600 H 0 Z" /></clipPath><clipPath
       id="clipPath36"
       clipPathUnits="userSpaceOnUse"><path
         style="clip-rule:evenodd"
         id="path34"
         d="M 660.805,584.043 C 697.469,558.57 706.621,508.074 681.23,471.277 L 564.828,302.621 C 537.824,263.496 493.457,240.215 446.035,240.215 H 325.273 c 86.309,125.058 223.145,323.34 223.145,323.34 25.395,36.8 75.707,45.968 112.387,20.488 z m -618.4964,4.223 c 36.8008,20.687 83.6014,7.226 107.6174,-27.571 L 254.543,409.109 c 20.293,-29.41 20.316,-68.371 0.051,-97.808 l -41.317,-60.028 c -11.183,-16.234 -35.093,-16.246 -46.285,-0.019 L 15.1367,471.277 C -11.7344,510.242 0.0898438,564.543 42.3086,588.266 Z M 367.586,475.422 c -11.176,-16.234 -35.082,-16.25 -46.281,-0.027 l -54.352,78.757 c -12.922,18.731 0.438,44.309 23.137,44.309 h 108.566 c 22.692,0 36.047,-25.551 23.153,-44.281 z" /></clipPath><clipPath
       id="clipPath42"
       clipPathUnits="userSpaceOnUse"><path
         id="path40"
         d="M 0,0 H 700 V 600 H 0 Z" /></clipPath></defs><g
     transform="matrix(1.3333333,0,0,-1.3333333,0,80)"
     id="g10"><g
       transform="scale(0.1)"
       id="g12"><g
         id="g14"><g
           clip-path="url(#clipPath20)"
           id="g16"><g
             clip-path="url(#clipPath26)"
             id="g22"><path
               id="path28"
               style="fill:#ffffff;fill-opacity:1;fill-rule:nonzero;stroke:none"
               d="M 0,0 H 746.344 V 174.727 H 0 Z" /></g></g></g><g
         id="g30"><g
           clip-path="url(#clipPath36)"
           id="g32"><g
             clip-path="url(#clipPath42)"
             id="g38"><path
               id="path44"
               style="fill:#e50045;fill-opacity:1;fill-rule:nonzero;stroke:none"
               d="M 0,189.09 H 745.598 V 648.469 H 0 Z" /></g></g></g></g></g></svg>