<svg height="63.544" viewBox="0 0 130.536 63.544" width="130.536" xmlns="http://www.w3.org/2000/svg"><g fill="#f3f3f3" transform="translate(-.5 -.751)"><path d="m65.633 32.944-4.281-9.644 4.285-9.641 4.283 9.641z"/><path d="m65.633 32.944-4.281-9.644 4.285-9.641 4.283 9.641z"/><path d="m71.547 20.039-4.281-9.647 4.285-9.641 4.282 9.641z"/><path d="m59.717 20.039-4.281-9.647 4.285-9.641 4.279 9.641z"/><path d="m77.462 32.944-4.281-9.644 4.285-9.641 4.282 9.641z"/><path d="m53.8 32.944-4.279-9.644 4.285-9.641 4.283 9.641z"/><path d="m41.962 32.944-4.281-9.644 4.285-9.641 4.283 9.641z"/><path d="m89.29 32.944-4.281-9.644 4.285-9.641 4.283 9.641z"/><path d="m39.671 35.225-3.458-7.785-4.282 9.635a83.514 83.514 0 0 1 7.74-1.85z"/><path d="m50.609 33.668-2.766-6.228-3.082 6.933a129.15 129.15 0 0 1 5.848-.705z"/><path d="m62.294 32.982-2.462-5.543-2.545 5.727q2.461-.129 5.007-.184z"/><path d="m99.3 37.1.009-.019-4.282-9.642-3.465 7.8c2.781.539 5.374 1.161 7.738 1.861z"/><path d="m86.624 34.4-3.092-6.961-2.772 6.238q3.022.305 5.864.723z"/><path d="m35.784 64.239c-8.106-.028-9.654-3.126-9.654-7.8v-15.439h6.832v7.22a9.72 9.72 0 0 1 4.838-1.52c5.837 0 7.719 4.316 7.719 8.77.003 4.951-3.068 8.797-9.735 8.769zm2.13-5.754a9.674 9.674 0 0 0 .305-2.518 9.084 9.084 0 0 0 -.471-3.015 2.508 2.508 0 0 0 -2.49-1.742 2.635 2.635 0 0 0 -2.186.94l-.055 6.612a2.356 2.356 0 0 0 2.241 1.272 2.5 2.5 0 0 0 2.656-1.549z"/><path d="m54.66 57.046c.719 2.711 3.486 2.877 5.09 2.877a30.9 30.9 0 0 0 5.45-.442v4.094a29.429 29.429 0 0 1 -6.474.636c-7.164 0-11.176-2.711-11.176-8.715 0-5.477 2.959-8.8 9.765-8.8 6.087 0 8.908 2.9 8.908 7.884a18.861 18.861 0 0 1 -.166 2.462zm-.139-3.126h5.505c-.111-1.771-.5-3.043-2.655-3.043-2.323 0-2.546 1.107-2.85 3.043z"/><path d="m69.112 64.045h7.746v-23.016h-7.746z"/><path d="m79.8 47.558h7.829v16.487h-7.829zm.221-3.707c0-1.467 1.66-2.656 3.734-2.656 2.02 0 3.707 1.19 3.707 2.656s-1.687 2.655-3.707 2.655c-2.069 0-3.729-1.19-3.729-2.656z"/><path d="m109.225 53.311v10.735h-6.916v-10.624c0-1.328-.747-2.213-2.518-2.213-1.8 0-2.518.858-2.518 2.213v10.624h-6.86v-10.735c0-4.9 3.679-6.584 9.378-6.584 5.616 0 9.434 1.773 9.434 6.584z"/><path d="m119.417 56.936v7.109h-7.33v-22.878h7.33v13.057l2.988-5.616h7.695l-3.32 6.169 4.26 9.267h-7.86l-3.763-7.856z"/><path d="m.5 53.671c0-6.944 3.237-10.706 11.813-10.706 8.6 0 11.785 3.762 11.785 10.706 0 7.027-3.043 10.624-11.785 10.624-8.52 0-11.813-3.764-11.813-10.624zm11.785-5.644c-2.047 0-3.071.885-3.513 2.075a6.4 6.4 0 0 0 -.305 1.77v3.57a6.786 6.786 0 0 0 .305 1.825c.415 1.217 1.494 2.131 3.6 2.131 2.075 0 3.1-.94 3.514-2.158a8.181 8.181 0 0 0 .3-1.826c.028-.609 0-1.217 0-1.771 0-.608.028-1.217 0-1.8a7.684 7.684 0 0 0 -.3-1.8c-.447-1.186-1.498-2.015-3.601-2.015z"/></g></svg>