<svg xmlns="http://www.w3.org/2000/svg" width="125.751" height="55.229"><path data-name="Path 50" d="M75.881 41.359c.629 0 1.5.121 1.85-.489-.469-.2-1.1-.119-1.4-.629.2-.446.688.023 1.013.063a5.324 5.324 0 0 0 4-.406.582.582 0 0 0 .041-.571c-.793-.141-1.546.1-2.235-.306-.121-.141.019-.3.1-.425l.144-.1a12.633 12.633 0 0 0 4.271-.382 4.876 4.876 0 0 0 .945-.425c.1-.094 0-.31 0-.31a26.894 26.894 0 0 1-3.717-.2c-.106-.121-.142-.188-.041-.343a.326.326 0 0 1 .284-.142c2.113 0 4.691.325 6.5-.835.163-.12.364-.366.183-.528a23.6 23.6 0 0 1-5.992.041.275.275 0 0 1-.1-.385 1.014 1.014 0 0 1 .69-.151c.434.011.929.128 1.36.128 2.051-.059 4.267.2 5.81-.994a.678.678 0 0 0 .082-.65c-2.154.365-4.348-.061-6.582 0-.132-.042-.2-.029-.184-.285.041-.245.163-.233.427-.285a29.627 29.627 0 0 0 8.145-.65c.082-.14.446-.263.344-.526l-.142-.1c-3.208.08-7.047-1.1-9.89.447-1.585 1.075-.589 3.044-1.422 4.426a1.3 1.3 0 0 1-.974.489.713.713 0 0 1-.691-.429 2.888 2.888 0 0 1-2.376.874 6.929 6.929 0 0 1-3.275 1.532c-.049.551-.107 1-.234 1.766a4.511 4.511 0 0 0 .718.311 13.152 13.152 0 0 0 2.343.474zM48.615 36.24a2.884 2.884 0 0 1-.974-2.863c-.061-.172-.162-.284-.346-.2a2.614 2.614 0 0 0-.061 1.951 2.816 2.816 0 0 0 .318.754c-.242.106-.584.1-.686-.063-.424-.669-.182-1.625-.384-2.4a3.263 3.263 0 0 0-1.949-2.377 6.394 6.394 0 0 0-1.423-.405c-.191-.02-.6-.073-.6-.073a13.814 13.814 0 0 0-1.574-.026c-2.013.013-4.2.379-6.311.3a133.789 133.789 0 0 1-29.776-2.3 2.355 2.355 0 0 1-1.665-.83c-.04-.122.1-.164.163-.243 3.046.079 5.951.629 8.915.731l10.338.731c7.657.469 15.314.325 22.809.487 1.4.2 3.134.375 3.6 1.9.168.759-1.63 2.61-.493 4.113l.975.872c-.2.346-.565.108-.873-.039v-.021zm-33-17.348h-.012l-.728 2.074h1.47l-.728-2.074zm-.553-1.01h1.141l1.971 5.028h-1.118l-.433-1.151h-2.038l-.44 1.154h-1.042l1.96-5.028zm5.922 0h1.614l1.195 3.81h.01l1.2-3.81h1.613v5.028h-.965v-4.151h-.015l-1.354 4.151h-.964l-1.356-4.151-.015.018v4.133h-.965v-5.028zm8.962 0h2.967v.791h-1.961v1.238h1.793v.793h-1.793v1.411h1.973v.795h-2.981v-5.028zm7.088 2.146h.33c.5 0 1.066-.071 1.066-.7 0-.6-.561-.655-1.066-.655h-.33zm-1.009-2.146h1.088c1.081 0 2.369-.036 2.369 1.362a1.151 1.151 0 0 1-1.037 1.167v.013c.273.022.432.3.532.519l.808 1.967h-1.126l-.6-1.572c-.145-.373-.274-.518-.7-.518h-.324v2.09h-1.012v-5.028zm6.562 5.028h1.006v-5.028h-1.008zm7.909-.071a5.146 5.146 0 0 1-1.145.157c-1.628 0-2.759-.814-2.759-2.515a2.492 2.492 0 0 1 2.759-2.685 3.323 3.323 0 0 1 1.137.207l-.071.852a2.069 2.069 0 0 0-1.088-.268 1.68 1.68 0 0 0-1.686 1.824 1.655 1.655 0 0 0 1.707 1.793 2.834 2.834 0 0 0 1.1-.209l.044.844zm4.9-3.947h-.014l-.729 2.074h1.471zm-.556-1.01h1.138l1.975 5.028h-1.121l-.429-1.151h-2.042l-.438 1.154h-1.045l1.958-5.028zm5.872 0h1.239l1.916 3.761h.016v-3.761h.964v5.028h-1.235l-1.924-3.76h-.012v3.76h-.973v-5.028zm15.236 4.957a5.13 5.13 0 0 1-1.145.157c-1.63 0-2.76-.814-2.76-2.515a2.493 2.493 0 0 1 2.76-2.685 3.338 3.338 0 0 1 1.139.207l-.075.852a2.056 2.056 0 0 0-1.085-.268 1.68 1.68 0 0 0-1.686 1.824 1.655 1.655 0 0 0 1.707 1.793 2.839 2.839 0 0 0 1.1-.209l.043.844zm2.9-4.957h1.008v4.234h1.947v.795h-2.96v-5.028zm7.759 1.01h-.015l-.728 2.074h1.469zm-.556-1.01h1.14l1.972 5.028h-1.116l-.433-1.154h-2.037l-.439 1.154h-1.046l1.959-5.028zm8.625.922a2.611 2.611 0 0 0-1.024-.217.7.7 0 0 0-.792.7c0 .87 2.205.5 2.205 2.19 0 1.1-.872 1.519-1.888 1.519a4.359 4.359 0 0 1-1.288-.2l.093-.906a2.448 2.448 0 0 0 1.139.309c.382 0 .894-.195.894-.647 0-.959-2.2-.562-2.2-2.229 0-1.121.871-1.532 1.756-1.532a3.811 3.811 0 0 1 1.2.179l-.091.829zm6.164 0a2.6 2.6 0 0 0-1.023-.217.7.7 0 0 0-.791.7c0 .87 2.2.5 2.2 2.19 0 1.1-.872 1.519-1.887 1.519a4.356 4.356 0 0 1-1.288-.2l.093-.906a2.437 2.437 0 0 0 1.136.309c.384 0 .9-.195.9-.647 0-.959-2.2-.562-2.2-2.229 0-1.121.871-1.532 1.756-1.532a3.823 3.823 0 0 1 1.2.179l-.094.829zm3.38 4.106h1.009v-5.028h-1.009zm7.908-.071a5.127 5.127 0 0 1-1.146.157c-1.628 0-2.758-.814-2.758-2.515a2.492 2.492 0 0 1 2.758-2.685 3.337 3.337 0 0 1 1.14.207l-.073.852a2.058 2.058 0 0 0-1.086-.268 1.68 1.68 0 0 0-1.687 1.824 1.656 1.656 0 0 0 1.707 1.793 2.83 2.83 0 0 0 1.1-.209l.043.844" fill="#f3f3f3"/><path data-name="Path 51" d="M87.782 41.031c-.427.895-1.623.489-2.256.551a3.9 3.9 0 0 1-.731-.121l.062.344a.891.891 0 0 1-.887.781 5.347 5.347 0 0 1-1.791-.1c.1.37.074.908-.306 1.032a4.007 4.007 0 0 1-2.43-.124 1.163 1.163 0 0 1-.218.66 1.425 1.425 0 0 1-1.091.327 6.623 6.623 0 0 1-1.951-.446.953.953 0 0 1-.164-.081 6.1 6.1 0 0 1-1.3-.793c-.215-.236-.446-.489-.405-.772.1-.223.19-.118.405-.042a5.16 5.16 0 0 0 3.739 1.606c.164-.066.3-.117.359-.335a2.023 2.023 0 0 0 .059-.31 4.867 4.867 0 0 1-.457-.257 2.8 2.8 0 0 1-.591-.519c-.062-.1-.1-.385.1-.385a6.263 6.263 0 0 0 1.705.931c.343.1.687.167.931.211a.974.974 0 0 0 .919-.211c.161-.3.053-.411-.026-.67a3.433 3.433 0 0 1-1.622-.892c0-.163.164-.2.245-.244a6.735 6.735 0 0 0 3.656 1.016.664.664 0 0 0 .426-.731c-.406-.692-1.116-.794-1.746-1.361l.1-.285c.894.264 1.686.813 2.619 1.016.671.12 1.587.405 2.2-.04.263-.264-.165-.551.059-.834.142-.061.192.081.286.142.222.222.163.651.1.931zm34.539-11.718a5.177 5.177 0 0 1-.661.164 119.838 119.838 0 0 1-19.5 2.093.83.83 0 0 1 .184.832 2.267 2.267 0 0 1-1.587.916 9.423 9.423 0 0 1-2.069.161.943.943 0 0 1 .42 1.224 1.6 1.6 0 0 1-1 .6 14.981 14.981 0 0 1-1.761.025c.081.1.237.2.333.311a.805.805 0 0 1 .114 1.151c-.568.648-1.726.365-2.5.425.1.265.328.516.1.832-.6.84-1.933.528-2.724.449a1.212 1.212 0 0 1-.3 1.218 3.408 3.408 0 0 1-2.581.425 7.168 7.168 0 0 1-2.924-.974.275.275 0 0 1-.1-.386l.162-.1c1.5.466 3.23 1.257 4.876.587a1.116 1.116 0 0 0 .252-.956 24.42 24.42 0 0 1-.825-.293c-.769-.238-1.736-.574-1.863-.844a.159.159 0 0 1 .14-.223 16.54 16.54 0 0 0 5.017 1.016c.265-.019.525-.355.19-.844-.237-.085-.629-.2-1.174-.351a5.076 5.076 0 0 1-2.042-.917c0-.141.041-.327.2-.284a15.483 15.483 0 0 0 4.979 1.017c.2-.1.433-.239.386-.583-.033-.262-.195-.436-.46-.759a30.811 30.811 0 0 1-3.534-1.035c-.25-.1-.69-.346-.245-.652.679.123 1.225.292 1.939.457.39.115.861.252 1.2.323 1.24.251 2.924.614 3.337-.09.16-.261-.174-.6-.384-.808a42.33 42.33 0 0 1-3.68-.334c-.4-.049-1.257-.075-1.195-.6l.142-.1a22.246 22.246 0 0 0 8.1.1c.126-.054.377-.2.295-.419a.743.743 0 0 0-.321-.489c-.642.012-1.8.032-2.437.025-2.073-.016-4.1-.1-6.028-.051a1.236 1.236 0 0 1-.286.975 5.262 5.262 0 0 1-1.808.691 1.145 1.145 0 0 1 .042.974 3.663 3.663 0 0 1-1.99 1.014c.182.244.1.489.039.772-.772.975-2.153 1.139-3.351 1.381a.7.7 0 0 1-.06.732 2.819 2.819 0 0 1-1.1.749 7.767 7.767 0 0 1-1.525.382 7.313 7.313 0 0 1-.515.045 1.39 1.39 0 0 1-.311 1.159 5.258 5.258 0 0 1-3.515.586c-.773 1.525-2.417.937-3.859.876-.627-.172-1.262-.322-1.876-.525-.1.49-.215.986-.324 1.463q-.205.891-.482 1.764a14.241 14.241 0 0 1-1.056 3.737c-.06.488.388.549.773.427 1.178-1.056 1.422-2.845 1.259-4.53a.206.206 0 0 1 .345-.08 4.1 4.1 0 0 1 .1 2.275 6.25 6.25 0 0 1-.873 2.4.8.8 0 0 0 .672.325c1.218-.2 1.664-1.765 1.949-2.863.107-.446-.146-1.22.143-1.478a.2.2 0 0 1 .326.129 5.565 5.565 0 0 1-.856 3.97.934.934 0 0 0 .876.669c1.035-.019 1.5-.959 1.766-1.828a9.872 9.872 0 0 0 .138-1.832c.027-.255.034-.685.206-.745.274-.038.306.283.306.486a8.473 8.473 0 0 1-.122 2.863c.4.265.59.753 1.179.55 1.36-.956 1.663-2.7 1.563-4.45.081-.042.224-.163.325-.042a6.382 6.382 0 0 1-.093 3.1c.251.379.336.619.824.7a.868.868 0 0 0 1.076-.59c.671-1.26.244-2.9-.182-4.143.122-.284.255-.109.385.02a8.287 8.287 0 0 1 .731 2.476l.091.1.126.141a2.713 2.713 0 0 0 .858.436c.51 0 .795-.488.917-.915a5.61 5.61 0 0 0-.917-3.168c.145-.406.489-.1.673 0 .8.556 1.623 1.172 2.485 1.658a4.419 4.419 0 0 0 2.224.757c.233-.023.323-.49.266-.825-1.4-.728-2.68-1.387-3.94-2.177-.1-.227.162-.227.244-.348 2.723 1.118 5.118 2.985 8.125 3.413.2-.036.4-.3.288-.763-.6-.21-1.194-.394-2.072-.727a24.234 24.234 0 0 1-4.554-2.023.329.329 0 0 1-.14-.285c.118-.041.242-.244.385-.1a41.308 41.308 0 0 0 8.243 2.883 2.98 2.98 0 0 0 .643.072c.346 0 .417.056.586-.2s-.062-.6-.265-.923a120.36 120.36 0 0 1-3.929-1.1 15.525 15.525 0 0 1-3.575-1.364c-.081-.14-.019-.364.161-.364a36.673 36.673 0 0 0 9.1 2.362 13.184 13.184 0 0 0 3.473.136c.186-.027.163-.245.1-.385a2.619 2.619 0 0 0-.3-.529 72.348 72.348 0 0 1-3.216-.548 25.2 25.2 0 0 1-6.54-2.032c0-.119 0-.283.141-.283 4.083 1.116 8.084 2.539 12.675 2.275a.3.3 0 0 0 .241-.1 1.134 1.134 0 0 0-.167-1.038 34.78 34.78 0 0 1-4.115-.323 26.685 26.685 0 0 1-6.276-1.606c-.1-.06-.042-.161-.042-.242.306-.2.69-.041 1.016.038a34.343 34.343 0 0 0 10.718 1.455 3.144 3.144 0 0 0 1.852-.592c.188-.272.02-.5-.159-.711l-.726-.019a70.912 70.912 0 0 1-10.67-1.349c-.08-.062-.039-.185-.039-.284.479-.319 1.179-.025 1.886.1 1.59.283 3.224.417 4.861.563a56.921 56.921 0 0 0 7.468.21c.187-.087.341-.184.258-.479l-.141-.209c-1.11.077-2.446.1-3.595.075a44.537 44.537 0 0 1-9.277-1.195.342.342 0 0 1-.062-.385l.245-.2a39.842 39.842 0 0 0 9.6 1.1 21.554 21.554 0 0 0 6.143-.653c.2-.067.285-.2.163-.385l-.151-.206a53.5 53.5 0 0 1-13.6-.282c-.164-.144-.1-.245-.061-.386l.242-.1c5.2.61 10.886.793 15.944-.344.366-.145.854-.082 1.075-.447.168-.342-.3-.733-.3-.733-1.258.211-2.836.468-4.142.572a60.694 60.694 0 0 1-8.617.016c-.843-.052-2.144-.12-2.254-.385-.1-.242.027-.353.244-.385a66.944 66.944 0 0 0 6.906.285 55.23 55.23 0 0 0 2.685-.113c.767-.08 2.092-.2 3.265-.394a12.879 12.879 0 0 0 5.341-1.728c.406-.3.77-.634.56-1.139z" fill="#f3f3f3"/><path data-name="Path 52" d="M78.032 36.239a2.887 2.887 0 0 0 .976-2.863c.061-.172.161-.284.346-.2a2.618 2.618 0 0 1 .059 1.951 2.878 2.878 0 0 1-.317.754c.242.106.58.1.684-.063.425-.669.181-1.625.385-2.4a3.267 3.267 0 0 1 1.95-2.377 6.334 6.334 0 0 1 1.423-.405c.191-.02.6-.073.6-.073a13.779 13.779 0 0 1 1.573-.026c2.012.013 4.2.379 6.311.3a133.8 133.8 0 0 0 29.775-2.3c.609-.119 1.318-.191 1.666-.83a.168.168 0 0 0-.163-.243c-3.047.079-5.951.629-8.917.731 0 0-3.022.263-5.093.4s-5.245.331-5.245.331c-7.657.469-15.312.325-22.807.487-1.4.2-3.134.375-3.6 1.9-.167.759 1.63 2.61.494 4.113l-.975.872c.2.346.565.108.873-.039v-.021zm-16.1-.662l.948-.727 1.193.724h-2.14zm-3.956 2.414s-1.077.373-1.5.472-1.527.255-1.527.255H72.01s-1.018-.141-1.689-.295-1.528-.432-1.528-.432zm2.075-1.048l-1.431.728h9.319l-1.687-.728zm1.582-1.047l-1.212.728h5.312l-1.161-.728h-2.939" fill="#f3f3f3"/><g data-name="Group 5"><path data-name="Path 53" d="M64.164 54.627l.726-.5v-9.944h-.726zm-1.1.6l.726-.425V44.789l-.084.256h-.642z" fill="#f3f3f3"/></g><path data-name="Path 54" d="M65.269 53.892l.726-.638v-8.209h-.726zm1.1-.93l.728-.686v-8.093h-.728zm1.1-1.148l.729-.887v-5.882h-.729zm1.1-1.427l.73-1.029v-4.313h-.73z" fill="#f3f3f3"/><g data-name="Group 6"><path data-name="Path 55" d="M70.792 47.071l.727-2.364v-.525h-.727zm-8.75 7.74l.729.418V45.045h-.3l-.274-.863h-.155v10.629" fill="#f3f3f3"/></g><path data-name="Path 56" d="M60.939 54.126l.726.475V44.182h-.413l.01.863h-.323v9.082zm-1.105-.872l.728.638V45.04h-.617v-.863h-.116v9.072zm-1.1-.88l.726.641V44.24h-.726zm-1.106-1.287l.728.882V44.24h-.728zm-1.1-1.678l.73 1.216V44.24h-.4v.809h-.332v4.365zm-1.105-2.072s.188.439.321.7.409.787.409.787V45.04h-.632v-.8h-.1v3.1zm-1.1-2.549s.186.518.325.925.4.964.4.964V44.24h-.727v.553zm14.18-.838h3.206l.192-.728h-3.4zm-14.5-.728l.139.728h1.381v-.728zm12.295.728h.869v-.728h-.869zm-6.337 0v-.728h-1.917a3.141 3.141 0 0 1-.661.067h-.521v.661zm3.236-.728h-.1l.042.137h.006zm-1.062.728l-.232-.728h-.658l.006.728zm1.943 0h.916v-.728h-.679zm.921-1.047l.007-.728h-.341l-.239.728zm-11.164-.728l.1.728h1.59v-.728zm3.027 0v.161h.347a.972.972 0 0 0 .6-.161zm1.926.728h1.157v-.728h-.656a1.388 1.388 0 0 1-.512.728zm3.013 0l-.23-.728h-.321l.005.728zm1.19 0h.311l.245-.728h-.79zm3.306 0h.869v-.728h-.869zm5.7 0l.182-.728h-1.6v.728zm-10.53-1.046l-.212-.672h-.015v.672zm3.536 0v-.672h-.015l-.223.672zm-1.109-.728h-1.471l.231.728h1zm-10.244 0l.1.728h1.768v-.728zm12.646.728h.869v-.728h-.869zm-8.487-.728h-.949v.728h1.15a.934.934 0 0 0 .026-.213.605.605 0 0 0-.227-.515zm2.15.728v-.728h-.65a2 2 0 0 1 .066.538 1.648 1.648 0 0 1-.009.19zm12.3 0l.121-.728h-3.874v.728zm-5.958-1.047h.869v-.728h-.869zm-12.785-.728l.084.728h1.926v-.728zm6.447 0h-2.01a1.633 1.633 0 0 1 1.226.728h.784zm12.469.728l.1-.728h-1.823v.728zm-8.427 0l.242-.728h-2.153l.232.728zm-10.588-1.77l.085.73h19.043l.1-.73zm16.328 9.674l.727-1.231V45.04h-.727zm-16.5-9.979a6.691 6.691 0 0 1-2.928-1.455 2.885 2.885 0 0 1-2.376-.874.713.713 0 0 1-.69.429 1.3 1.3 0 0 1-.975-.489c-.833-1.382.163-3.351-1.422-4.426-2.843-1.544-6.682-.367-9.892-.447l-.141.1c-.1.263.263.386.345.526a29.625 29.625 0 0 0 8.144.65c.264.052.388.041.428.285.018.256-.053.243-.184.285-2.235-.061-4.427.365-6.581 0a.675.675 0 0 0 .081.65c1.543 1.2 3.757.935 5.81.994.431 0 .925-.117 1.361-.128a1.01 1.01 0 0 1 .689.151.276.276 0 0 1-.1.385 23.61 23.61 0 0 1-5.993-.041c-.182.162.022.407.184.528 1.807 1.16 4.388.835 6.5.835a.325.325 0 0 1 .284.142c.1.155.066.222-.04.343a26.9 26.9 0 0 1-3.719.2s-.092.216.006.31a4.9 4.9 0 0 0 .941.425 12.652 12.652 0 0 0 4.274.382l.142.1c.082.124.223.285.1.425-.69.409-1.442.164-2.233.306a.574.574 0 0 0 .04.571 5.315 5.315 0 0 0 4 .406c.325-.04.812-.508 1.015-.063-.3.511-.933.427-1.4.629.344.61 1.218.489 1.848.489a14.878 14.878 0 0 0 2.273-.447q-.142-1.02-.2-2.049a1.637 1.637 0 0 0 .411-.133zm1.8 10.041a.917.917 0 0 0 .523.025 21.022 21.022 0 0 1-1.8-4.372 5.2 5.2 0 0 0 1.283 4.342z" fill="#f3f3f3"/><path data-name="Path 57" d="M51.926 43.064a6 6 0 0 1-1.3.793.888.888 0 0 1-.162.081 6.616 6.616 0 0 1-1.951.446 1.418 1.418 0 0 1-1.089-.327 1.136 1.136 0 0 1-.219-.66 4.01 4.01 0 0 1-2.431.124c-.379-.124-.406-.662-.3-1.032a5.364 5.364 0 0 1-1.794.1.891.891 0 0 1-.885-.781l.06-.344a3.824 3.824 0 0 1-.73.121c-.63-.062-1.828.344-2.254-.551-.061-.28-.123-.709.1-.931.095-.06.142-.2.284-.142.223.282-.2.57.061.834.609.445 1.524.16 2.193.04.935-.2 1.727-.753 2.62-1.016l.1.285c-.63.568-1.339.669-1.747 1.361a.669.669 0 0 0 .426.731 6.744 6.744 0 0 0 3.657-1.016c.082.041.243.081.243.244a3.423 3.423 0 0 1-1.62.892c-.081.259-.188.369-.026.67a.973.973 0 0 0 .919.211c.243-.044.587-.114.929-.211a6.3 6.3 0 0 0 1.708-.931c.2 0 .163.283.1.385a2.766 2.766 0 0 1-.59.519 5.035 5.035 0 0 1-.456.257 2.027 2.027 0 0 0 .057.31c.058.218.195.27.359.335a5.157 5.157 0 0 0 3.737-1.606c.216-.076.3-.181.406.042.04.283-.19.536-.406.772zm1.421 3.373a4.083 4.083 0 0 1 .1-2.275.22.22 0 0 1 .247-.038 24.747 24.747 0 0 1-.55-2.5c-.353.094-.708.185-1.059.283-1.444.061-3.088.65-3.86-.876a5.26 5.26 0 0 1-3.515-.586 1.4 1.4 0 0 1-.31-1.159q-.258-.014-.515-.045a7.776 7.776 0 0 1-1.525-.382 2.831 2.831 0 0 1-1.1-.749.7.7 0 0 1-.061-.732c-1.2-.242-2.579-.405-3.352-1.381-.061-.283-.141-.528.042-.772a3.67 3.67 0 0 1-1.99-1.014 1.159 1.159 0 0 1 .039-.974 5.291 5.291 0 0 1-1.807-.691 1.238 1.238 0 0 1-.283-.975c-1.931-.048-3.954.035-6.029.051a99.41 99.41 0 0 1-2.437-.025.744.744 0 0 0-.321.489c-.08.221.167.365.3.419a22.242 22.242 0 0 0 8.1-.1l.143.1c.061.528-.8.555-1.195.6-1.4.189-2.716.291-3.68.334-.211.213-.546.547-.387.808.416.7 2.1.341 3.339.09.341-.07.813-.208 1.2-.323.715-.165 1.259-.335 1.939-.457.446.306.006.557-.244.652a31.063 31.063 0 0 1-3.542 1.035c-.266.322-.427.5-.461.759-.047.344.184.479.387.583a15.462 15.462 0 0 0 4.975-1.017c.163-.043.2.143.2.284a5.083 5.083 0 0 1-2.042.917c-.545.155-.937.266-1.176.351-.335.49-.073.825.191.844a16.536 16.536 0 0 0 5.017-1.017.161.161 0 0 1 .142.223c-.129.271-1.094.607-1.864.844 0 0-.56.209-.826.293a1.116 1.116 0 0 0 .254.956c1.646.67 3.371-.121 4.875-.587l.162.1a.274.274 0 0 1-.1.386 7.179 7.179 0 0 1-2.925.974 3.4 3.4 0 0 1-2.579-.425 1.214 1.214 0 0 1-.305-1.218c-.791.079-2.121.391-2.723-.449-.227-.316 0-.567.1-.832-.772-.06-1.929.223-2.5-.425a.806.806 0 0 1 .112-1.151c.1-.112.253-.209.334-.311a14.962 14.962 0 0 1-1.76-.025 1.592 1.592 0 0 1-.993-.6.939.939 0 0 1 .418-1.224 9.445 9.445 0 0 1-2.07-.161 2.271 2.271 0 0 1-1.587-.916.845.845 0 0 1 .183-.832 119.845 119.845 0 0 1-19.5-2.093c-.243-.042-.569-.163-.67 0-.141.446.325.669.569.974a12.859 12.859 0 0 0 5.339 1.728c1.173.2 2.5.314 3.266.394.853.052 1.816.1 2.687.113a66.982 66.982 0 0 0 6.906-.285c.217.031.345.143.244.385-.113.265-1.414.333-2.254.385a60.724 60.724 0 0 1-8.619-.016c-1.306-.1-2.882-.361-4.142-.572 0 0-.465.391-.3.733.224.365.711.3 1.076.447 5.059 1.137 10.745.954 15.945.344l.244.1c.041.14.1.242-.061.386a53.538 53.538 0 0 1-13.6.282l-.148.206c-.122.181-.039.318.162.385a36.746 36.746 0 0 0 15.74-.446l.243.2a.335.335 0 0 1-.062.385 44.263 44.263 0 0 1-10.361 1.2c-.781 0-1.714-.033-2.472-.087a2.294 2.294 0 0 1-.125.207.3.3 0 0 0 .2.487 56.891 56.891 0 0 0 7.468-.209c1.64-.146 3.274-.279 4.862-.563.708-.125 1.408-.419 1.889-.1 0 .1.041.222-.04.284a70.9 70.9 0 0 1-10.67 1.349l-.729.019c-.176.215-.345.439-.156.711a2.98 2.98 0 0 0 1.806.561 34.608 34.608 0 0 0 10.765-1.424c.327-.079.71-.242 1.014-.038 0 .081.062.182-.04.242a26.692 26.692 0 0 1-6.276 1.606 34.847 34.847 0 0 1-4.116.323 1.14 1.14 0 0 0-.17 1.038.308.308 0 0 0 .244.1c4.591.264 8.592-1.159 12.672-2.275.143 0 .143.164.143.283a25.189 25.189 0 0 1-6.539 2.033c-.928.187-2.363.423-3.217.548a2.647 2.647 0 0 0-.3.529c-.061.14-.083.358.1.385a13.168 13.168 0 0 0 3.471-.136 36.638 36.638 0 0 0 9.1-2.362c.184 0 .245.224.163.364a15.481 15.481 0 0 1-3.576 1.364c-1.255.379-2.653.767-3.926 1.1-.2.325-.432.673-.266.923s.237.2.587.2a2.957 2.957 0 0 0 .641-.072 41.3 41.3 0 0 0 8.246-2.883c.142-.142.265.061.387.1a.33.33 0 0 1-.142.285 24.3 24.3 0 0 1-4.534 2.03c-.876.333-1.469.517-2.07.727-.111.462.083.727.286.763 3.008-.429 5.4-2.3 8.126-3.413.081.121.345.121.244.348-1.259.79-2.541 1.45-3.941 2.177-.055.334.035.8.266.825a4.417 4.417 0 0 0 2.225-.757c.862-.486 1.686-1.1 2.486-1.658.181-.1.528-.406.669 0a5.63 5.63 0 0 0-.914 3.168c.123.427.407.915.914.915a2.694 2.694 0 0 0 .862-.436l.126-.141.09-.1a8.346 8.346 0 0 1 .733-2.476c.129-.129.262-.3.385-.02-.425 1.24-.854 2.884-.183 4.143a.871.871 0 0 0 1.078.59c.486-.081.571-.321.822-.7a6.4 6.4 0 0 1-.092-3.1c.1-.121.245 0 .325.042-.1 1.748.2 3.494 1.564 4.45.588.2.771-.285 1.177-.55a8.494 8.494 0 0 1-.121-2.863c0-.2.029-.524.3-.486.174.06.181.49.207.745a10.038 10.038 0 0 0 .138 1.832c.263.869.732 1.809 1.769 1.828a.931.931 0 0 0 .872-.669 5.568 5.568 0 0 1-.853-3.97.2.2 0 0 1 .325-.129c.289.258.036 1.032.143 1.478.286 1.1.731 2.661 1.95 2.863a.8.8 0 0 0 .67-.325 6.316 6.316 0 0 1-.874-2.4z" fill="#f3f3f3"/><path data-name="Path 58" d="M61.932 35.414l.948-.727 1.193.724h-2.14zM3.577 6.261H4.5c1.23 0 2.212-.442 2.212-1.846 0-1.366-.982-1.808-2.212-1.808h-.923v3.654zM0 .07h4.27c4.1 0 6.019 1.382 6.019 4.4 0 2.712-1.981 4.327-5.327 4.327H3.577v4.692H0zm11.847.163h5.635l2.846 8.923h.039l2.98-8.923h5.423v13.422h-3.5l.059-10.308h-.039l-3.424 10.308h-3.288l-3.27-10.308h-.038l.077 10.308h-3.5zm19.231 0h9.462V2.77h-5.885v2.768h5.558v2.539h-5.558v3.037h6.1v2.539h-9.677V.233zm17.73 0h3.578v10.768h5.538v2.653h-9.116V.233zm10.6 0h9.463V2.77h-5.89v2.768h5.558v2.539h-5.558v3.037h6.1v2.539H59.4zm24.248 13.036a19.826 19.826 0 0 1-5.193.615c-3.577 0-7.712-1.806-7.712-6.882 0-5.06 3.556-7 8.482-7a12.9 12.9 0 0 1 4.056.6L83 3.514a6.826 6.826 0 0 0-3.269-.864c-2.9 0-5.287 1.212-5.287 4.347 0 2.632 1.865 4.229 4.48 4.229a3.135 3.135 0 0 0 1.269-.229V8.346H78.1V5.807h5.56v7.462zM86.116.233h9.462V2.77h-5.885v2.768h5.56v2.539h-5.56v3.037h6.1v2.539h-9.677zm11.905 0h4.555l4.541 9.115h.039L107.1.233h3.269v13.422h-4.441l-4.693-9.174h-.039l.114 9.174h-3.289zM116.5 11.001h1.386c2.671 0 4.171-1.386 4.171-4.059s-1.557-4.058-4.169-4.058H116.5zM112.924.233h4.884c4.675 0 7.943 1.459 7.943 6.652 0 5.021-3.366 6.77-7.943 6.77h-4.884z" fill="#f3f3f3"/></svg>